<?xml version="1.0" encoding="UTF-8"?>
<svg id="Layer_2" data-name="Layer 2" xmlns="http://www.w3.org/2000/svg" viewBox="0 0 62.97 110.37">
  <defs>
    <style>
      .cls-1 {
        stroke: #000;
        stroke-linecap: round;
        stroke-linejoin: round;
      }

      .cls-1, .cls-2 {
        fill: #6dc9d1;
      }

      .cls-3 {
        fill: #e86ba5;
      }
    </style>
  </defs>
  <g id="Layer_1-2" data-name="Layer 1">
    <g>
      <g>
        <path class="cls-2" d="M28.02,109.87c-.93,0-1.78-.58-2.11-1.45L6.75,58.11c-2.3-6.04-2.16-12.63.39-18.57l2.63-6.13c.34-.78.35-1.65.05-2.44L.65,6.9c-.44-1.16.14-2.47,1.3-2.91L10.72.65c.26-.1.53-.15.8-.15.93,0,1.78.58,2.11,1.45l9.17,24.07c.3.79.89,1.43,1.66,1.79l6.04,2.82c5.85,2.73,10.35,7.57,12.65,13.61l19.16,50.31c.21.56.2,1.17-.05,1.72-.25.55-.69.97-1.25,1.18l-32.19,12.26c-.26.1-.53.15-.8.15Z"/>
        <path d="M11.53,1c.72,0,1.38.45,1.64,1.13l9.17,24.07c.35.92,1.03,1.65,1.92,2.06l6.04,2.82c5.74,2.68,10.14,7.41,12.39,13.33l19.16,50.31c.34.9-.11,1.92-1.01,2.26l-32.19,12.26c-.2.08-.41.12-.62.12-.72,0-1.38-.45-1.64-1.13L7.22,57.93c-2.25-5.92-2.12-12.38.38-18.2l2.63-6.13c.39-.9.41-1.9.06-2.82L1.12,6.72c-.34-.9.11-1.92,1.01-2.26L10.9,1.12c.2-.08.41-.12.62-.12M11.53,0c-.33,0-.66.06-.98.18L1.77,3.52C.35,4.06-.36,5.66.18,7.08l9.17,24.07c.25.67.24,1.41-.04,2.07l-2.63,6.13c-2.59,6.02-2.73,12.82-.4,18.95l19.16,50.31c.42,1.1,1.46,1.77,2.57,1.77.33,0,.66-.06.98-.18l32.19-12.26c1.42-.54,2.13-2.13,1.59-3.55l-19.16-50.31c-2.33-6.13-6.96-11.11-12.9-13.88l-6.04-2.82c-.65-.3-1.15-.85-1.41-1.51L14.1,1.77c-.42-1.1-1.46-1.77-2.57-1.77h0Z"/>
      </g>
      <line class="cls-1" x1="2.54" y1="11.5" x2="15.28" y2="6.64"/>
      <g>
        <rect class="cls-3" x="13.88" y="53.77" width="38.96" height="38.96" transform="translate(-23.89 16.67) rotate(-20.85)"/>
        <path d="M44.34,48.76l13.51,35.47-35.47,13.51-13.51-35.47,35.47-13.51M44.92,47.47L7.58,61.69l14.22,37.34,37.34-14.22-14.22-37.34h0Z"/>
      </g>
      <g>
        <path class="cls-2" d="M36.93,82.63c-2.86-.87-5.7-2.07-8.89-3.75-2.1-1.11-3.67-2.22-4.92-3.49-.74-.76-1.28-1.58-1.6-2.44-.5-1.36-.48-2.73.06-4.07.66-1.65,1.85-2.76,3.53-3.3.64-.2,1.27-.31,1.87-.31,1.17,0,2.29.39,3.34,1.17.09.06.19.1.3.1.06,0,.12-.01.18-.03.16-.06.28-.2.31-.37.4-1.92,1.52-3.3,3.32-4.1.76-.34,1.54-.51,2.3-.51.84,0,1.7.21,2.53.62,1.29.64,2.22,1.65,2.75,3,.34.86.48,1.83.43,2.89-.09,1.78-.52,3.65-1.35,5.88-1.26,3.38-2.58,6.16-4.14,8.72Z"/>
        <path d="M36.72,62.02c.77,0,1.54.19,2.31.57,1.2.59,2.02,1.49,2.51,2.73.31.79.45,1.69.4,2.68-.09,1.73-.51,3.55-1.32,5.73-1.22,3.25-2.43,5.84-3.9,8.3-2.73-.86-5.36-1.98-8.43-3.6-2.06-1.09-3.58-2.17-4.8-3.4-.69-.7-1.2-1.47-1.49-2.27-.46-1.26-.44-2.47.05-3.71.61-1.51,1.69-2.52,3.22-3.01.59-.19,1.17-.28,1.72-.28,1.08,0,2.07.35,3.04,1.07.17.13.38.2.6.2.12,0,.24-.02.36-.07.32-.12.55-.4.62-.73.37-1.78,1.36-3.01,3.03-3.75.7-.31,1.4-.47,2.1-.47M36.72,61.02c-.83,0-1.67.18-2.5.55-1.99.89-3.18,2.4-3.6,4.46-1.12-.83-2.34-1.26-3.63-1.26-.65,0-1.33.11-2.02.33-1.83.58-3.12,1.8-3.84,3.59-.6,1.49-.6,2.98-.06,4.43.36.99.97,1.87,1.71,2.62,1.47,1.49,3.21,2.61,5.05,3.58,3.04,1.6,6,2.91,9.29,3.88l.1-.04c1.81-2.92,3.15-5.85,4.35-9.07.73-1.95,1.28-3.94,1.38-6.03.05-1.05-.08-2.12-.47-3.1-.57-1.44-1.55-2.55-2.99-3.26-.91-.45-1.83-.67-2.75-.67h0Z"/>
      </g>
    </g>
  </g>
</svg>