<?xml version="1.0" encoding="UTF-8"?>
<svg id="Layer_2" data-name="Layer 2" xmlns="http://www.w3.org/2000/svg" viewBox="0 0 193.85 128.66">
  <defs>
    <style>
      .cls-1 {
        fill: #fffff3;
      }
    </style>
  </defs>
  <g id="Layer_1-2" data-name="Layer 1">
    <g>
      <path class="cls-1" d="M90.02,128.16c-3.72,0-7.44-.51-11.06-1.51-14.43-4.01-25.58-15.56-29.08-30.15-.05-.22-.26-.38-.49-.38,0,0-.39,0-.39,0-2.33,0-4.63-.31-6.83-.92-6.56-1.82-12.02-6.09-15.37-12.02s-4.19-12.81-2.37-19.37c.31-1.1.72-2.22,1.3-3.54.07-.15.05-.33-.03-.47s-.24-.23-.41-.23c-2.13-.06-4.19-.36-6.11-.89C5.63,54.91-2.33,40.83,1.44,27.28c3.06-11,13.15-18.68,24.55-18.68,2.3,0,4.6.32,6.84.94,1.37.38,2.73.9,4.18,1.59.07.03.14.05.22.05.16,0,.31-.07.4-.21C42.42,4.42,50.11.5,58.2.5c2.29,0,4.59.31,6.82.93,5.36,1.49,9.99,4.63,13.39,9.08.1.13.25.2.4.2.09,0,.18-.02.26-.08,6.58-4.11,14.13-6.28,21.83-6.28,3.72,0,7.44.51,11.06,1.51,7.54,2.1,14.3,6.27,19.54,12.07.1.11.23.17.37.17.07,0,.14-.02.21-.05,3.47-1.63,7.3-2.5,11.1-2.5,2.33,0,4.67.32,6.94.95,12.7,3.53,20.75,16,18.73,29.02-.02.14.02.28.1.39.09.11.21.18.35.19,1.71.13,3.39.43,4.99.87,13.82,3.84,21.94,18.21,18.1,32.02-3.12,11.22-13.42,19.05-25.05,19.05-.55,0-1.1-.02-1.65-.05-.01,0-.02,0-.03,0-.23,0-.44.16-.49.39l-.1.46c-.06.27-.11.55-.19.82-3.12,11.22-13.42,19.06-25.05,19.06-2.35,0-4.69-.32-6.98-.96-3.63-1.01-6.95-2.78-9.87-5.26-.09-.08-.21-.12-.32-.12-.02,0-.03,0-.05,0-.13.01-.26.08-.34.19-7.76,9.76-19.83,15.58-32.27,15.58Z"/>
      <path d="M58.2,1c2.25,0,4.5.31,6.68.92,5.25,1.46,9.79,4.54,13.13,8.9.2.26.49.39.79.39.18,0,.36-.05.53-.15,6.5-4.06,13.96-6.2,21.57-6.2,3.67,0,7.35.5,10.92,1.5,7.45,2.07,14.13,6.19,19.3,11.93.19.22.47.33.74.33.14,0,.29-.03.43-.1,3.4-1.6,7.16-2.45,10.88-2.45,2.29,0,4.58.31,6.8.93,12.46,3.46,20.35,15.7,18.37,28.46-.04.28.03.56.2.77.17.22.43.35.71.38,1.68.13,3.32.42,4.9.85,13.55,3.76,21.52,17.85,17.75,31.41-3.06,11-13.16,18.68-24.56,18.68-.54,0-1.08-.02-1.62-.05-.02,0-.04,0-.06,0-.46,0-.87.32-.97.78-.03.15-.07.31-.1.46-.05.27-.11.53-.18.8-3.06,11-13.16,18.69-24.56,18.69-2.3,0-4.6-.32-6.84-.94-3.56-.99-6.82-2.72-9.68-5.16-.18-.15-.41-.24-.65-.24-.03,0-.06,0-.1,0-.27.03-.52.16-.69.37-7.67,9.64-19.59,15.39-31.88,15.39-3.68,0-7.35-.5-10.93-1.5-14.26-3.96-25.27-15.38-28.73-29.79-.11-.45-.51-.77-.97-.77,0,0,0,0-.01,0-.13,0-.26,0-.39,0-2.28,0-4.53-.3-6.68-.9-6.43-1.79-11.78-5.97-15.07-11.78-3.29-5.81-4.11-12.56-2.32-18.99.3-1.08.71-2.18,1.28-3.47.14-.3.11-.66-.07-.94-.18-.28-.48-.46-.82-.47-2.1-.06-4.11-.35-5.99-.88-6.43-1.79-11.78-5.97-15.07-11.78C.96,40.59.13,33.85,1.92,27.41c2.99-10.78,12.89-18.31,24.07-18.31,2.25,0,4.51.31,6.7.92,1.34.37,2.68.88,4.1,1.56.14.07.29.1.43.1.31,0,.61-.15.81-.41C42.73,4.84,50.27,1,58.2,1h0M58.2,0c-8.31,0-16.12,4.03-20.98,10.68-1.35-.65-2.77-1.21-4.26-1.62-2.33-.65-4.67-.95-6.97-.95C14.6,8.1,4.15,15.64.95,27.15c-3.84,13.83,4.26,28.16,18.09,32,2.08.58,4.17.85,6.23.91-.51,1.16-.98,2.35-1.33,3.61-3.84,13.83,4.26,28.16,18.09,32,2.32.64,4.65.94,6.95.94.13,0,.27,0,.4,0,3.43,14.27,14.29,26.31,29.43,30.52,3.74,1.04,7.5,1.53,11.2,1.53,12.78,0,24.82-5.91,32.66-15.77,2.84,2.42,6.22,4.29,10.06,5.36,2.37.66,4.76.97,7.11.97,11.61,0,22.27-7.69,25.53-19.42.12-.43.19-.87.29-1.3.56.04,1.12.05,1.68.05,11.61,0,22.27-7.68,25.53-19.42,3.92-14.11-4.34-28.72-18.45-32.64-1.7-.47-3.4-.76-5.09-.89,2.04-13.1-6-25.95-19.09-29.58-2.36-.66-4.74-.97-7.07-.97-3.97,0-7.82.9-11.31,2.55-5.13-5.68-11.86-10.02-19.78-12.22-3.74-1.04-7.49-1.53-11.19-1.53-7.92,0-15.56,2.27-22.1,6.35-3.32-4.33-7.99-7.68-13.66-9.26C62.83.31,60.49,0,58.2,0h0Z"/>
    </g>
  </g>
</svg>