<?xml version="1.0" encoding="UTF-8"?>
<svg id="Layer_2" data-name="Layer 2" xmlns="http://www.w3.org/2000/svg" viewBox="0 0 262.37 195.73">
  <defs>
    <style>
      .cls-1 {
        fill: #fffff3;
      }
    </style>
  </defs>
  <g id="Layer_1-2" data-name="Layer 1">
    <g>
      <path class="cls-1" d="M92.31,195.23c-12.72,0-24.82-6.68-31.57-17.43-.07-.12-.19-.2-.33-.23-.03,0-.06,0-.09,0-.11,0-.21.03-.3.1-1.97,1.46-4.06,2.72-6.22,3.75-5.05,2.4-10.43,3.62-15.99,3.62-14.32,0-27.54-8.35-33.69-21.28-7.53-15.83-2.89-35.03,11.04-45.64.2-.15.25-.42.14-.63-.1-.19-.21-.38-.32-.57-.2-.35-.4-.71-.57-1.08-8.83-18.56-.91-40.85,17.65-49.68,4.88-2.32,10.14-3.53,15.62-3.58.14,0,.26-.06.36-.16.09-.1.14-.23.14-.37-1.01-23.72,12.18-45.63,33.61-55.82,7.99-3.8,16.5-5.73,25.28-5.73,12.22,0,24.43,3.92,34.39,11.03.09.06.19.09.29.09.12,0,.24-.04.33-.13,2.63-2.36,5.55-4.3,8.67-5.78,4.95-2.36,10.23-3.55,15.67-3.55,14.04,0,27,8.19,33.03,20.86.71,1.48,1.31,3.09,1.91,5.05.05.16.17.28.33.33.05.01.1.02.14.02.11,0,.23-.04.32-.11,2.37-1.94,4.88-3.55,7.46-4.78,4.95-2.36,10.23-3.55,15.67-3.55,14.04,0,27,8.19,33.03,20.86,8.65,18.2.89,40.04-17.31,48.7-1.84.87-3.81,1.6-6.02,2.21-.23.06-.39.28-.37.52,1.27,15.08-7.05,29.58-20.69,36.06-4.91,2.33-10.15,3.52-15.58,3.52h0c-2.49,0-4.99-.26-7.45-.76-.03,0-.07-.01-.1-.01-.22,0-.41.14-.48.35-4.84,15.78-16.17,28.9-31.06,35.98-7.98,3.79-16.48,5.72-25.26,5.72-2.38,0-4.79-.15-7.16-.44-.02,0-.04,0-.06,0-.2,0-.38.12-.46.3-3.61,8.18-10.02,14.79-18.06,18.62-5.05,2.4-10.42,3.62-15.97,3.62Z"/>
      <path d="M107.08,1c12.12,0,24.23,3.89,34.1,10.94.17.12.38.19.58.19.24,0,.48-.09.67-.25,2.6-2.32,5.47-4.24,8.55-5.7,4.89-2.32,10.09-3.5,15.46-3.5,13.85,0,26.63,8.07,32.58,20.57.69,1.46,1.29,3.04,1.89,4.98.1.32.35.57.67.66.1.03.19.04.29.04.23,0,.45-.08.63-.23,2.34-1.92,4.81-3.5,7.36-4.71,4.89-2.32,10.09-3.5,15.46-3.5,13.85,0,26.63,8.07,32.58,20.57,8.54,17.95.88,39.5-17.07,48.03-1.81.86-3.75,1.57-5.94,2.18-.46.13-.77.57-.73,1.05,1.25,14.88-6.95,29.17-20.4,35.57-4.84,2.3-10.01,3.47-15.36,3.47-2.45,0-4.93-.25-7.35-.75-.07-.01-.14-.02-.2-.02-.43,0-.82.28-.96.71-4.8,15.65-16.03,28.65-30.79,35.68-7.91,3.76-16.34,5.67-25.05,5.67-2.36,0-4.75-.15-7.1-.43-.04,0-.08,0-.12,0-.39,0-.75.23-.91.6-3.56,8.07-9.89,14.6-17.82,18.37-4.98,2.37-10.28,3.57-15.75,3.57-12.55,0-24.49-6.59-31.15-17.2-.15-.24-.39-.4-.66-.45-.06-.01-.12-.02-.18-.02-.21,0-.42.07-.6.2-1.95,1.44-4.01,2.69-6.14,3.7-4.99,2.37-10.29,3.57-15.77,3.57-14.13,0-27.17-8.24-33.24-20.99-7.43-15.62-2.85-34.56,10.9-45.03.39-.3.51-.84.27-1.27-.1-.19-.21-.39-.32-.58-.2-.36-.39-.7-.56-1.05-8.71-18.31-.9-40.3,17.42-49.01,4.82-2.29,10-3.48,15.41-3.53.27,0,.53-.12.72-.31s.29-.46.27-.73c-1.01-23.52,12.08-45.24,33.33-55.35,7.93-3.77,16.36-5.68,25.07-5.68M107.08,0c-8.56,0-17.25,1.86-25.5,5.78-22.23,10.58-34.89,33.16-33.9,56.3-5.32.05-10.71,1.19-15.83,3.63-18.84,8.96-26.85,31.5-17.89,50.34.28.58.6,1.11.9,1.67-13.91,10.6-19.01,29.83-11.19,46.25,6.47,13.6,20.02,21.56,34.14,21.56,5.44,0,10.96-1.18,16.2-3.67,2.26-1.08,4.36-2.36,6.3-3.8,7.04,11.21,19.29,17.67,32,17.67,5.43,0,10.95-1.18,16.18-3.67,8.51-4.05,14.78-10.87,18.3-18.87,2.39.29,4.8.44,7.22.44,8.55,0,17.24-1.85,25.48-5.77,15.68-7.46,26.6-20.9,31.32-36.29,2.47.51,5,.77,7.55.77,5.3,0,10.68-1.14,15.79-3.57,14.33-6.81,22.22-21.63,20.97-36.56,2.06-.57,4.1-1.29,6.1-2.24,18.48-8.79,26.33-30.89,17.54-49.36-6.34-13.34-19.63-21.14-33.48-21.14-5.33,0-10.75,1.16-15.89,3.6-2.78,1.32-5.28,2.97-7.56,4.84-.53-1.73-1.14-3.44-1.94-5.12-6.34-13.34-19.63-21.14-33.48-21.14-5.33,0-10.75,1.16-15.89,3.6-3.28,1.56-6.21,3.56-8.79,5.86C131.67,3.92,119.52,0,107.08,0h0Z"/>
    </g>
  </g>
</svg>