<?xml version="1.0" encoding="UTF-8"?>
<svg id="Layer_2" data-name="Layer 2" xmlns="http://www.w3.org/2000/svg" viewBox="0 0 152.5 88.98">
  <defs>
    <style>
      .cls-1 {
        fill: #6dc9d1;
        stroke: #1a1a1a;
        stroke-miterlimit: 10;
      }

      .cls-2 {
        fill: #fffff3;
        stroke: #000;
        stroke-linecap: round;
        stroke-linejoin: round;
      }
    </style>
  </defs>
  <g id="Layer_1-2" data-name="Layer 1">
    <g>
      <path class="cls-1" d="M85.2,88.48c-1.9,0-3.78-.2-5.6-.59-.82.1-1.63.15-2.45.15h-2.58l-.41.03h-.71c-1.05,0-2.09-.08-3.12-.23-.96.13-1.93.2-2.91.2h-3.64c-.44,0-.88-.02-1.34-.05-.45.03-.89.05-1.33.05h-2.2c-.3,0-.6,0-.9-.02-1.6.31-3.23.46-4.86.46-2.43,0-4.83-.35-7.12-1.03-2.43.69-4.96,1.03-7.57,1.03s-5.34-.38-7.86-1.14c-1.76.46-3.58.7-5.42.7h-3.35c-11.71,0-20.88-9.09-20.88-20.71,0-1.15.11-2.91.63-4.97,0-.02-.01-.03-.02-.05-.7-2.12-1.05-4.3-1.05-6.5,0-6.63,3.18-12.81,8.73-16.97,4.29-3.26,8.89-4.91,13.68-4.91.91,0,1.82.06,2.72.18.42-.05.84-.1,1.26-.12-.02-.46-.03-.92-.03-1.38,0-7.28,2.6-13.81,7.51-18.87,5.01-5.16,11.82-8,19.19-8,1.09,0,2.29.06,3.64.2h.08s1.98,0,1.98,0c1.61,0,3.18.16,4.7.47.79-.18,1.59-.32,2.4-.43,3.75-3.48,8.72-5.48,13.97-5.48,5.52,0,10.56,2.13,14.28,5.74,1.77-.34,3.57-.51,5.41-.51,7.49,0,14.27,2.7,19.08,7.6,3.53,3.59,5.87,8.07,6.83,12.96,1.49-.32,3.04-.49,4.62-.49,12.01,0,21.41,9.65,21.41,21.97,0,.95-.05,1.94-.21,3.78l-.65,8.94c.61,2.02.92,4.11.92,6.26,0,5.98-2.41,11.53-6.79,15.65-4.05,3.79-9.3,5.88-14.8,5.88-1.26,0-2.51-.11-3.75-.33-.64.06-1.28.09-1.92.09h-2.58l-.41.03h-.71c-1.05,0-2.09-.08-3.12-.23-.96.13-1.93.2-2.91.2h-3.64c-.54,0-1.09-.02-1.66-.07-.57.05-1.12.07-1.66.07h-3.5c-2.11,0-4.19-.3-6.17-.9-1.52.46-3.09.74-4.69.84-.53.03-1.25.05-2.07.05h-.59c-.32,0-.65,0-.97-.02-1.6.31-3.23.46-4.88.46Z"/>
      <path class="cls-2" d="M140.97,61.92c.01-.18.02-.34.03-.49l.77-10.66c.15-1.77.18-2.47.18-3.01,0-6.82-4.91-11.97-11.41-11.97-5.29,0-9.52,3.32-10.99,8.17-.2,0-.39-.03-.58-.03,0,0-.01,0-.02,0-.94,0-1.63-.87-1.36-1.77.28-.95.43-1.95.43-2.97,0-.87-.1-1.72-.31-2.57l-.09-.34c-.23-.83-.56-1.63-.99-2.37-.12-.21-.19-.45-.19-.69v-1.83c0-4.25-1.54-8.06-4.45-11.03-2.06-2.1-5.81-4.61-11.95-4.61-2.48,0-4.87.48-7.11,1.43-.31.13-.62.27-.9.42l-1.98-.65c-1.64-3.82-5.32-6.43-9.7-6.43-3.54,0-6.83,1.77-8.8,4.73-.12.18-.23.36-.33.55-.37-.02-.74-.05-1.12-.05-1.98,0-3.88.32-5.66.91-.3.1-.61.09-.91-.01-1.29-.46-2.69-.69-4.24-.69h-2.43c-.15-.01-.35-.03-.6-.06-1.03-.1-1.9-.15-2.67-.15-4.71,0-8.86,1.72-12.01,4.96-3.07,3.16-4.69,7.28-4.69,11.91,0,2.11.34,4.12,1,5.98.11.3.1.62,0,.92-.46,1.3-.7,2.64-.7,4,0,.17.01.33.02.49-1.25.1-2.46.34-3.63.69-.29.09-.6.08-.89-.03-1.3-.48-2.71-.74-4.21-.74-.86,0-1.72.09-2.56.27-.19.04-.39.04-.58,0-.77-.18-1.57-.27-2.39-.27-3.44,0-6.01,1.63-7.66,2.89-4.13,3.08-4.75,6.95-4.75,8.99,0,1.13.18,2.24.54,3.34.33.98.8,1.9,1.4,2.73v.07c-1.34,2.23-1.5,4.44-1.5,5.38,0,6,4.78,10.71,10.88,10.71h3.35c1.76,0,3.41-.4,4.86-1.1.39-.19.84-.2,1.23-.02,2.21,1.02,4.62,1.56,7.18,1.56s4.92-.51,7.1-1.47c.38-.17.82-.16,1.19.03,1.92.93,4.08,1.44,6.4,1.44,1.14,0,2.48-.12,3.93-.49.16-.04.32-.05.48-.03.44.05.89.08,1.35.08h2.2c.45,0,.89-.03,1.32-.09.44.05.89.09,1.35.09h3.64c.89,0,1.77-.11,2.62-.32.22-.05.45-.05.67,0,.87.22,1.78.34,2.73.34h.36l.41-.03h2.94c.84,0,1.67-.1,2.48-.3.24-.06.49-.05.72.02,1.53.47,3.16.72,4.85.72,1.42,0,2.81-.18,4.12-.54.54.07,1.12.1,1.72.1h.59c.7,0,1.19-.02,1.45-.03,1.65-.1,3.22-.58,4.61-1.37.42-.24.95-.24,1.37,0,1.61.9,3.48,1.41,5.5,1.41h3.5c.51,0,1-.04,1.48-.11.11-.02.23-.02.34,0,.49.06.98.11,1.49.11h3.64c.89,0,1.77-.11,2.62-.32.22-.05.45-.05.67,0,.87.22,1.78.34,2.73.34h.36l.41-.03h2.94c.68,0,1.35-.07,2.01-.2.2-.04.4-.03.6.02.98.27,2.01.41,3.06.41,2.95,0,5.77-1.12,7.95-3.17,2.34-2.2,3.64-5.17,3.64-8.36,0-1.69-.36-3.33-1.04-4.82Z"/>
      <g>
        <path d="M46.85,32.6c0-2.02.62-3.67,1.87-4.95,1.24-1.28,2.86-1.92,4.83-1.92.43,0,.99.03,1.69.1.69.07,1.16.1,1.4.1h2.62c.49,0,.84.06,1.06.18.21.12.32.32.32.62,0,.51-.79.75-2.38.73h-.65c1.41,1.41,2.12,3.08,2.12,5.02,0,2.17-.87,3.95-2.62,5.32.92.33,1.69.81,2.31,1.44.62.63.93,1.38.93,2.26s-.25,1.56-.73,2.16c-.49.6-1.14,1.04-1.94,1.34-.8.29-1.61.5-2.42.63-.81.13-1.65.19-2.51.19-3.72,0-5.58-.77-5.58-2.32,0-.43.17-.89.5-1.37.33-.48.7-.72,1.09-.72.25,0,.38.15.38.44,0,.06-.01.18-.03.35-.02.18-.03.3-.03.38,0,.51.4.9,1.19,1.18s1.77.41,2.92.41c3.19,0,4.79-.87,4.79-2.62,0-.71-.23-1.26-.68-1.66-.45-.4-1.08-.78-1.88-1.13-.78.27-1.54.41-2.26.41-1.92,0-3.45-.61-4.58-1.84-1.14-1.22-1.7-2.81-1.7-4.75ZM53.29,27.11c-1.29,0-2.3.55-3.01,1.65-.71,1.1-1.07,2.36-1.07,3.79,0,1.31.32,2.48.97,3.51s1.61,1.54,2.88,1.54c1.43,0,2.51-.5,3.23-1.5s1.09-2.26,1.09-3.79c0-1.39-.33-2.6-1-3.64-.67-1.04-1.69-1.56-3.08-1.56Z"/>
        <path d="M62.28,33.57c0-2.17.75-4.03,2.26-5.55,1.51-1.53,3.35-2.29,5.52-2.29,1.43,0,2.59.38,3.48,1.13.89.75,1.34,1.62,1.34,2.6,0,1.74-1.18,3.08-3.53,4.02-1.37.55-3.54.96-6.52,1.23h-.03c.21,1.18.78,2.12,1.69,2.82.91.71,1.97,1.06,3.19,1.06.76,0,1.46-.13,2.07-.38.62-.25,1.08-.54,1.4-.85.31-.31.61-.6.9-.85.28-.25.51-.38.69-.38.14,0,.26.05.38.15.12.1.18.23.18.38,0,.65-.63,1.41-1.9,2.29-1.26.88-2.66,1.32-4.19,1.32-1.94,0-3.58-.63-4.92-1.88-1.34-1.25-2.01-2.86-2.01-4.82ZM69.89,27.17c-1.59,0-2.86.57-3.82,1.72-.96,1.15-1.44,2.67-1.44,4.57.72-.06,1.34-.12,1.85-.19.51-.07,1.18-.2,2.01-.4.83-.2,1.51-.43,2.04-.69.53-.26.99-.64,1.4-1.12.4-.48.6-1.03.6-1.66,0-.69-.23-1.23-.69-1.63-.46-.4-1.11-.6-1.95-.6Z"/>
        <path d="M76.38,26.49c0-.37.32-.56.97-.56.49-.02.82-.07,1-.16s.33-.29.47-.6c.27-.61.49-1.6.65-2.97.06-.39.11-.69.15-.88s.12-.38.24-.56.27-.26.47-.26c.41,0,.62.32.62.97v4.47h2.5c.76,0,1.15.23,1.15.68,0,.49-.35.73-1.06.73h-2.59v8.99c0,.47.04.85.12,1.13.08.28.21.49.4.62.19.13.37.21.54.25.18.04.43.06.76.06h.54c.19,0,.36,0,.51.02.16,0,.3.03.43.07.13.04.22.11.29.22.07.11.1.24.1.4,0,.25-.1.44-.31.56-.21.12-.4.18-.57.18h-3.97c-.41,0-.69-.12-.84-.35-.15-.23-.22-.57-.22-1v-11.14c-.43,0-.75,0-.96-.01-.21,0-.44-.04-.71-.09-.26-.05-.45-.14-.54-.26-.1-.13-.15-.29-.15-.48Z"/>
        <path d="M95.33,27.76c0-.51.49-.97,1.48-1.4.99-.42,2.05-.63,3.19-.63,2.16,0,3.76.54,4.82,1.62,1.06,1.08,1.59,2.42,1.59,4.03v5.02c0,.59.06,1.05.18,1.38.12.33.22.53.32.59.1.06.25.13.47.21.02,0,.06.01.12.04.06.03.1.04.12.04s.05.01.1.04.08.05.09.06.03.03.07.06c.04.03.06.06.07.1l.03.12s.01.09.01.15c0,.22-.08.37-.24.47-.16.1-.31.15-.47.16-.16.01-.41.01-.76.01h-.53c-.43,0-.72,0-.88-.03-.16-.02-.3-.11-.44-.26-.14-.16-.22-.38-.24-.68-.02-.29-.02-.74,0-1.35-1.16,1.84-2.79,2.76-4.91,2.76-1.37,0-2.55-.37-3.53-1.1-.98-.73-1.47-1.77-1.47-3.1,0-.57.14-1.16.41-1.76.27-.61.7-1.2,1.26-1.78.57-.58,1.39-1.05,2.45-1.41,1.07-.36,2.3-.54,3.69-.54.76,0,1.38.05,1.85.15-.08-1.08-.51-1.94-1.29-2.6-.78-.66-1.72-.98-2.82-.98-.76,0-1.39.11-1.88.34-.49.23-.88.45-1.17.68-.29.23-.59.34-.88.34-.55,0-.82-.24-.82-.73ZM102.77,31.9c-1.49,0-2.84.33-4.05,1-1.21.67-1.82,1.67-1.82,3.03,0,.76.26,1.41.79,1.92.53.52,1.23.78,2.12.78,1.45,0,2.55-.41,3.29-1.22.75-.81,1.12-1.79,1.12-2.92v-2.47c-.39-.08-.87-.12-1.44-.12Z"/>
        <path d="M20.5,55.81c0-.29.25-.63.76-1,.76-.59,1.31-.88,1.65-.88.72,0,1.25,1.23,1.59,3.7.35-.82.91-1.65,1.66-2.47s1.51-1.23,2.28-1.23c1.12,0,1.67.6,1.67,1.79,0,.73-.23,1.09-.68,1.09-.16,0-.45-.1-.87-.31-.42-.21-.73-.31-.93-.31-.63,0-1.28.5-1.97,1.51-.69,1.01-1.03,2.11-1.03,3.31v3.64c0,.74.04,1.23.12,1.47.08.23.25.41.53.53.02.02.07.04.15.07.08.03.13.05.16.07s.08.04.15.07c.07.03.11.06.13.09.02.03.05.06.09.1.04.04.06.08.07.12,0,.04.01.09.01.15,0,.47-.29.71-.88.71h-3.35c-.59,0-.88-.23-.88-.71,0-.25.3-.51.91-.76.25-.12.42-.29.49-.53.07-.23.1-.71.1-1.41v-5.96c0-1.04-.42-1.78-1.26-2.23-.02-.02-.08-.05-.19-.1-.11-.05-.18-.08-.21-.1-.03-.02-.07-.05-.13-.09-.06-.04-.1-.09-.12-.15-.02-.06-.03-.12-.03-.18Z"/>
        <path d="M31.25,61.22c0-1.98.73-3.69,2.19-5.13,1.46-1.44,3.18-2.16,5.16-2.16s3.69.7,5.13,2.09c1.44,1.39,2.16,3.08,2.16,5.08,0,2.1-.71,3.85-2.14,5.26-1.43,1.41-3.19,2.12-5.29,2.12s-3.7-.71-5.1-2.13c-1.4-1.42-2.1-3.13-2.1-5.13ZM38.51,55.37c-1.55,0-2.75.57-3.61,1.7-.86,1.14-1.29,2.56-1.29,4.26,0,1.61.43,2.96,1.28,4.05.85,1.1,2.05,1.65,3.6,1.65,1.35,0,2.53-.54,3.54-1.62,1.01-1.08,1.51-2.53,1.51-4.35,0-1.57-.43-2.91-1.29-4.03s-2.11-1.67-3.73-1.67Z"/>
        <path d="M47.29,55.05c0-.23.27-.46.82-.68.74-.29,1.38-.44,1.91-.44.35,0,.58.2.68.59.1.39.15,1.22.15,2.5v5.88c0,2.64.95,3.97,2.85,3.97.45,0,1.06-.12,1.82-.37.76-.24,1.37-.64,1.82-1.19.18-.22.3-.38.37-.48.07-.11.13-.3.19-.59.06-.28.09-.65.09-1.1v-5.58c0-.59-.04-1-.12-1.25-.08-.25-.24-.46-.47-.63-.04-.04-.08-.07-.13-.1s-.09-.05-.13-.07c-.04-.02-.08-.04-.12-.06-.04-.02-.07-.04-.1-.06-.03-.02-.05-.04-.07-.07-.02-.03-.04-.07-.04-.12-.01-.05-.01-.09-.01-.13,0-.06,0-.11.01-.15,0-.04.02-.07.03-.1,0-.03.03-.06.07-.1l.07-.07s.04-.03.1-.06c.06-.03.1-.05.12-.06.02,0,.06-.03.13-.07s.11-.06.13-.06c.65-.29,1.28-.44,1.91-.44.35,0,.58.2.68.59.1.39.15,1.22.15,2.5v7.64c0,.69.04,1.16.12,1.42.08.26.25.45.5.54.02.02.08.04.18.07.1.03.17.05.21.07l.18.09c.08.04.14.07.18.1.04.03.08.07.12.12.04.05.07.1.09.15.02.05.03.1.03.16,0,.43-.23.65-.68.65h-2.2c-.12,0-.22-.02-.31-.06-.09-.04-.16-.1-.22-.18s-.1-.16-.13-.24c-.03-.08-.05-.19-.06-.32-.01-.14-.02-.25-.03-.35-.01-.1-.01-.24-.01-.43v-.43c-1.53,1.63-3.19,2.44-5,2.44-1.45,0-2.56-.49-3.33-1.47-.77-.98-1.16-2.31-1.16-4v-5.46c0-1.08-.2-1.7-.59-1.88-.51-.25-.76-.46-.76-.62Z"/>
        <path d="M62.78,55.78c0-.29.25-.62.73-.97.1-.08.23-.18.38-.29.16-.12.28-.22.38-.29.1-.08.21-.15.35-.21.14-.06.26-.09.38-.09.63,0,1.04.85,1.23,2.56,1.37-1.7,3.08-2.56,5.11-2.56,1.61,0,2.88.53,3.82,1.59.8.9,1.2,2.2,1.2,3.91v5.23c0,1.16.18,1.8.53,1.94.65.24.97.49.97.76,0,.22-.08.38-.25.5-.17.12-.33.18-.48.18h-3.29l-.41.03c-.41,0-.62-.23-.62-.71,0-.25.21-.48.62-.68.31-.14.51-.32.6-.56.09-.24.13-.72.13-1.47v-5.7c0-1.08-.3-1.91-.9-2.51-.6-.6-1.43-.9-2.51-.9-.43,0-.96.1-1.6.29s-1.18.51-1.63.94c-.63.63-.94,1.49-.94,2.59v5.52c0,.63.04,1.04.12,1.25.08.21.26.38.56.51.06.02.15.05.26.1.12.05.2.08.25.1.05.02.11.05.18.1s.12.1.15.16c.03.06.04.14.04.23,0,.2-.07.36-.21.48s-.31.19-.53.19h-3.64c-.63,0-.94-.23-.94-.68,0-.25.26-.48.79-.68.31-.12.52-.31.62-.57.1-.26.15-.76.15-1.48v-6.35c0-.65-.03-1.09-.1-1.32-.07-.23-.24-.41-.51-.53-.08-.02-.18-.05-.29-.1-.12-.05-.21-.09-.28-.12s-.14-.06-.22-.1c-.08-.04-.13-.09-.16-.15-.03-.06-.04-.12-.04-.18Z"/>
        <path d="M87.9,47.32c0-.31.44-.65,1.32-1,.88-.35,1.48-.53,1.79-.53.45,0,.68.34.68,1.03v18.92c0,.29.23.58.69.87.46.28.69.53.69.75s-.06.38-.19.48c-.13.11-.27.17-.43.18-.16.01-.43.01-.82.01h-.59c-.63,0-1.01-.08-1.16-.25-.15-.17-.22-.69-.22-1.57-1.18,1.51-2.66,2.26-4.47,2.26s-3.39-.69-4.54-2.06c-1.15-1.37-1.72-3.02-1.72-4.94,0-2.04.63-3.8,1.88-5.3,1.25-1.5,2.89-2.25,4.91-2.25,1.23,0,2.49.42,3.76,1.26v-6.2c0-.33-.08-.59-.25-.78-.17-.19-.35-.3-.54-.34-.2-.04-.38-.1-.54-.19-.17-.09-.25-.21-.25-.37ZM85.87,55.37c-1.41,0-2.53.58-3.35,1.73-.82,1.16-1.23,2.49-1.23,4,0,1.61.37,2.96,1.1,4.05.74,1.1,1.87,1.65,3.39,1.65.45,0,.99-.1,1.63-.31s1.14-.51,1.51-.93c.37-.37.56-.83.56-1.38v-7.58c-.76-.45-1.39-.77-1.87-.95-.48-.19-1.06-.28-1.75-.28Z"/>
        <path d="M103.35,55.78c0-.2.07-.36.22-.48.15-.13.42-.28.82-.47.4-.19.67-.32.81-.4.61-.33,1.07-.5,1.38-.5.18,0,.31.03.4.1.09.07.19.38.29.93.11.55.16,1.34.16,2.38v7.46c0,.71.04,1.16.13,1.37.09.21.29.38.6.51.51.2.76.43.76.71,0,.43-.29.65-.88.65h-3.5c-.61,0-.91-.22-.91-.65,0-.06,0-.12.01-.18s.02-.1.04-.13l.06-.09s.05-.05.1-.07c.05-.02.08-.03.1-.04.02,0,.06-.03.13-.06s.11-.04.13-.04c.27-.1.46-.17.54-.21.09-.04.19-.18.29-.41.11-.24.16-.58.16-1.03v-6.82c0-.51-.06-.91-.18-1.2-.12-.29-.25-.48-.38-.56-.14-.08-.31-.15-.53-.21-.53-.12-.79-.3-.79-.56ZM104.29,50.05c0-.47.16-.85.47-1.15s.71-.44,1.18-.44.83.15,1.13.44.46.66.46,1.09c0,.51-.16.92-.49,1.22-.32.3-.73.46-1.22.46-.45,0-.82-.16-1.1-.47-.28-.31-.43-.69-.43-1.15Z"/>
        <path d="M110.38,55.78c0-.29.25-.62.73-.97.1-.08.23-.18.38-.29.16-.12.28-.22.38-.29.1-.08.21-.15.35-.21.14-.06.26-.09.38-.09.63,0,1.04.85,1.23,2.56,1.37-1.7,3.08-2.56,5.11-2.56,1.61,0,2.88.53,3.82,1.59.8.9,1.2,2.2,1.2,3.91v5.23c0,1.16.18,1.8.53,1.94.65.24.97.49.97.76,0,.22-.08.38-.25.5-.17.12-.33.18-.48.18h-3.29l-.41.03c-.41,0-.62-.23-.62-.71,0-.25.21-.48.62-.68.31-.14.51-.32.6-.56.09-.24.13-.72.13-1.47v-5.7c0-1.08-.3-1.91-.9-2.51-.6-.6-1.43-.9-2.51-.9-.43,0-.96.1-1.6.29s-1.18.51-1.63.94c-.63.63-.94,1.49-.94,2.59v5.52c0,.63.04,1.04.12,1.25.08.21.26.38.56.51.06.02.15.05.26.1.12.05.2.08.25.1.05.02.11.05.18.1s.12.1.15.16c.03.06.04.14.04.23,0,.2-.07.36-.21.48s-.31.19-.53.19h-3.64c-.63,0-.94-.23-.94-.68,0-.25.26-.48.79-.68.31-.12.52-.31.62-.57.1-.26.15-.76.15-1.48v-6.35c0-.65-.03-1.09-.1-1.32-.07-.23-.24-.41-.51-.53-.08-.02-.18-.05-.29-.1-.12-.05-.21-.09-.28-.12s-.14-.06-.22-.1c-.08-.04-.13-.09-.16-.15-.03-.06-.04-.12-.04-.18Z"/>
        <path d="M128.86,66.65c0-.43.15-.79.46-1.09.3-.29.67-.44,1.1-.44s.83.16,1.13.47.46.7.46,1.15c0,.41-.16.77-.48,1.07-.32.3-.69.46-1.1.46-.45,0-.82-.16-1.12-.47-.29-.31-.44-.7-.44-1.15ZM128.98,47.79c0-1.33.52-2,1.56-2,.94,0,1.41.66,1.41,1.97,0,.31-.05,1.06-.15,2.23l-.79,10.93c0,.08,0,.19-.01.34s-.02.26-.03.35c0,.09-.02.19-.03.31s-.03.21-.06.28-.06.14-.1.22c-.04.08-.09.13-.16.16s-.14.04-.22.04c-.12,0-.22-.03-.29-.1-.08-.07-.13-.18-.16-.32-.03-.15-.05-.27-.07-.38-.02-.11-.03-.24-.03-.4v-.29l-.85-13.34Z"/>
      </g>
    </g>
  </g>
</svg>