<?xml version="1.0" encoding="UTF-8"?>
<svg id="Layer_2" data-name="Layer 2" xmlns="http://www.w3.org/2000/svg" viewBox="0 0 169.1 160.69">
  <defs>
    <style>
      .cls-1, .cls-2 {
        fill: #fffff3;
      }

      .cls-3 {
        fill: #ad6dbd;
      }

      .cls-3, .cls-2 {
        stroke: #000;
        stroke-linecap: round;
        stroke-linejoin: round;
      }

      .cls-4 {
        fill: #f4da42;
        stroke: #1a1a1a;
        stroke-miterlimit: 10;
      }

      .cls-5 {
        fill: #e86ba5;
      }

      .cls-6 {
        fill: #6dc9d1;
      }
    </style>
  </defs>
  <g id="Layer_1-2" data-name="Layer 1">
    <g>
      <g>
        <path class="cls-6" d="M65.74,86.08c-11.93-3.13-23.26-7.46-36.67-14.01-8.47-4.14-14.8-8.35-19.94-13.26-3.14-3-5.45-6.31-6.87-9.83C.01,43.39-.08,37.71,1.99,32.09c2.55-6.93,7.33-11.68,14.23-14.12,2.85-1.01,5.66-1.52,8.38-1.52,4.96,0,9.73,1.7,14.2,5.05.09.07.19.1.3.1.06,0,.13-.01.19-.04.16-.07.28-.21.3-.39,1.29-8.56,5.86-14.74,13.6-18.37,3.27-1.53,6.6-2.3,9.93-2.3s6.78.8,10.12,2.37c5.42,2.55,9.35,6.66,11.66,12.21,1.46,3.51,2.14,7.49,2.01,11.83-.21,7.1-1.77,14.55-4.89,23.44-4.95,14.08-9.98,25.12-16.28,35.73Z"/>
        <path d="M63.12,1c3.3,0,6.63.78,9.9,2.32,5.31,2.5,9.15,6.52,11.41,11.95,1.44,3.44,2.1,7.35,1.97,11.62-.21,7.05-1.76,14.45-4.86,23.29-4.89,13.91-9.85,24.84-16.04,35.31-11.76-3.11-22.97-7.41-36.21-13.88-8.42-4.11-14.72-8.3-19.81-13.17-3.09-2.95-5.36-6.2-6.75-9.66-2.2-5.46-2.29-11.02-.26-16.53,2.49-6.78,7.18-11.43,13.92-13.82,2.79-.99,5.55-1.49,8.21-1.49,4.84,0,9.52,1.67,13.9,4.95.18.13.39.2.6.2.13,0,.26-.02.38-.07.33-.13.56-.43.61-.78,1.26-8.39,5.74-14.44,13.32-17.99,3.2-1.5,6.47-2.26,9.72-2.26M63.12,0c-3.39,0-6.79.78-10.14,2.35-8.04,3.77-12.59,10.14-13.88,18.74-4.52-3.39-9.37-5.15-14.5-5.15-2.77,0-5.62.51-8.55,1.55-7.04,2.49-11.94,7.39-14.53,14.42-2.16,5.88-1.97,11.66.28,17.25,1.54,3.81,4.02,7.17,6.99,10.01,5.9,5.64,12.79,9.79,20.07,13.34,12.2,5.96,24,10.73,37.13,14.14,6.95-11.65,12.01-23.33,16.51-36.14,2.68-7.64,4.68-15.43,4.92-23.59.12-4.11-.47-8.24-2.05-12.03-2.32-5.55-6.24-9.8-11.91-12.47-3.42-1.61-6.88-2.42-10.33-2.42h0Z"/>
      </g>
      <g>
        <path class="cls-3" d="M120.21,111.49c-41.2-59.39-72.51,6.99-.48,1.01-72.04,5.98-30.2,66.29.64.92-30.84,65.38,42.31,59.3,1.11-.09,41.2,59.39,72.51-6.99.48-1.01,72.04-5.98,30.2-66.29-.64-.92,30.84-65.38-42.31-59.3-1.11.09Z"/>
        <path class="cls-2" d="M120.75,111.3c-6.71-71.97-66.6-29.53-.91.65-65.68-30.17-58.87,42.91.1,1.11-58.97,41.8,7.73,72.44,1.02.47,6.71,71.97,66.6,29.53.91-.65,65.68,30.17,58.87-42.91-.1-1.11,58.97-41.8-7.73-72.44-1.02-.47Z"/>
        <g>
          <path class="cls-5" d="M120.85,123.75c-1.53,0-3.03-.31-4.46-.92-5.75-2.46-8.42-9.14-5.96-14.88,1.79-4.18,5.88-6.88,10.42-6.88,1.53,0,3.03.31,4.46.92,5.74,2.46,8.42,9.14,5.96,14.88-1.79,4.18-5.88,6.88-10.42,6.88Z"/>
          <path d="M120.86,101.57h0c1.47,0,2.9.3,4.26.88,2.66,1.14,4.72,3.25,5.79,5.93,1.08,2.69,1.04,5.63-.1,8.29-1.71,3.99-5.62,6.57-9.96,6.57-1.47,0-2.9-.3-4.26-.88-5.49-2.35-8.05-8.73-5.69-14.22,1.71-3.99,5.62-6.57,9.97-6.57M120.86,100.57c-4.59,0-8.96,2.69-10.88,7.18-2.57,6.01.21,12.96,6.22,15.54,1.52.65,3.1.96,4.65.96,4.59,0,8.96-2.69,10.88-7.18,2.57-6.01-.21-12.96-6.22-15.54-1.52-.65-3.1-.96-4.65-.96h0Z"/>
        </g>
      </g>
      <g>
        <g>
          <g>
            <path class="cls-1" d="M32.95,136.65c-1.1,0-2.07-.78-2.32-1.86L13.53,59.51l35.12-5.76,7.83,76.8c.13,1.25-.74,2.39-1.98,2.59l-21.16,3.47c-.13.02-.26.03-.39.03h0Z"/>
            <path d="M48.21,54.33l7.77,76.27c.1.99-.58,1.89-1.56,2.05l-21.16,3.47c-.1.02-.2.03-.31.03-.87,0-1.64-.62-1.83-1.47L14.13,59.92l34.07-5.59M49.09,53.17l-36.17,5.93,17.22,75.8c.3,1.33,1.48,2.25,2.8,2.25.15,0,.31-.01.47-.04l21.16-3.47c1.5-.25,2.55-1.62,2.4-3.14l-7.88-77.33h0Z"/>
          </g>
          <path class="cls-4" d="M45.63,57.71l-27.98,4.59,14.4,64.04c.33,1.49,1.77,2.45,3.27,2.21l14.71-2.41c1.5-.25,2.55-1.62,2.4-3.14l-6.8-65.28Z"/>
        </g>
        <g>
          <path class="cls-1" d="M21.73,83.6c-2.19,0-4.04-1.57-4.39-3.74l-1.6-9.74c-.02-.12-.08-.23-.18-.31l-.28-.22c-.09-.07-.2-.11-.31-.11,0,0-.23,0-.23,0-3.28,0-6.04-2.35-6.57-5.59-.29-1.76.12-3.52,1.16-4.97,1.04-1.45,2.58-2.4,4.33-2.69.33-.05.69-.08,1.07-.08.25,0,.53-.18.56-.43.6-4.42,3.97-7.88,8.37-8.6.54-.09,1.1-.13,1.64-.13,2.82,0,5.53,1.2,7.45,3.29.1.11.23.16.37.16.08,0,.16-.02.24-.06.8-.43,1.66-.72,2.55-.87.44-.07.89-.11,1.33-.11,3.07,0,5.94,1.78,7.31,4.53.06.12.16.21.29.25.05.02.1.03.16.03.08,0,.16-.02.23-.05.67-.35,1.39-.56,2.13-.63.18-.02.36-.03.55-.03,2.77,0,5.26,2.04,5.79,4.75.31,1.58-.02,3.18-.94,4.5-.92,1.32-2.3,2.19-3.88,2.45-.1.02-.21.03-.31.04-.27.02-.55.27-.53.54.14,2.18-1.38,4.09-3.54,4.44-.23.04-.46.06-.69.06h0c-1.01,0-1.99-.37-2.76-1.03-.09-.08-.21-.12-.33-.12-.05,0-.1,0-.15.02-.16.05-.29.18-.34.35-.84,3.08-3.42,5.41-6.57,5.92-.44.07-.89.11-1.33.11-2.39,0-4.66-1.05-6.22-2.88-.1-.11-.24-.18-.38-.18-.07,0-.14.01-.21.05-.2.09-.32.31-.28.54l.88,5.37c.19,1.17-.08,2.35-.78,3.32-.69.97-1.72,1.61-2.9,1.8-.25.04-.49.06-.73.06Z"/>
          <path d="M25.32,47.5c2.68,0,5.26,1.14,7.08,3.13.19.21.46.33.74.33.16,0,.32-.04.47-.12.75-.4,1.56-.68,2.4-.82.41-.07.84-.1,1.25-.1,2.88,0,5.58,1.67,6.86,4.25.12.24.33.42.58.5.1.03.21.05.31.05.16,0,.31-.04.46-.11.61-.32,1.27-.51,1.95-.57.17-.02.33-.02.5-.02,2.54,0,4.82,1.87,5.3,4.35.28,1.45-.02,2.91-.86,4.12-.84,1.21-2.1,2.01-3.55,2.24-.09.01-.18.02-.27.03h-.09c-.54.06-.94.53-.9,1.07.12,1.92-1.22,3.61-3.12,3.92-.2.03-.41.05-.61.05-.89,0-1.75-.32-2.43-.91-.18-.16-.42-.24-.65-.24-.1,0-.2.01-.29.04-.33.1-.58.36-.67.69-.79,2.89-3.21,5.08-6.17,5.56-.41.07-.83.1-1.25.1-2.25,0-4.37-.99-5.84-2.71-.19-.23-.48-.35-.76-.35-.14,0-.29.03-.42.09-.41.19-.64.63-.57,1.07l.88,5.37c.17,1.04-.07,2.09-.69,2.95s-1.53,1.43-2.57,1.6c-.21.04-.43.05-.65.05-1.94,0-3.58-1.4-3.9-3.32l-1.6-9.74c-.04-.24-.19-.48-.38-.63l-.26-.21c-.18-.14-.4-.22-.63-.22-.01,0-.02,0-.03,0-.07,0-.13,0-.2,0-3.03,0-5.58-2.17-6.07-5.17-.55-3.35,1.73-6.53,5.09-7.08.31-.05.63-.07.99-.07h.06s0,0,0,0c.5,0,.92-.37.99-.87.57-4.2,3.77-7.49,7.96-8.17.52-.08,1.04-.13,1.56-.13h0M25.32,46.5c-.57,0-1.15.05-1.73.14-4.71.77-8.18,4.53-8.79,9.03-.02,0-.04,0-.07,0-.38,0-.77.02-1.15.09-3.9.64-6.55,4.32-5.91,8.23.58,3.51,3.61,6.01,7.06,6.01.08,0,.15,0,.23,0,.1.08.18.14.28.22l1.6,9.74c.4,2.43,2.5,4.16,4.89,4.16.27,0,.54-.02.81-.07,2.7-.44,4.53-2.99,4.09-5.69l-.88-5.37c1.62,1.9,4.01,3.06,6.6,3.06.47,0,.94-.04,1.41-.12,3.46-.57,6.1-3.11,6.97-6.28.84.72,1.93,1.15,3.09,1.15.25,0,.51-.02.77-.06,2.42-.4,4.11-2.57,3.96-4.97.14-.01.28-.02.42-.05,3.55-.58,5.93-3.98,5.24-7.54-.59-2.99-3.28-5.15-6.28-5.15-.2,0-.39,0-.59.03-.84.08-1.62.32-2.31.68-1.45-2.91-4.45-4.8-7.76-4.8-.47,0-.94.04-1.41.12-.97.16-1.88.48-2.71.92-1.97-2.15-4.78-3.46-7.82-3.46h0Z"/>
        </g>
      </g>
    </g>
  </g>
</svg>