<?xml version="1.0" encoding="UTF-8"?>
<svg id="Layer_2" data-name="Layer 2" xmlns="http://www.w3.org/2000/svg" viewBox="0 0 120.09 96.44">
  <defs>
    <style>
      .cls-1 {
        fill: #fffff3;
        stroke: #000;
        stroke-linecap: round;
        stroke-linejoin: round;
      }

      .cls-2 {
        fill: #e86ba5;
      }
    </style>
  </defs>
  <g id="Layer_1-2" data-name="Layer 1">
    <g>
      <g>
        <path class="cls-2" d="M25.88,95.94c-4.56,0-8.27-.66-11.67-2.08-8.15-3.39-13.41-11.14-13.41-19.75,0-1.44.15-2.89.44-4.3.01-.07.01-.15,0-.22-.48-2.05-.73-4.2-.73-6.39,0-7.15,2.55-13.56,7.37-18.52,2.36-2.43,5.12-4.34,8.22-5.68.16-.07.27-.21.29-.39.23-1.52.63-3.01,1.19-4.43.02-.06.04-.12.04-.18v-4.6c0-.07-.01-.13-.04-.19-1.03-2.44-1.55-5.03-1.55-7.68,0-7.31,3.92-13.89,10.49-17.59,1.4-.8,2.92-1.48,4.64-2.07,1.84-.63,4.36-1.36,7.48-1.36,4.66,0,9.2,1.64,12.79,4.62.09.08.21.12.32.12.07,0,.14-.01.21-.04,2.06-.94,4.26-1.51,6.52-1.71.07,0,.14-.03.2-.06,3.11-1.72,6.63-2.63,10.17-2.63,6.79,0,12.97,3.1,16.98,8.52.07.09.16.16.27.19l.22.06c1.05.27,2.08.61,3.14,1.05.83.35,1.26.56,1.41.63l.88.44.41.23c4.82,2.58,8.45,7.04,9.97,12.25.6,2.07.88,4.19.88,6.68,0,.36,0,.72-.03,1.08,0,.05,0,.1.02.15.06.23.12.46.17.69.04.16.15.29.3.35,4.71,1.93,8.46,5.58,10.58,10.28.02.05.05.1.09.14,3.49,3.68,5.41,8.55,5.41,13.69,0,2.06-.3,4.08-.91,6.02-.03.1-.03.2,0,.3.64,2,.96,4.07.96,6.17,0,7.22-3.88,13.92-10.14,17.49-3.13,1.79-6.67,2.74-10.24,2.74h-3.97c-.74,0-1.46-.04-2.21-.13-.02,0-.09,0-.11,0-.75.08-1.51.13-2.26.13h-2.2c-.29,0-.58,0-.88-.02,0,0-.08,0-.12,0-1.57.3-3.17.45-4.77.45-2.37,0-4.72-.34-6.98-1.01-.05-.01-.09-.02-.14-.02s-.09,0-.14.02c-2.38.67-4.88,1.01-7.43,1.01-4.37,0-8.52-1.01-12.33-3-.07-.04-.15-.06-.23-.06s-.16.02-.23.06c-3.43,1.77-7.15,2.77-11.07,2.97-.1,0-.2.04-.28.1-1.93,1.47-4.07,2.64-6.35,3.48-2,.73-4.05,1.26-6.11,1.59-1.81.28-3.67.43-5.54.43Z"/>
        <path d="M38.63,1c4.54,0,8.97,1.6,12.47,4.51.18.15.41.23.64.23.14,0,.28-.03.41-.09,2.01-.91,4.15-1.47,6.36-1.66.14-.01.27-.05.4-.12,3.04-1.68,6.47-2.57,9.93-2.57,6.62,0,12.67,3.03,16.58,8.31.13.18.33.31.54.37l.24.07c1.02.26,2.02.59,3.05,1.02.83.35,1.25.55,1.38.62l.85.42.44.25c4.7,2.51,8.24,6.87,9.72,11.95.59,2.02.86,4.1.86,6.55,0,.35,0,.7-.03,1.05,0,.1,0,.21.03.31.06.22.11.45.16.67.07.32.29.58.6.7,4.59,1.88,8.25,5.44,10.32,10.02.05.1.11.2.19.28,3.4,3.59,5.27,8.33,5.27,13.35,0,2.01-.3,3.98-.88,5.87-.06.2-.06.41,0,.6.62,1.95.94,3.97.94,6.02,0,7.04-3.79,13.57-9.89,17.06-3.05,1.75-6.51,2.68-9.99,2.68h-3.97c-.72,0-1.42-.04-2.16-.12-.04,0-.07,0-.11,0s-.07,0-.11,0c-.73.08-1.48.12-2.2.12h-2.2c-.28,0-.57,0-.85-.02-.01,0-.03,0-.04,0-.06,0-.13,0-.19.02-1.54.29-3.11.44-4.67.44-2.33,0-4.63-.33-6.84-.99-.09-.03-.19-.04-.29-.04s-.18.01-.27.04c-2.34.66-4.79,1-7.3,1-4.29,0-8.36-.99-12.1-2.95-.15-.08-.3-.11-.46-.11s-.32.04-.46.11c-3.37,1.74-7.02,2.72-10.86,2.91-.2.01-.4.08-.56.2-1.89,1.44-3.98,2.58-6.22,3.4-1.97.72-3.99,1.24-6.01,1.56-1.78.28-3.62.42-5.46.42-4.49,0-8.14-.65-11.48-2.04-7.96-3.31-13.1-10.88-13.1-19.28,0-1.41.14-2.82.43-4.2.03-.14.03-.29,0-.43-.48-2.02-.72-4.13-.72-6.27,0-7.02,2.5-13.3,7.22-18.18,2.31-2.38,5.02-4.26,8.06-5.57.32-.14.54-.43.59-.77.22-1.48.61-2.94,1.16-4.32.05-.12.07-.24.07-.37v-4.6c0-.13-.03-.26-.08-.39-1-2.38-1.51-4.9-1.51-7.49,0-7.13,3.83-13.55,10.24-17.16,1.37-.78,2.86-1.45,4.55-2.03,1.81-.62,4.27-1.34,7.32-1.34M38.63,0c-3.2,0-5.76.74-7.65,1.39-1.75.6-3.31,1.3-4.72,2.11-6.73,3.79-10.75,10.53-10.75,18.03,0,2.72.54,5.39,1.59,7.88v4.6c-.58,1.46-.99,2.99-1.22,4.54-3.12,1.35-5.96,3.3-8.38,5.79C2.6,49.41,0,55.93,0,63.22c0,2.23.25,4.41.74,6.5-.3,1.45-.45,2.92-.45,4.4,0,8.81,5.38,16.74,13.72,20.21,3.47,1.44,7.24,2.11,11.87,2.11,1.89,0,3.78-.15,5.61-.43,2.09-.33,4.17-.87,6.2-1.61,2.34-.86,4.53-2.06,6.48-3.55,3.99-.2,7.82-1.24,11.27-3.03,3.83,2,8.11,3.06,12.56,3.06,2.6,0,5.14-.35,7.57-1.03,2.29.68,4.69,1.03,7.12,1.03,1.63,0,3.26-.15,4.86-.46.3.01.6.02.9.02h2.2c.77,0,1.54-.04,2.32-.13.77.09,1.52.13,2.27.13h3.97c3.66,0,7.3-.98,10.49-2.81,6.41-3.66,10.39-10.53,10.39-17.93,0-2.16-.33-4.29-.99-6.32.61-1.97.93-4.04.93-6.16,0-5.32-1.99-10.28-5.55-14.04-2.19-4.86-6.08-8.58-10.85-10.54-.05-.23-.11-.47-.17-.7.02-.37.03-.74.03-1.1,0-2.54-.29-4.71-.9-6.82-1.56-5.35-5.27-9.91-10.21-12.55l-.43-.24-.89-.44c-.15-.08-.59-.29-1.44-.64-1.09-.45-2.14-.8-3.2-1.07-.07-.02-.15-.04-.22-.06C82.15,3.53,75.75.29,68.83.29c-3.65,0-7.24.94-10.41,2.69-2.33.2-4.59.8-6.68,1.75-3.6-2.99-8.19-4.74-13.11-4.74h0Z"/>
      </g>
      <path class="cls-1" d="M110.09,69.71c0-2.05-.57-4.04-1.7-5.82-.11-.16-.21-.32-.33-.48,1.25-1.74,1.97-3.87,1.97-6.19,0-3.63-1.67-6.46-4.07-8.3-1.28-4.57-5.3-7.82-10.19-7.82-.66,0-1.3.08-1.93.2.25-1.08.38-2.2.38-3.36,0-1.75-.32-3.44-.93-5,.13-.7.2-1.41.2-2.11,0-1.59-.15-2.83-.5-4.03-.82-2.82-2.77-5.18-5.38-6.56l-.31-.17-.63-.31c-.1-.05-.37-.18-.88-.39-.68-.28-1.3-.49-1.93-.64-.71-.21-1.43-.36-2.19-.45-.24-.03-.53-.06-.86-.09-.31-.03-.63-.03-.94-.04-.33-.91-.76-1.79-1.28-2.61-2.14-3.3-5.79-5.26-9.76-5.26-2.72,0-5.32.96-7.39,2.69-.4-.05-.81-.08-1.22-.08-3.54,0-6.83,1.77-8.8,4.73-.12.18-.23.36-.33.55-.37-.02-.74-.05-1.12-.05-.35,0-.68.03-1.02.05-1.19-4.76-5.29-8.19-10.32-8.19-1.71,0-3.17.42-4.38.84-1.15.4-2.16.85-3.08,1.37-3.54,2-5.66,5.47-5.66,9.32,0,1.98.56,3.88,1.59,5.5v9.21c-.93,1.58-1.44,3.4-1.44,5.32,0,1.73.41,3.34,1.12,4.78-.03,0-.05,0-.08,0-4.71,0-8.86,1.72-12.01,4.96-3.07,3.16-4.69,7.28-4.69,11.91,0,2.29.4,4.46,1.17,6.44-.58,1.44-.87,2.94-.87,4.46,0,4.83,2.9,9.04,7.56,10.97,2.21.92,4.76,1.35,8.03,1.35,1.38,0,2.74-.1,4.06-.31,1.45-.23,2.9-.6,4.31-1.12,2.42-.89,4.54-2.37,6.15-4.29.77.1,1.54.17,2.34.17,4.74,0,8.99-1.73,12.31-5,.15-.15.28-.31.42-.46.11.11.2.24.31.35,3.3,3.34,7.52,5.11,12.22,5.11,2.77,0,5.36-.6,7.7-1.74,2.07,1.13,4.43,1.74,6.99,1.74,1.21,0,2.63-.14,4.17-.56.52.08,1.05.11,1.59.11h2.2c.8,0,1.57-.09,2.31-.25.74.15,1.5.25,2.27.25h3.97c1.92,0,3.84-.52,5.53-1.49,3.3-1.88,5.35-5.43,5.35-9.24Z"/>
      <g>
        <path d="M35.51,21.53c0-.2.2-.4.59-.62.37-.22.84-.42,1.41-.62.57-.2.94-.29,1.12-.29.45,0,.68.34.68,1.03v18.07c0,1.04.22,1.63.68,1.76.02,0,.07.01.15.04s.13.05.15.06c.02.01.06.03.13.06s.11.05.13.07c.02.02.05.05.1.09.05.04.08.07.09.1,0,.03.02.07.04.12.02.05.03.1.03.16,0,.23-.07.41-.21.51-.14.11-.29.16-.47.16h-3.64c-.55,0-.82-.23-.82-.68,0-.29.23-.52.68-.68.27-.1.47-.28.59-.56s.18-.77.18-1.5v-15.63c0-.33-.08-.59-.25-.78-.17-.19-.35-.3-.54-.34-.2-.04-.38-.1-.54-.19-.17-.09-.25-.21-.25-.37Z"/>
        <path d="M42.18,35.98c0-2.17.75-4.03,2.26-5.55,1.51-1.53,3.35-2.29,5.52-2.29,1.43,0,2.59.38,3.48,1.13.89.75,1.34,1.62,1.34,2.6,0,1.74-1.18,3.08-3.53,4.02-1.37.55-3.54.96-6.52,1.23h-.03c.21,1.18.78,2.12,1.69,2.82.91.71,1.97,1.06,3.19,1.06.76,0,1.46-.13,2.07-.38.62-.25,1.08-.54,1.4-.85.31-.31.61-.6.9-.85.28-.25.51-.38.69-.38.14,0,.26.05.38.15.12.1.18.23.18.38,0,.65-.63,1.41-1.9,2.29-1.26.88-2.66,1.32-4.19,1.32-1.94,0-3.58-.63-4.92-1.88-1.34-1.25-2.01-2.86-2.01-4.82ZM49.79,29.58c-1.59,0-2.86.57-3.82,1.72-.96,1.15-1.44,2.67-1.44,4.57.72-.06,1.34-.12,1.85-.19.51-.07,1.18-.2,2.01-.4.83-.2,1.51-.43,2.04-.69.53-.26.99-.64,1.4-1.12.4-.48.6-1.03.6-1.66,0-.69-.23-1.23-.69-1.63-.46-.4-1.11-.6-1.95-.6Z"/>
        <path d="M56.29,28.9c0-.37.32-.56.97-.56.49-.02.82-.07,1-.16s.33-.29.47-.6c.27-.61.49-1.6.65-2.97.06-.39.11-.69.15-.88s.12-.38.24-.56.27-.26.47-.26c.41,0,.62.32.62.97v4.47h2.5c.76,0,1.15.23,1.15.68,0,.49-.35.73-1.06.73h-2.59v8.99c0,.47.04.85.12,1.13.08.28.21.49.4.62.19.13.37.21.54.25.18.04.43.06.76.06h.54c.19,0,.36,0,.51.02.16,0,.3.03.43.07.13.04.22.11.29.22.07.11.1.24.1.4,0,.25-.1.44-.31.56-.21.12-.4.18-.57.18h-3.97c-.41,0-.69-.12-.84-.35-.15-.23-.22-.57-.22-1v-11.14c-.43,0-.75,0-.96-.01-.21,0-.44-.04-.71-.09-.26-.05-.45-.14-.54-.26-.1-.13-.15-.29-.15-.48Z"/>
        <path d="M67.39,21.65c0-.39.14-.71.43-.97.28-.25.62-.38,1.01-.38.61,0,1.06.24,1.37.71.3.47.46,1.03.46,1.67,0,.86-.2,1.68-.59,2.45s-.77,1.34-1.15,1.69-.62.53-.73.53c-.08,0-.16-.03-.24-.1-.08-.07-.12-.15-.12-.25s.15-.29.44-.59c.29-.29.59-.67.88-1.13.29-.46.44-.96.44-1.51,0-.22-.03-.38-.1-.48-.07-.11-.14-.17-.21-.18-.07,0-.18-.02-.34-.04-1.04-.04-1.56-.51-1.56-1.41Z"/>
        <path d="M74.33,32.34c0-1.16.46-2.14,1.38-2.97.92-.82,2.11-1.23,3.55-1.23.24,0,.46,0,.69.03s.42.04.59.06c.17.02.35.06.54.12.2.06.34.1.44.12.1.02.24.07.43.15.19.08.3.13.34.15.04.02.16.08.35.18l.26.15c.25.12.42.29.48.53.07.24.1.65.1,1.23s-.13.88-.38.88c-.2,0-.42-.11-.66-.34-.25-.23-.49-.48-.74-.76-.25-.28-.62-.54-1.12-.76-.5-.23-1.05-.34-1.66-.34-.72,0-1.37.18-1.92.54-.56.36-.84.89-.84,1.57,0,.51.2.93.6,1.25.4.32.9.56,1.48.71s1.23.32,1.94.53,1.35.43,1.94.68c.59.25,1.08.64,1.48,1.18.4.54.6,1.2.6,1.98,0,1.41-.55,2.55-1.65,3.42-1.1.87-2.36,1.31-3.79,1.31-1.16,0-2.28-.31-3.36-.93s-1.63-1.34-1.63-2.16c0-.2.07-.39.22-.57.15-.19.32-.28.51-.28.33,0,.61.12.82.35.21.24.44.51.66.84.22.32.47.55.75.69.86.43,1.65.65,2.35.65.78,0,1.49-.22,2.12-.65.63-.43.94-1.03.94-1.79,0-.69-.27-1.21-.81-1.59-.54-.37-1.19-.64-1.97-.81-.77-.17-1.54-.36-2.31-.57-.76-.22-1.42-.61-1.95-1.19-.54-.58-.81-1.36-.81-2.34Z"/>
        <path d="M20,63.22c0-2.02.62-3.67,1.87-4.95,1.24-1.28,2.86-1.92,4.83-1.92.43,0,.99.03,1.69.1.69.07,1.16.1,1.4.1h2.62c.49,0,.84.06,1.06.18.21.12.32.32.32.62,0,.51-.79.75-2.38.73h-.65c1.41,1.41,2.12,3.08,2.12,5.02,0,2.17-.87,3.95-2.62,5.32.92.33,1.69.81,2.31,1.44.62.63.93,1.38.93,2.26s-.25,1.56-.73,2.16c-.49.6-1.14,1.04-1.94,1.34-.8.29-1.61.5-2.42.63-.81.13-1.65.19-2.51.19-3.72,0-5.58-.77-5.58-2.32,0-.43.17-.89.5-1.37.33-.48.7-.72,1.09-.72.25,0,.38.15.38.44,0,.06-.01.18-.03.35-.02.18-.03.3-.03.38,0,.51.4.9,1.19,1.18s1.77.41,2.92.41c3.19,0,4.79-.87,4.79-2.62,0-.71-.23-1.26-.68-1.66-.45-.4-1.08-.78-1.88-1.13-.78.27-1.54.41-2.26.41-1.92,0-3.45-.61-4.58-1.84-1.14-1.22-1.7-2.81-1.7-4.75ZM26.43,57.72c-1.29,0-2.3.55-3.01,1.65-.71,1.1-1.07,2.36-1.07,3.79,0,1.31.32,2.48.97,3.51s1.61,1.54,2.88,1.54c1.43,0,2.51-.5,3.23-1.5s1.09-2.26,1.09-3.79c0-1.39-.33-2.6-1-3.64-.67-1.04-1.69-1.56-3.08-1.56Z"/>
        <path d="M35.54,63.63c0-1.98.73-3.69,2.19-5.13,1.46-1.44,3.18-2.16,5.16-2.16s3.69.7,5.13,2.09c1.44,1.39,2.16,3.08,2.16,5.08,0,2.1-.71,3.85-2.14,5.26-1.43,1.41-3.19,2.12-5.29,2.12s-3.7-.71-5.1-2.13c-1.4-1.42-2.1-3.13-2.1-5.13ZM42.8,57.78c-1.55,0-2.75.57-3.61,1.7-.86,1.14-1.29,2.56-1.29,4.26,0,1.61.43,2.96,1.28,4.05.85,1.1,2.05,1.65,3.6,1.65,1.35,0,2.53-.54,3.54-1.62,1.01-1.08,1.51-2.53,1.51-4.35,0-1.57-.43-2.91-1.29-4.03s-2.11-1.67-3.73-1.67Z"/>
        <path d="M60.81,63.63c0-1.98.73-3.69,2.19-5.13,1.46-1.44,3.18-2.16,5.16-2.16s3.69.7,5.13,2.09c1.44,1.39,2.16,3.08,2.16,5.08,0,2.1-.71,3.85-2.14,5.26-1.43,1.41-3.19,2.12-5.29,2.12s-3.7-.71-5.1-2.13c-1.4-1.42-2.1-3.13-2.1-5.13ZM68.07,57.78c-1.55,0-2.75.57-3.61,1.7-.86,1.14-1.29,2.56-1.29,4.26,0,1.61.43,2.96,1.28,4.05.85,1.1,2.05,1.65,3.6,1.65,1.35,0,2.53-.54,3.54-1.62,1.01-1.08,1.51-2.53,1.51-4.35,0-1.57-.43-2.91-1.29-4.03s-2.11-1.67-3.73-1.67Z"/>
        <path d="M76.85,57.46c0-.23.27-.46.82-.68.74-.29,1.38-.44,1.91-.44.35,0,.58.2.68.59.1.39.15,1.22.15,2.5v5.88c0,2.64.95,3.97,2.85,3.97.45,0,1.06-.12,1.82-.37.76-.24,1.37-.64,1.82-1.19.18-.22.3-.38.37-.48.07-.11.13-.3.19-.59.06-.28.09-.65.09-1.1v-5.58c0-.59-.04-1-.12-1.25-.08-.25-.24-.46-.47-.63-.04-.04-.08-.07-.13-.1s-.09-.05-.13-.07c-.04-.02-.08-.04-.12-.06-.04-.02-.07-.04-.1-.06-.03-.02-.05-.04-.07-.07-.02-.03-.04-.07-.04-.12-.01-.05-.01-.09-.01-.13,0-.06,0-.11.01-.15,0-.04.02-.07.03-.1,0-.03.03-.06.07-.1l.07-.07s.04-.03.1-.06c.06-.03.1-.05.12-.06.02,0,.06-.03.13-.07s.11-.06.13-.06c.65-.29,1.28-.44,1.91-.44.35,0,.58.2.68.59.1.39.15,1.22.15,2.5v7.64c0,.69.04,1.16.12,1.42.08.26.25.45.5.54.02.02.08.04.18.07.1.03.17.05.21.07l.18.09c.08.04.14.07.18.1.04.03.08.07.12.12.04.05.07.1.09.15.02.05.03.1.03.16,0,.43-.23.65-.68.65h-2.2c-.12,0-.22-.02-.31-.06-.09-.04-.16-.1-.22-.18s-.1-.16-.13-.24c-.03-.08-.05-.19-.06-.32-.01-.14-.02-.25-.03-.35-.01-.1-.01-.24-.01-.43v-.43c-1.53,1.63-3.19,2.44-5,2.44-1.45,0-2.56-.49-3.33-1.47-.77-.98-1.16-2.31-1.16-4v-5.46c0-1.08-.2-1.7-.59-1.88-.51-.25-.76-.46-.76-.62Z"/>
        <path d="M91.84,57.1c0-.37.32-.56.97-.56.49-.02.82-.07,1-.16s.33-.29.47-.6c.27-.61.49-1.6.65-2.97.06-.39.11-.69.15-.88s.12-.38.24-.56.27-.26.47-.26c.41,0,.62.32.62.97v4.47h2.5c.76,0,1.15.23,1.15.68,0,.49-.35.73-1.06.73h-2.59v8.99c0,.47.04.85.12,1.13.08.28.21.49.4.62.19.13.37.21.54.25.18.04.43.06.76.06h.54c.19,0,.36,0,.51.02.16,0,.3.03.43.07.13.04.22.11.29.22.07.11.1.24.1.4,0,.25-.1.44-.31.56-.21.12-.4.18-.57.18h-3.97c-.41,0-.69-.12-.84-.35-.15-.23-.22-.57-.22-1v-11.14c-.43,0-.75,0-.96-.01-.21,0-.44-.04-.71-.09-.26-.05-.45-.14-.54-.26-.1-.13-.15-.29-.15-.48Z"/>
      </g>
    </g>
  </g>
</svg>