<?xml version="1.0" encoding="UTF-8"?>
<svg id="Layer_2" data-name="Layer 2" xmlns="http://www.w3.org/2000/svg" viewBox="0 0 42.34 77.73">
  <defs>
    <style>
      .cls-1 {
        fill: #fffff3;
      }

      .cls-2 {
        fill: #f4da42;
        stroke: #1a1a1a;
        stroke-miterlimit: 10;
      }
    </style>
  </defs>
  <g id="Layer_1-2" data-name="Layer 1">
    <g>
      <g>
        <g>
          <path class="cls-1" d="M20.02,77.23c-.13,0-.27-.01-.4-.04l-17.6-3.75c-.99-.21-1.65-1.16-1.49-2.16L10.11,7.28l29.05,6.18-17.3,62.36c-.23.83-.99,1.41-1.84,1.41h0Z"/>
          <path d="M10.53,7.88l28.01,5.96-17.15,61.85c-.17.61-.73,1.04-1.36,1.04-.1,0-.2-.01-.3-.03l-17.61-3.75c-.73-.16-1.22-.86-1.1-1.6L10.53,7.88M9.69,6.69L.03,71.21c-.19,1.26.63,2.46,1.88,2.72l17.61,3.75c.17.04.34.05.5.05,1.06,0,2.03-.71,2.33-1.77L39.79,13.09,9.69,6.69h0Z"/>
        </g>
        <path class="cls-2" d="M35.69,15.58l-23.28-4.95-8.28,54.47c-.19,1.26.63,2.46,1.88,2.72l12.24,2.6c1.25.27,2.49-.49,2.83-1.72l14.61-53.12Z"/>
      </g>
      <g>
        <path class="cls-1" d="M10.47,28.71c-.26,0-.51-.03-.77-.08-.96-.2-1.78-.77-2.31-1.59s-.71-1.8-.51-2.76l1.72-8.1c.03-.12,0-.25-.05-.35l-.15-.26c-.06-.1-.16-.18-.27-.22-2.6-.92-4.12-3.64-3.55-6.34.54-2.53,2.8-4.37,5.39-4.37.38,0,.77.04,1.15.12.29.06.58.15.9.28.06.02.12.04.19.04.18,0,.35-.09.44-.26C14.13,2.15,16.94.5,19.98.5c.59,0,1.18.06,1.76.19,2.78.59,5.06,2.53,6.09,5.2.08.19.26.32.47.32.02,0,.04,0,.06,0,.27-.03.54-.05.82-.05.47,0,.95.05,1.41.15,2.93.62,5.08,3.04,5.35,6.02.01.13.08.26.18.34.09.07.2.11.32.11.02,0,.03,0,.05,0,.17-.02.34-.03.51-.03.45,0,.89.06,1.32.18,2.38.67,3.9,3.11,3.46,5.54-.42,2.32-2.43,4-4.78,4,0,0,0,0,0,0-.34,0-.68-.04-1.02-.11-.09-.02-.17-.04-.26-.07-.05-.01-.1-.02-.15-.02-.22,0-.45.13-.52.33-.46,1.45-1.79,2.42-3.31,2.42-.24,0-.49-.03-.73-.08-1.01-.21-1.86-.86-2.35-1.77-.08-.15-.23-.25-.4-.26-.01,0-.03,0-.04,0-.16,0-.31.07-.4.2-1.28,1.72-3.31,2.75-5.44,2.75-.47,0-.95-.05-1.42-.15-2.34-.5-4.21-2.15-5-4.42-.07-.2-.26-.34-.47-.34,0,0-.02,0-.03,0-.22.01-.41.18-.46.4l-.95,4.47c-.36,1.68-1.86,2.9-3.58,2.9Z"/>
        <path d="M19.98,1c.55,0,1.11.06,1.65.17,2.62.56,4.76,2.38,5.73,4.89.15.39.52.64.93.64.04,0,.08,0,.12,0,.25-.03.51-.05.76-.05.44,0,.88.05,1.31.14,2.71.58,4.7,2.82,4.95,5.58.02.27.15.51.36.68.18.15.4.23.64.23.03,0,.07,0,.1,0,.15-.02.3-.02.45-.02.4,0,.8.06,1.19.17,2.13.61,3.49,2.79,3.1,4.97-.38,2.08-2.18,3.59-4.29,3.59-.3,0-.61-.03-.91-.1-.07-.02-.14-.04-.21-.06l-.07-.02c-.09-.03-.18-.04-.27-.04-.42,0-.82.27-.95.7-.39,1.24-1.53,2.07-2.83,2.07-.21,0-.42-.02-.62-.07-.86-.18-1.59-.74-2.01-1.52-.16-.3-.47-.5-.81-.53-.03,0-.05,0-.08,0-.31,0-.61.15-.8.4-1.18,1.59-3.07,2.54-5.04,2.54-.44,0-.88-.05-1.31-.14-2.17-.46-3.9-1.99-4.63-4.1-.14-.4-.52-.67-.94-.67-.02,0-.04,0-.06,0-.45.03-.82.35-.92.79l-.95,4.47c-.31,1.45-1.61,2.5-3.09,2.5-.22,0-.44-.02-.66-.07-1.71-.36-2.8-2.05-2.43-3.75l1.72-8.1c.05-.24.01-.49-.11-.71l-.15-.26c-.12-.21-.31-.37-.53-.45-2.36-.83-3.75-3.31-3.23-5.77.49-2.3,2.55-3.97,4.9-3.97.35,0,.7.04,1.05.11.26.06.53.14.82.25.12.05.25.07.37.07.35,0,.69-.19.87-.51,1.39-2.5,4.03-4.06,6.89-4.06M19.98,0c-3.24,0-6.21,1.78-7.77,4.57-.31-.13-.64-.23-.98-.3-.42-.09-.84-.13-1.26-.13-2.78,0-5.27,1.94-5.88,4.76-.64,2.99,1.07,5.93,3.87,6.92.05.1.09.16.15.26l-1.72,8.1c-.48,2.25.96,4.46,3.2,4.94.29.06.58.09.87.09,1.92,0,3.65-1.34,4.07-3.3l.95-4.47c.81,2.33,2.78,4.2,5.37,4.75.51.11,1.02.16,1.52.16,2.33,0,4.49-1.12,5.85-2.95.53,1,1.49,1.77,2.68,2.03.28.06.56.09.83.09,1.71,0,3.25-1.11,3.78-2.76.11.03.23.07.34.09.38.08.75.12,1.12.12,2.53,0,4.8-1.8,5.27-4.42.48-2.68-1.19-5.36-3.81-6.11-.49-.14-.98-.2-1.46-.2-.19,0-.37,0-.56.03-.28-3.1-2.54-5.78-5.74-6.46-.51-.11-1.02-.16-1.51-.16-.3,0-.59.02-.88.05-1.05-2.71-3.4-4.86-6.45-5.51C21.22.06,20.59,0,19.98,0h0Z"/>
      </g>
    </g>
  </g>
</svg>