<?xml version="1.0" encoding="UTF-8"?>
<svg id="Layer_2" data-name="Layer 2" xmlns="http://www.w3.org/2000/svg" viewBox="0 0 335.39 169.87">
  <defs>
    <style>
      .cls-1 {
        fill: #3aa749;
      }

      .cls-1, .cls-2, .cls-3, .cls-4 {
        stroke: #000;
        stroke-linecap: round;
        stroke-linejoin: round;
      }

      .cls-2 {
        fill: #d66da9;
      }

      .cls-3 {
        fill: #ffe800;
      }

      .cls-4 {
        fill: #9a72b1;
      }
    </style>
  </defs>
  <g id="Layer_1-2" data-name="Layer 1">
    <g>
      <path class="cls-1" d="M11.22,37.42c4.35,17.65,11.62,34.61,21.72,49.73,10.05,15.14,22.66,28.57,37.18,39.5,14.55,10.89,30.97,19.27,48.34,24.68,17.39,5.32,35.68,7.64,53.82,6.86,18.13-.87,36.21-4.62,53.01-11.61,16.81-6.92,32.46-16.67,45.96-28.84,13.49-12.17,24.91-26.63,33.6-42.6,8.64-16,14.46-33.51,17.24-51.47,1.08-7.63,1.72-15.31,1.78-23.01l11.03.06c-.06,8.22-.74,16.44-1.9,24.6-2.97,19.22-9.2,37.96-18.44,55.07-9.3,17.09-21.5,32.54-35.93,45.55-14.43,13.01-31.17,23.44-49.16,30.84-17.98,7.47-37.33,11.5-56.71,12.42-19.37.84-38.94-1.64-57.55-7.34-18.59-5.78-36.15-14.76-51.71-26.4-15.53-11.69-29.01-26.04-39.76-42.23C12.94,77.06,5.15,58.91.5,40.03"/>
      <path class="cls-4" d="M21.38,34.94c4.06,16.47,10.85,32.31,20.28,46.44,9.39,14.14,21.17,26.69,34.74,36.91,13.6,10.17,28.93,18,45.14,23.05,16.24,4.96,33.31,7.14,50.28,6.41,16.94-.82,33.82-4.31,49.5-10.84,15.69-6.46,30.32-15.56,42.93-26.93,12.61-11.37,23.27-24.88,31.39-39.8,8.06-14.95,13.49-31.28,16.09-48.06,1.01-7.12,1.6-14.3,1.66-21.5l11.03.06c-.06,7.72-.69,15.44-1.78,23.09-2.79,18.03-8.63,35.6-17.3,51.66-8.72,16.03-20.18,30.54-33.72,42.75-13.55,12.21-29.26,22-46.13,28.94-16.86,7.01-35.01,10.78-53.2,11.65-18.2.79-36.55-1.55-54.01-6.89-17.43-5.43-33.9-13.85-48.51-24.77-14.57-10.97-27.23-24.45-37.31-39.64-10.13-15.18-17.44-32.2-21.8-49.91"/>
      <path class="cls-3" d="M31.55,32.47c3.78,15.3,10.07,30.02,18.84,43.14,8.73,13.14,19.68,24.82,32.3,34.31,12.64,9.45,26.89,16.72,41.94,21.42,15.08,4.6,30.95,6.63,46.74,5.95,15.76-.77,31.43-4,46-10.07,14.57-6,28.17-14.46,39.9-25.03,11.72-10.58,21.63-23.14,29.18-36.99,7.49-13.89,12.53-29.06,14.95-44.65.93-6.62,1.49-13.3,1.54-19.99l11.03.06c-.05,7.22-.65,14.43-1.66,21.58-2.61,16.84-8.06,33.24-16.16,48.24-8.15,14.97-18.85,28.53-31.51,39.95-12.66,11.42-27.34,20.55-43.09,27.04-15.75,6.55-32.69,10.06-49.69,10.88-17.03.73-34.17-1.45-50.47-6.43-16.27-5.07-31.66-12.93-45.31-23.14-13.62-10.25-25.45-22.85-34.87-37.05-9.47-14.18-16.28-30.08-20.36-46.62"/>
      <path class="cls-2" d="M41.71,29.99c3.49,14.12,9.29,27.72,17.4,39.85,8.07,12.14,18.2,22.94,29.85,31.72,11.69,8.73,24.84,15.45,38.74,19.79,13.92,4.25,28.58,6.12,43.2,5.5,14.57-.72,29.04-3.69,42.49-9.3,13.46-5.55,26.02-13.35,36.87-23.13,10.83-9.78,20-21.39,26.97-34.19,6.92-12.84,11.56-26.83,13.81-41.23.86-6.12,1.38-12.29,1.42-18.49l11.03.06c-.05,6.73-.61,13.43-1.55,20.08-2.43,15.65-7.49,30.88-15.01,44.83-7.58,13.91-17.53,26.53-29.3,37.15-11.78,10.62-25.43,19.11-40.06,25.14-14.63,6.09-30.36,9.34-46.19,10.11-15.86.68-31.79-1.35-46.93-5.98-15.12-4.72-29.42-12.02-42.11-21.51-12.66-9.53-23.66-21.26-32.43-34.45-8.81-13.18-15.13-27.96-18.92-43.32"/>
    </g>
  </g>
</svg>