<?xml version="1.0" encoding="UTF-8"?>
<svg id="Layer_2" data-name="Layer 2" xmlns="http://www.w3.org/2000/svg" viewBox="0 0 174.25 145.85">
  <defs>
    <style>
      .cls-1 {
        fill: #6dc9d1;
      }

      .cls-1, .cls-2, .cls-3, .cls-4 {
        stroke: #1a1a1a;
        stroke-miterlimit: 10;
      }

      .cls-2 {
        fill: #f4da42;
      }

      .cls-3 {
        fill: #e86ba5;
      }

      .cls-4 {
        fill: #fffff3;
      }
    </style>
  </defs>
  <g id="Layer_1-2" data-name="Layer 1">
    <g>
      <g>
        <circle class="cls-2" cx="43.5" cy="62.46" r="43" transform="translate(-32.1 53.64) rotate(-48.49)"/>
        <g>
          <ellipse cx="59.44" cy="52.87" rx="6.34" ry="2.75" transform="translate(-10.49 90.79) rotate(-70.12)"/>
          <path d="M33.83,50.36c1.43.52,3.55-1.74,4.75-5.03,1.19-3.3,1-6.39-.43-6.9-1.43-.52-3.55,1.74-4.75,5.03-1.19,3.3-1,6.39.43,6.9Z"/>
          <path d="M34.49,85.21c2.9,1.05,5.92,1.53,8.92,1.44.81-.02,1.61-.09,2.41-.19.68-.09,1.36-.21,2.03-.36s1.39-.34,2.08-.56c1.02-.32,2.02-.71,3-1.17.38-.18.75-.37,1.12-.56,1.25-.67,2.43-1.44,3.53-2.29.85-.67,1.65-1.39,2.4-2.16.9-.92,1.72-1.91,2.46-2.97,1.05-1.5,1.93-3.13,2.63-4.87.1-.26.2-.52.3-.78.15-.41,0-.86-.31-1.12-.08-.07-.18-.12-.28-.16-.29-.1-.59-.07-.83.07-.2.11-.36.3-.44.53,0,0,0,0,0,0-.07.19-.14.38-.21.56-.67,1.7-1.53,3.29-2.56,4.74-1.94,2.74-4.5,5-7.51,6.63-.37.2-.74.39-1.13.57-.95.44-1.91.82-2.89,1.12-.58.18-1.17.34-1.77.47-4.04.89-8.26.63-12.25-.81-5.55-2.01-9.99-6.06-12.5-11.41-2.51-5.35-2.78-11.35-.77-16.91,0,0,0,0,0,0,.19-.52-.08-1.09-.6-1.28-.52-.19-1.09.08-1.28.6-2.19,6.06-1.89,12.6.84,18.43,2.73,5.83,7.58,10.25,13.63,12.44Z"/>
        </g>
      </g>
      <g>
        <path class="cls-4" d="M130.72,43.49l.23-32.47c0-.35-.24-.66-.58-.74L88,.52c-.34-.08-.7.09-.85.41l-14.01,29.29c-3.99,8.34-4.08,17.95-.25,26.38,3.7,8.15,10.71,14.18,19.21,16.55.04.01.09.02.13.03l-11.9,51.61c-.74,3.23-3.97,5.25-7.2,4.5l-7.79-1.8c-1.62-.37-3.23.64-3.6,2.25l35.62,8.21c.37-1.62-.64-3.23-2.25-3.6l-7.79-1.8c-3.23-.74-5.25-3.97-4.5-7.2l11.9-51.61s.09.02.13.03c8.69,1.59,17.62-.76,24.52-6.47,7.13-5.9,11.26-14.58,11.32-23.83Z"/>
        <path class="cls-3" d="M76.25,31.7c-3.55,7.42-3.63,15.97-.22,23.47,3.28,7.22,9.48,12.57,17.01,14.66.4.11.81.22,1.22.31s.82.18,1.24.26c7.68,1.41,15.59-.68,21.71-5.74,6.35-5.25,10.02-12.98,10.08-21.2l.12-17.87c0-.35-.24-.66-.58-.74l-42.01-9.68c-.34-.08-.7.09-.85.41l-7.71,16.12Z"/>
      </g>
      <g>
        <path class="cls-1" d="M161.99,96.92c6.21-13.88-3.12-21.85-15.86-13.54-5.42-14.22-17.68-13.26-20.81,1.64-13.88-6.21-21.84,3.12-13.54,15.86-14.22,5.42-13.26,17.68,1.64,20.81-6.21,13.88,3.12,21.84,15.86,13.54,5.42,14.22,17.68,13.26,20.81-1.64,13.88,6.21,21.84-3.12,13.54-15.86,14.22-5.42,13.26-17.68-1.64-20.81Z"/>
        <g>
          <ellipse cx="142.32" cy="97.84" rx="1.83" ry="4.22" transform="translate(-22.53 46.35) rotate(-17.16)"/>
          <path d="M127.73,106.76c.97-.3,1.19-2.34.5-4.57-.69-2.22-2.03-3.79-2.99-3.49-.97.3-1.19,2.34-.5,4.57.69,2.22,2.03,3.79,2.99,3.49Z"/>
          <path d="M142.03,124.98c1.96-.61,3.75-1.56,5.31-2.81.42-.34.82-.69,1.2-1.07.32-.32.64-.65.93-1s.6-.74.88-1.13c.41-.58.79-1.19,1.12-1.82.13-.25.25-.5.37-.75.4-.86.72-1.73.95-2.63.19-.69.32-1.4.41-2.11.11-.85.14-1.7.11-2.56-.04-1.22-.23-2.43-.56-3.63-.05-.18-.1-.35-.15-.53-.09-.28-.34-.46-.61-.47-.07,0-.14,0-.22.03-.19.06-.34.2-.41.37-.06.14-.07.3-.02.46,0,0,0,0,0,0,.04.13.08.26.11.38.33,1.17.51,2.35.54,3.54.07,2.23-.38,4.45-1.33,6.52-.12.25-.24.5-.37.75-.32.61-.69,1.2-1.08,1.75-.24.33-.49.65-.75.96-1.79,2.09-4.13,3.64-6.82,4.47-3.75,1.16-7.73.79-11.2-1.05-3.47-1.83-6.02-4.91-7.18-8.66,0,0,0,0,0,0-.11-.35-.48-.55-.83-.44-.35.11-.55.48-.44.83,1.26,4.09,4.04,7.44,7.83,9.44,3.78,2,8.12,2.4,12.21,1.14Z"/>
        </g>
      </g>
    </g>
  </g>
</svg>