<?xml version="1.0" encoding="UTF-8"?>
<svg id="Layer_2" data-name="Layer 2" xmlns="http://www.w3.org/2000/svg" viewBox="0 0 86.99 86.99">
  <defs>
    <style>
      .cls-1 {
        fill: #f4da42;
        stroke: #1a1a1a;
        stroke-miterlimit: 10;
      }
    </style>
  </defs>
  <g id="Layer_1-2" data-name="Layer 1">
    <g>
      <circle class="cls-1" cx="43.5" cy="43.5" r="43"/>
      <g>
        <ellipse cx="51.39" cy="26.66" rx="2.75" ry="6.34" transform="translate(-4.92 13.22) rotate(-13.99)"/>
        <path d="M28.72,38.84c1.47-.37,1.98-3.42,1.14-6.82-.85-3.4-2.73-5.86-4.2-5.49-1.47.37-1.98,3.42-1.14,6.82.85,3.4,2.73,5.86,4.2,5.49Z"/>
        <path d="M48.69,67.42c3-.75,5.77-2.03,8.2-3.78.66-.47,1.29-.97,1.89-1.5.51-.45,1.01-.93,1.48-1.43s.96-1.06,1.41-1.62c.67-.83,1.28-1.72,1.84-2.65.22-.36.42-.72.62-1.09.67-1.25,1.22-2.55,1.65-3.87.34-1.03.6-2.07.79-3.13.23-1.26.36-2.55.38-3.84.03-1.83-.14-3.68-.53-5.51-.06-.27-.12-.54-.19-.81-.11-.43-.47-.72-.88-.75-.11,0-.22,0-.33.03-.3.07-.53.27-.65.53-.1.21-.14.45-.08.69,0,0,0,0,0,0,.05.2.09.39.14.59.39,1.78.57,3.58.52,5.36-.09,3.36-.95,6.66-2.54,9.69-.2.37-.4.74-.62,1.1-.54.89-1.13,1.74-1.78,2.54-.38.48-.79.93-1.21,1.37-2.86,2.99-6.51,5.12-10.62,6.15-5.73,1.43-11.68.54-16.74-2.5-5.06-3.04-8.64-7.87-10.06-13.61,0,0,0,0,0,0-.13-.54-.68-.86-1.21-.73-.54.13-.86.68-.73,1.21,1.56,6.25,5.45,11.52,10.97,14.83,5.52,3.32,12,4.29,18.25,2.73Z"/>
      </g>
    </g>
  </g>
</svg>