<?xml version="1.0" encoding="UTF-8"?>
<svg id="Layer_2" data-name="Layer 2" xmlns="http://www.w3.org/2000/svg" viewBox="0 0 168.69 97.44">
  <defs>
    <style>
      .cls-1 {
        fill: #fffff3;
        stroke: #000;
        stroke-linecap: round;
        stroke-linejoin: round;
      }

      .cls-2 {
        fill: #f4da42;
        stroke: #1a1a1a;
        stroke-miterlimit: 10;
      }
    </style>
  </defs>
  <g id="Layer_1-2" data-name="Layer 1">
    <g>
      <path class="cls-2" d="M126.86,96.94c-4.63,0-8.4-.67-11.87-2.11-2.33-.97-4.44-2.28-6.27-3.88h-3.13c-.54,0-1.09-.02-1.66-.07-.57.05-1.12.07-1.66.07h-3.5c-1.26,0-2.51-.11-3.74-.33-1.67.4-3.38.65-5.11.73-1.96,1.49-4.14,2.69-6.48,3.55-2.03.74-4.11,1.28-6.2,1.61-1.84.29-3.72.43-5.61.43-4.63,0-8.4-.67-11.87-2.11-2.28-.95-4.35-2.23-6.15-3.78-1.42.23-2.85.34-4.28.34-2.6,0-5.11-.34-7.52-1.02-.45.15-.92.28-1.38.4-1.69.42-3.4.63-5.11.63-1.52,0-3.02-.16-4.48-.48-1.45.32-2.94.48-4.45.48-7.53,0-14.12-3.94-18.54-11.1l-.09-.15c-1.49-2.47-2.79-5.41-3.97-9-.59-1.78-1.06-3.43-1.42-5.01-1.21-2.67-1.85-5.57-1.85-8.49,0-11.54,9.08-20.59,20.68-20.59h3.06c.98,0,1.96.07,2.92.2.15-.02.29-.04.44-.06-1.01-2.46-1.53-5.11-1.53-7.76,0-11.54,9.08-20.59,20.68-20.59h3.06c.92,0,1.84.06,2.75.18,2.33-2.83,5.45-5.07,9.19-6.56,2.28-.91,5.39-1.96,9.22-1.96,6.77,0,12.86,3.3,16.65,8.51,1.5-.24,3.03-.37,4.59-.37,1.68,0,3.33.15,4.95.46,1.42-.31,2.86-.46,4.31-.46.91,0,1.82.06,2.72.18.93-.12,1.87-.18,2.8-.18,1.69,0,3.35.18,4.96.55,1.82-.37,3.67-.55,5.53-.55,6.19,0,11.86,2.03,16.4,5.86,4.46,3.78,7.27,8.73,8.14,14.21.14,0,.27,0,.41,0,6.86,0,13.03,2.39,17.85,6.9,5.12,4.79,7.93,11.41,7.93,18.66,0,6.1-1.89,11.76-5.49,16.49-.27,5.57-2.64,10.71-6.74,14.56-2.79,2.62-6.19,4.43-9.86,5.29-2.19,1.84-4.7,3.3-7.43,4.3-2.03.74-4.11,1.28-6.2,1.61-1.84.29-3.72.43-5.61.43Z"/>
      <path class="cls-1" d="M142.4,38.7c-3.63,0-7.02,1.03-9.79,2.99-.05.04-.1.08-.15.12.17-.81.23-1.56.23-2.25,0-1.39-.27-2.75-.79-4,.25-1.03.38-2.09.38-3.19,0-3.94-1.73-7.57-4.88-10.24-2.7-2.29-6.14-3.49-9.94-3.49-2.02,0-3.95.33-5.76.94-1.43-.61-3.03-.94-4.73-.94-.96,0-1.92.12-2.85.34-.86-.22-1.76-.34-2.68-.34-1.55,0-2.91.34-4.11.82-1.61-.54-3.34-.82-5.15-.82-2.97,0-5.75.69-8.25,2-.8-.45-1.63-.86-2.5-1.16-.9-5.17-5.19-8.98-10.5-8.98-2.11,0-3.97.63-5.5,1.24-4.46,1.78-6.32,4.74-7.09,7.1h-2.69c-1.03,0-2.03.13-2.96.38-.93-.25-1.91-.38-2.91-.38h-3.06c-5.99,0-10.68,4.65-10.68,10.59,0,1.38.28,3.22,1.36,5.15.32,1.58.78,3.31,1.41,5.21.95,2.87,1.94,5.14,3.02,6.94l.05.09c.06.1.13.19.2.29-.4-.04-.8-.07-1.21-.07h-2.38c-.97,0-1.91.12-2.8.35-.88-.23-1.8-.35-2.75-.35h-2.85c-1.03,0-2.03.13-2.96.38-.93-.25-1.91-.38-2.91-.38h-3.06c-5.99,0-10.68,4.65-10.68,10.59,0,1.38.28,3.22,1.36,5.15.32,1.58.78,3.31,1.41,5.21.95,2.87,1.94,5.14,3.02,6.94l.05.09c2.61,4.22,5.98,6.36,10.04,6.36,1.54,0,3.05-.33,4.45-.96,1.38.63,2.89.96,4.48.96.9,0,1.8-.11,2.69-.33,1.23-.31,2.37-.82,3.41-1.54,2.39,1.23,5.07,1.87,7.92,1.87s5.39-.64,7.8-1.87c1.24,2.66,3.49,4.83,6.47,6.07,2.21.92,4.76,1.35,8.03,1.35,1.38,0,2.74-.1,4.06-.31,1.45-.23,2.9-.6,4.31-1.12,2.42-.89,4.54-2.37,6.15-4.29.77.1,1.54.17,2.34.17,2.24,0,4.36-.4,6.33-1.15,1.22.45,2.55.71,3.95.71h3.5c.57,0,1.12-.05,1.66-.13.54.08,1.09.13,1.66.13h3.64c1.01,0,2.01-.14,2.96-.41.27.08.55.15.84.21,1.31,2.1,3.3,3.8,5.81,4.85,2.21.92,4.76,1.35,8.03,1.35,1.38,0,2.74-.1,4.06-.31,1.45-.23,2.9-.6,4.31-1.12,2.44-.89,4.58-2.39,6.19-4.34,2.86-.07,5.58-1.17,7.68-3.14,2.33-2.19,3.62-5.17,3.62-8.37,0-.85-.09-1.69-.27-2.5.51-.45.98-.91,1.4-1.4,2.83-3.18,4.33-7.16,4.33-11.5s-1.69-8.48-4.77-11.36c-2.93-2.75-6.74-4.2-11.02-4.2Z"/>
      <g>
        <path d="M46.74,28.84h3.06c.24,0,.4.04.49.13.09.09.13.26.13.51s-.19.48-.56.68-.56.5-.56.91c0,1.02.32,2.54.96,4.57.64,2.03,1.37,3.67,2.19,4.92.92-1.23,1.72-2.76,2.39-4.58s1.01-3.43,1.01-4.82c0-.35-.08-.62-.25-.81-.17-.19-.34-.34-.51-.47-.18-.13-.26-.3-.26-.51,0-.35.28-.53.85-.53h2.85c.35,0,.53.19.53.56,0,.25-.18.5-.54.72-.36.23-.54.56-.54,1.01,0,1.18.35,2.72,1.06,4.63.71,1.91,1.46,3.51,2.26,4.8.74-.98,1.47-2.47,2.17-4.48s1.06-3.58,1.06-4.72c0-.41-.1-.72-.29-.94-.2-.22-.39-.39-.57-.51-.19-.13-.28-.29-.28-.48,0-.39.24-.59.71-.59h2.38c.49,0,.74.17.74.5,0,.2-.13.52-.4.97-.26.45-.46.94-.57,1.47-1.04,4.31-2.27,7.55-3.7,9.73-.04.08-.12.21-.24.38s-.2.3-.25.37c-.05.07-.12.17-.22.29-.1.13-.17.22-.22.26s-.12.11-.21.19c-.09.08-.17.13-.25.15-.08.02-.17.03-.26.03-.39,0-.76-.3-1.12-.91-1.14-1.96-2.18-4.28-3.14-6.96-1.23,3.06-2.33,5.28-3.29,6.67-.22.31-.38.54-.49.68-.11.14-.24.26-.4.37-.16.11-.32.16-.5.16-.35,0-.86-.54-1.53-1.62-.69-1.14-1.38-2.77-2.09-4.91-.71-2.13-1.15-3.94-1.32-5.41-.06-.45-.23-.82-.51-1.12-.28-.29-.43-.53-.43-.71,0-.39.23-.59.68-.59Z"/>
        <path d="M67.83,22.03c0-.31.44-.65,1.32-1,.88-.35,1.48-.53,1.79-.53.45,0,.68.34.68,1.03v9.02c1.33-1.27,2.93-1.91,4.79-1.91,1.49,0,2.75.53,3.79,1.59.8.84,1.2,2.15,1.2,3.91v5.23c0,.67.03,1.13.1,1.4.07.26.21.45.43.54.08.04.2.09.35.15.16.06.27.11.34.15.07.04.13.1.19.18.06.08.09.18.09.29,0,.22-.08.38-.25.5-.17.12-.33.18-.49.18h-3.29l-.41.03c-.41,0-.62-.23-.62-.71,0-.08,0-.15.03-.22.02-.07.06-.13.13-.18s.12-.09.16-.12c.04-.03.11-.07.22-.12.11-.05.18-.08.22-.1.39-.2.59-.85.59-1.97v-5.7c0-1.08-.3-1.91-.9-2.51-.6-.6-1.42-.9-2.45-.9-1.51,0-2.92.63-4.23,1.88v7.46c0,.63.04,1.05.13,1.28.09.23.27.39.54.48.02,0,.08.02.19.06.11.04.18.07.22.09s.1.05.18.09c.08.04.13.08.16.12.03.04.06.09.09.15.03.06.04.13.04.21,0,.2-.07.36-.21.48s-.31.19-.53.19h-3.64c-.63,0-.94-.23-.94-.68,0-.29.26-.52.79-.68.27-.08.47-.25.59-.53.12-.27.18-.78.18-1.53v-15.63c0-.33-.08-.59-.25-.78-.17-.19-.35-.3-.54-.34-.2-.04-.38-.1-.54-.19-.17-.09-.25-.21-.25-.37Z"/>
        <path d="M84.4,36.48c0-2.17.75-4.03,2.26-5.55,1.51-1.53,3.35-2.29,5.52-2.29,1.43,0,2.59.38,3.48,1.13.89.75,1.34,1.62,1.34,2.6,0,1.74-1.18,3.08-3.53,4.02-1.37.55-3.54.96-6.52,1.23h-.03c.21,1.18.78,2.12,1.69,2.82.91.71,1.97,1.06,3.19,1.06.76,0,1.46-.13,2.07-.38.62-.25,1.08-.54,1.4-.85.31-.31.61-.6.9-.85.28-.25.51-.38.69-.38.14,0,.26.05.38.15.12.1.18.23.18.38,0,.65-.63,1.41-1.9,2.29-1.26.88-2.66,1.32-4.19,1.32-1.94,0-3.58-.63-4.92-1.88-1.34-1.25-2.01-2.86-2.01-4.82ZM92.01,30.08c-1.59,0-2.86.57-3.82,1.72-.96,1.15-1.44,2.67-1.44,4.57.72-.06,1.34-.12,1.85-.19.51-.07,1.18-.2,2.01-.4.83-.2,1.51-.43,2.04-.69.53-.26.99-.64,1.4-1.12.4-.48.6-1.03.6-1.66,0-.69-.23-1.23-.69-1.63-.46-.4-1.11-.6-1.95-.6Z"/>
        <path d="M99.04,30.52c0-.29.25-.63.76-1,.76-.59,1.31-.88,1.65-.88.72,0,1.25,1.23,1.59,3.7.35-.82.91-1.65,1.66-2.47s1.51-1.23,2.28-1.23c1.12,0,1.67.6,1.67,1.79,0,.73-.23,1.09-.68,1.09-.16,0-.45-.1-.87-.31-.42-.21-.73-.31-.93-.31-.63,0-1.28.5-1.97,1.51-.69,1.01-1.03,2.11-1.03,3.31v3.64c0,.74.04,1.23.12,1.47.08.23.25.41.53.53.02.02.07.04.15.07.08.03.13.05.16.07s.08.04.15.07c.07.03.11.06.13.09.02.03.05.06.09.1.04.04.06.08.07.12,0,.04.01.09.01.15,0,.47-.29.71-.88.71h-3.35c-.59,0-.88-.23-.88-.71,0-.25.3-.51.91-.76.25-.12.42-.29.49-.53.07-.23.1-.71.1-1.41v-5.96c0-1.04-.42-1.78-1.26-2.23-.02-.02-.08-.05-.19-.1-.11-.05-.18-.08-.21-.1-.03-.02-.07-.05-.13-.09-.06-.04-.1-.09-.12-.15-.02-.06-.03-.12-.03-.18Z"/>
        <path d="M109.67,36.48c0-2.17.75-4.03,2.26-5.55,1.51-1.53,3.35-2.29,5.52-2.29,1.43,0,2.59.38,3.48,1.13.89.75,1.34,1.62,1.34,2.6,0,1.74-1.18,3.08-3.53,4.02-1.37.55-3.54.96-6.52,1.23h-.03c.21,1.18.78,2.12,1.69,2.82.91.71,1.97,1.06,3.19,1.06.76,0,1.46-.13,2.07-.38.62-.25,1.08-.54,1.4-.85.31-.31.61-.6.9-.85.28-.25.51-.38.69-.38.14,0,.26.05.38.15.12.1.18.23.18.38,0,.65-.63,1.41-1.9,2.29-1.26.88-2.66,1.32-4.19,1.32-1.94,0-3.58-.63-4.92-1.88-1.34-1.25-2.01-2.86-2.01-4.82ZM117.28,30.08c-1.59,0-2.86.57-3.82,1.72-.96,1.15-1.44,2.67-1.44,4.57.72-.06,1.34-.12,1.85-.19.51-.07,1.18-.2,2.01-.4.83-.2,1.51-.43,2.04-.69.53-.26.99-.64,1.4-1.12.4-.48.6-1.03.6-1.66,0-.69-.23-1.23-.69-1.63-.46-.4-1.11-.6-1.95-.6Z"/>
        <path d="M21.18,57.05h3.06c.24,0,.4.04.49.13.09.09.13.26.13.51s-.19.48-.56.68-.56.5-.56.91c0,1.02.32,2.54.96,4.57.64,2.03,1.37,3.67,2.19,4.92.92-1.23,1.72-2.76,2.39-4.58s1.01-3.43,1.01-4.82c0-.35-.08-.62-.25-.81-.17-.19-.34-.34-.51-.47-.18-.13-.26-.3-.26-.51,0-.35.28-.53.85-.53h2.85c.35,0,.53.19.53.56,0,.25-.18.5-.54.72-.36.23-.54.56-.54,1.01,0,1.18.35,2.72,1.06,4.63.71,1.91,1.46,3.51,2.26,4.8.74-.98,1.47-2.47,2.17-4.48s1.06-3.58,1.06-4.72c0-.41-.1-.72-.29-.94-.2-.22-.39-.39-.57-.51-.19-.13-.28-.29-.28-.48,0-.39.24-.59.71-.59h2.38c.49,0,.74.17.74.5,0,.2-.13.52-.4.97-.26.45-.46.94-.57,1.47-1.04,4.31-2.27,7.55-3.7,9.73-.04.08-.12.21-.24.38s-.2.3-.25.37c-.05.07-.12.17-.22.29-.1.13-.17.22-.22.26s-.12.11-.21.19c-.09.08-.17.13-.25.15-.08.02-.17.03-.26.03-.39,0-.76-.3-1.12-.91-1.14-1.96-2.18-4.28-3.14-6.96-1.23,3.06-2.33,5.28-3.29,6.67-.22.31-.38.54-.49.68-.11.14-.24.26-.4.37-.16.11-.32.16-.5.16-.35,0-.86-.54-1.53-1.62-.69-1.14-1.38-2.77-2.09-4.91-.71-2.13-1.15-3.94-1.32-5.41-.06-.45-.23-.82-.51-1.12-.28-.29-.43-.53-.43-.71,0-.39.23-.59.68-.59Z"/>
        <path d="M42.39,64.69c0-2.17.75-4.03,2.26-5.55,1.51-1.53,3.35-2.29,5.52-2.29,1.43,0,2.59.38,3.48,1.13.89.75,1.34,1.62,1.34,2.6,0,1.74-1.18,3.08-3.53,4.02-1.37.55-3.54.96-6.52,1.23h-.03c.21,1.18.78,2.12,1.69,2.82.91.71,1.97,1.06,3.19,1.06.76,0,1.46-.13,2.07-.38.62-.25,1.08-.54,1.4-.85.31-.31.61-.6.9-.85.28-.25.51-.38.69-.38.14,0,.26.05.38.15.12.1.18.23.18.38,0,.65-.63,1.41-1.9,2.29-1.26.88-2.66,1.32-4.19,1.32-1.94,0-3.58-.63-4.92-1.88-1.34-1.25-2.01-2.86-2.01-4.82ZM50,58.28c-1.59,0-2.86.57-3.82,1.72-.96,1.15-1.44,2.67-1.44,4.57.72-.06,1.34-.12,1.85-.19.51-.07,1.18-.2,2.01-.4.83-.2,1.51-.43,2.04-.69.53-.26.99-.64,1.4-1.12.4-.48.6-1.03.6-1.66,0-.69-.23-1.23-.69-1.63-.46-.4-1.11-.6-1.95-.6Z"/>
        <path d="M65.75,63.72c0-2.02.62-3.67,1.87-4.95,1.24-1.28,2.86-1.92,4.83-1.92.43,0,.99.03,1.69.1.69.07,1.16.1,1.4.1h2.62c.49,0,.84.06,1.06.18.21.12.32.32.32.62,0,.51-.79.75-2.38.73h-.65c1.41,1.41,2.12,3.08,2.12,5.02,0,2.17-.87,3.95-2.62,5.32.92.33,1.69.81,2.31,1.44.62.63.93,1.38.93,2.26s-.25,1.56-.73,2.16c-.49.6-1.14,1.04-1.94,1.34-.8.29-1.61.5-2.42.63-.81.13-1.65.19-2.51.19-3.72,0-5.58-.77-5.58-2.32,0-.43.17-.89.5-1.37.33-.48.7-.72,1.09-.72.25,0,.38.15.38.44,0,.06-.01.18-.03.35-.02.18-.03.3-.03.38,0,.51.4.9,1.19,1.18s1.77.41,2.92.41c3.19,0,4.79-.87,4.79-2.62,0-.71-.23-1.26-.68-1.66-.45-.4-1.08-.78-1.88-1.13-.78.27-1.54.41-2.26.41-1.92,0-3.45-.61-4.58-1.84-1.14-1.22-1.7-2.81-1.7-4.75ZM72.18,58.22c-1.29,0-2.3.55-3.01,1.65-.71,1.1-1.07,2.36-1.07,3.79,0,1.31.32,2.48.97,3.51s1.61,1.54,2.88,1.54c1.43,0,2.51-.5,3.23-1.5s1.09-2.26,1.09-3.79c0-1.39-.33-2.6-1-3.64-.67-1.04-1.69-1.56-3.08-1.56Z"/>
        <path d="M81.29,64.13c0-1.98.73-3.69,2.19-5.13,1.46-1.44,3.18-2.16,5.16-2.16s3.69.7,5.13,2.09c1.44,1.39,2.16,3.08,2.16,5.08,0,2.1-.71,3.85-2.14,5.26-1.43,1.41-3.19,2.12-5.29,2.12s-3.7-.71-5.1-2.13c-1.4-1.42-2.1-3.13-2.1-5.13ZM88.55,58.28c-1.55,0-2.75.57-3.61,1.7-.86,1.14-1.29,2.56-1.29,4.26,0,1.61.43,2.96,1.28,4.05.85,1.1,2.05,1.65,3.6,1.65,1.35,0,2.53-.54,3.54-1.62,1.01-1.08,1.51-2.53,1.51-4.35,0-1.57-.43-2.91-1.29-4.03s-2.11-1.67-3.73-1.67Z"/>
        <path d="M97.57,58.69c0-.2.07-.36.22-.48.15-.13.42-.28.82-.47.4-.19.67-.32.81-.4.61-.33,1.07-.5,1.38-.5.18,0,.31.03.4.1.09.07.19.38.29.93.11.55.16,1.34.16,2.38v7.46c0,.71.04,1.16.13,1.37.09.21.29.38.6.51.51.2.76.43.76.71,0,.43-.29.65-.88.65h-3.5c-.61,0-.91-.22-.91-.65,0-.06,0-.12.01-.18s.02-.1.04-.13l.06-.09s.05-.05.1-.07c.05-.02.08-.03.1-.04.02,0,.06-.03.13-.06s.11-.04.13-.04c.27-.1.46-.17.54-.21.09-.04.19-.18.29-.41.11-.24.16-.58.16-1.03v-6.82c0-.51-.06-.91-.18-1.2-.12-.29-.25-.48-.38-.56-.14-.08-.31-.15-.53-.21-.53-.12-.79-.3-.79-.56ZM98.51,52.96c0-.47.16-.85.47-1.15s.71-.44,1.18-.44.83.15,1.13.44.46.66.46,1.09c0,.51-.16.92-.49,1.22-.32.3-.73.46-1.22.46-.45,0-.82-.16-1.1-.47-.28-.31-.43-.69-.43-1.15Z"/>
        <path d="M104.59,58.69c0-.29.25-.62.73-.97.1-.08.23-.18.38-.29.16-.12.28-.22.38-.29.1-.08.21-.15.35-.21.14-.06.26-.09.38-.09.63,0,1.04.85,1.23,2.56,1.37-1.7,3.08-2.56,5.11-2.56,1.61,0,2.88.53,3.82,1.59.8.9,1.2,2.2,1.2,3.91v5.23c0,1.16.18,1.8.53,1.94.65.24.97.49.97.76,0,.22-.08.38-.25.5-.17.12-.33.18-.48.18h-3.29l-.41.03c-.41,0-.62-.23-.62-.71,0-.25.21-.48.62-.68.31-.14.51-.32.6-.56.09-.24.13-.72.13-1.47v-5.7c0-1.08-.3-1.91-.9-2.51-.6-.6-1.43-.9-2.51-.9-.43,0-.96.1-1.6.29s-1.18.51-1.63.94c-.63.63-.94,1.49-.94,2.59v5.52c0,.63.04,1.04.12,1.25.08.21.26.38.56.51.06.02.15.05.26.1.12.05.2.08.25.1.05.02.11.05.18.1s.12.1.15.16c.03.06.04.14.04.23,0,.2-.07.36-.21.48s-.31.19-.53.19h-3.64c-.63,0-.94-.23-.94-.68,0-.25.26-.48.79-.68.31-.12.52-.31.62-.57.1-.26.15-.76.15-1.48v-6.35c0-.65-.03-1.09-.1-1.32-.07-.23-.24-.41-.51-.53-.08-.02-.18-.05-.29-.1-.12-.05-.21-.09-.28-.12s-.14-.06-.22-.1c-.08-.04-.13-.09-.16-.15-.03-.06-.04-.12-.04-.18Z"/>
        <path d="M120.98,63.72c0-2.02.62-3.67,1.87-4.95,1.24-1.28,2.86-1.92,4.83-1.92.43,0,.99.03,1.69.1.69.07,1.16.1,1.4.1h2.62c.49,0,.84.06,1.06.18.21.12.32.32.32.62,0,.51-.79.75-2.38.73h-.65c1.41,1.41,2.12,3.08,2.12,5.02,0,2.17-.87,3.95-2.62,5.32.92.33,1.69.81,2.31,1.44.62.63.93,1.38.93,2.26s-.25,1.56-.73,2.16c-.49.6-1.14,1.04-1.94,1.34-.8.29-1.61.5-2.42.63-.81.13-1.65.19-2.51.19-3.72,0-5.58-.77-5.58-2.32,0-.43.17-.89.5-1.37.33-.48.7-.72,1.09-.72.25,0,.38.15.38.44,0,.06-.01.18-.03.35-.02.18-.03.3-.03.38,0,.51.4.9,1.19,1.18s1.77.41,2.92.41c3.19,0,4.79-.87,4.79-2.62,0-.71-.23-1.26-.68-1.66-.45-.4-1.08-.78-1.88-1.13-.78.27-1.54.41-2.26.41-1.92,0-3.45-.61-4.58-1.84-1.14-1.22-1.7-2.81-1.7-4.75ZM127.42,58.22c-1.29,0-2.3.55-3.01,1.65-.71,1.1-1.07,2.36-1.07,3.79,0,1.31.32,2.48.97,3.51s1.61,1.54,2.88,1.54c1.43,0,2.51-.5,3.23-1.5s1.09-2.26,1.09-3.79c0-1.39-.33-2.6-1-3.64-.67-1.04-1.69-1.56-3.08-1.56Z"/>
        <path d="M136.73,52.67c0-1.1.55-2.03,1.65-2.81,1.1-.77,2.44-1.16,4.03-1.16,1.72,0,3.12.5,4.19,1.5s1.6,2.35,1.6,4.05c0,1.9-.61,3.53-1.82,4.88-.76.88-2.13,1.72-4.08,2.53-.16.04-.29.11-.4.22-.11.11-.18.27-.22.48-.04.22-.07.4-.09.54-.02.15-.04.37-.04.68-.01.3-.02.51-.02.63-.04.86-.26,1.29-.68,1.29s-.62-.32-.62-.97l.03-3.32c0-.14.01-.26.04-.37.03-.11.05-.2.06-.26,0-.07.06-.13.16-.19.1-.06.17-.1.21-.13s.15-.08.32-.15c.18-.07.29-.12.35-.16l.32-.15c.24-.1.37-.16.4-.18.03-.02.14-.08.34-.18.2-.1.33-.17.4-.22s.19-.13.35-.24c.17-.11.3-.21.41-.31.11-.1.24-.22.4-.37.16-.15.31-.3.47-.46.41-.41.74-.96,1-1.65.25-.69.38-1.37.38-2.06,0-1.23-.34-2.25-1.01-3.06s-1.63-1.2-2.86-1.2c-.65,0-1.3.16-1.95.47-.66.31-.98.83-.98,1.56,0,.14,0,.31.03.53.02.22.03.35.03.41,0,.31-.11.57-.32.76s-.5.29-.85.29c-.8,0-1.21-.42-1.21-1.26ZM139.58,69.56c0-.43.16-.79.47-1.09.31-.29.69-.44,1.12-.44s.82.16,1.12.47.44.7.44,1.15-.16.79-.47,1.09c-.31.29-.69.44-1.12.44s-.82-.16-1.12-.47c-.29-.31-.44-.7-.44-1.15Z"/>
      </g>
    </g>
  </g>
</svg>