<?xml version="1.0" encoding="UTF-8"?>
<svg id="Layer_2" data-name="Layer 2" xmlns="http://www.w3.org/2000/svg" viewBox="0 0 58.38 90.6">
  <defs>
    <style>
      .cls-1 {
        fill: #f4da42;
        stroke: #1a1a1a;
        stroke-miterlimit: 10;
      }
    </style>
  </defs>
  <g id="Layer_1-2" data-name="Layer 1">
    <g>
      <path class="cls-1" d="M29.97,1.36c-3.1,11.03-13.06,21.34-23.98,24.82-1.12.36-1.09,1.91.04,2.23,11.03,3.1,21.34,13.06,24.82,23.98.36,1.12,1.91,1.09,2.23-.04,3.1-11.03,13.06-21.34,23.98-24.82,1.12-.36,1.09-1.91-.04-2.23-11.03-3.1-21.34-13.06-24.82-23.98-.36-1.12-1.91-1.09-2.23.04Z"/>
      <path class="cls-1" d="M14,62.45c-.93,6.38-7.03,12.69-13.37,13.84-.17.03-.17.28,0,.3,6.38.93,12.69,7.03,13.84,13.37.03.17.28.17.3,0,.93-6.38,7.03-12.69,13.37-13.84.17-.03.17-.28,0-.3-6.38-.93-12.69-7.03-13.84-13.37-.03-.17-.28-.17-.3,0Z"/>
    </g>
  </g>
</svg>