<?xml version="1.0" encoding="UTF-8"?>
<svg id="Layer_2" data-name="Layer 2" xmlns="http://www.w3.org/2000/svg" viewBox="0 0 110.52 122.96">
  <defs>
    <style>
      .cls-1 {
        fill: #ad6dbd;
      }

      .cls-1, .cls-2 {
        stroke: #000;
        stroke-linecap: round;
        stroke-linejoin: round;
      }

      .cls-2 {
        fill: #fffff3;
      }
    </style>
  </defs>
  <g id="Layer_1-2" data-name="Layer 1">
    <g>
      <path class="cls-1" d="M49.82,122.46c-4.63,0-8.4-.67-11.86-2.11-2.31-.96-4.41-2.26-6.24-3.85h-.55c-1.05,0-2.09-.08-3.12-.23-.96.13-1.93.2-2.91.2h-3.64c-11.74,0-20.94-9.08-20.94-20.68,0-1.94.28-3.85.81-5.7-.57-1.91-.87-3.89-.87-5.88,0-6.6,3.13-12.74,8.6-16.87.16-.12.56-.43.57-.44.17-.57.37-1.13.6-1.68-.14-.62-.26-1.21-.36-1.73,0-.03-.01-.06-.02-.09-1.23-2.67-1.87-5.57-1.87-8.5,0-1.58.18-3.14.53-4.65-3.64-4.63-5.61-10.34-5.61-16.44,0-7.4,2.85-14.36,8.03-19.6,5.25-5.31,12.26-8.24,19.76-8.24,1.63,0,3.24.15,4.82.44,1.39-.29,2.8-.44,4.23-.44.5,0,1.26.03,2.22.14,3.99-3.62,9.16-5.6,14.59-5.6s10.6,2,14.59,5.65c.71.08,1.43.19,2.13.33,1.18-.2,2.38-.31,3.58-.31h3.26c1.1,0,2.2.08,3.28.25,1.08-.17,2.17-.25,3.27-.25h2.76c11.53,0,20.56,8.97,20.56,20.41,0,2.31-.4,4.62-1.18,6.88-.61,3.48-1.49,6.78-2.62,9.82-.87,2.35-1.83,4.47-2.9,6.41.58,2.01.88,4.11.88,6.28,0,1.64-.18,3.25-.54,4.81,3.76,3.96,6,9.4,6,15.43,0,.95-.05,1.94-.21,3.78l-.65,8.94c.61,2.02.92,4.11.92,6.26,0,5.98-2.41,11.53-6.79,15.65-4.04,3.79-9.29,5.88-14.8,5.88-1.24,0-2.49-.11-3.71-.32-.61.06-1.21.09-1.81.09h-3.97c-.84,0-1.68-.05-2.53-.16-.84.1-1.68.16-2.52.16h-2.58l-.41.03h-.71c-.41,0-.83-.01-1.24-.04-2.08,1.68-4.46,3.02-7.02,3.96-2.02.74-4.1,1.28-6.19,1.61-1.85.29-3.74.43-5.62.43Z"/>
      <path class="cls-2" d="M15.79,74.82s-.5.38-.62.48c-4.05,3.04-4.67,6.88-4.67,8.92,0,1.6.38,3.21,1.1,4.65.16.31.33.62.52.91v.54c-1.1,1.79-1.56,3.75-1.56,5.48,0,5.99,4.81,10.68,10.94,10.68h3.64c1.01,0,2.01-.14,2.96-.41.97.28,2,.44,3.06.44h.36l.41-.03h2.93c.4,0,.8-.03,1.2-.08,1.31,2.04,3.27,3.7,5.73,4.72,2.21.92,4.76,1.35,8.03,1.35,1.37,0,2.74-.1,4.07-.31,1.45-.23,2.9-.6,4.31-1.12,2.46-.9,4.62-2.42,6.24-4.39.06-.07.11-.15.16-.22.76-.05,1.51-.15,2.23-.36.97.28,1.99.44,3.06.44h.35l.41-.03h2.94c.85,0,1.69-.1,2.5-.3.82.19,1.68.3,2.55.3h3.97c.74,0,1.48-.1,2.2-.25,1.06.31,2.17.48,3.32.48,2.95,0,5.78-1.12,7.95-3.17,2.34-2.2,3.64-5.17,3.64-8.36,0-1.69-.36-3.33-1.04-4.82.01-.18.02-.34.03-.49l.77-10.66c.15-1.77.18-2.47.18-3.01,0-6.03-3.83-10.74-9.22-11.76,2.3-2.02,3.75-5.04,3.75-8.48,0-2.75-.85-5.22-2.3-7.18.23-.28.46-.55.69-.85,1.65-2.18,3.04-4.83,4.25-8.12,1.01-2.73,1.78-5.73,2.29-8.95.45-1.09.89-2.54.89-4.27,0-5.84-4.64-10.41-10.56-10.41h-2.76c-1.15,0-2.24.17-3.27.49-1.03-.32-2.13-.49-3.28-.49h-3.26c-1.27,0-2.48.22-3.6.61-1.67-.53-3.44-.81-5.27-.81-.52,0-1.02.03-1.53.07-.5-.82-1.1-1.59-1.81-2.28-2.17-2.1-5.04-3.26-8.08-3.26s-5.85,1.12-8.02,3.15c-.75.7-1.38,1.5-1.91,2.35-.18,0-.36-.03-.54-.03-1.24,0-2.45.13-3.62.4-1.35-.37-2.41-.4-2.72-.4-1.38,0-2.74.27-4.02.78-1.57-.51-3.26-.78-5.03-.78-4.87,0-9.24,1.82-12.64,5.27-3.37,3.41-5.15,7.76-5.15,12.58s1.84,9,5.18,12.12c.8.75,1.65,1.4,2.55,1.97-1.65,1.85-2.65,4.28-2.65,7,0,1.88.52,3.69,1.47,5.3.08.51.16,1,.24,1.44.09.5.21,1.07.36,1.69.15.65.32,1.25.49,1.83.12.42.26.83.42,1.25-1.46,1.92-2.25,4.25-2.25,6.68,0,.02,0,.03,0,.05-.11.04-.22.07-.32.12-.97.41-1.88.95-2.65,1.57Z"/>
      <g>
        <path d="M22.94,33.81c0-2.17.75-4.03,2.26-5.55,1.51-1.53,3.35-2.29,5.52-2.29,1.43,0,2.59.38,3.48,1.13.89.75,1.34,1.62,1.34,2.6,0,1.74-1.18,3.08-3.53,4.02-1.37.55-3.54.96-6.52,1.23h-.03c.21,1.18.78,2.12,1.69,2.82.91.71,1.97,1.06,3.19,1.06.76,0,1.46-.13,2.07-.38.62-.25,1.08-.54,1.4-.85s.61-.6.9-.85c.28-.25.51-.38.69-.38.14,0,.26.05.38.15.12.1.18.23.18.38,0,.65-.63,1.41-1.9,2.29-1.26.88-2.66,1.32-4.19,1.32-1.94,0-3.58-.63-4.92-1.88-1.34-1.25-2.01-2.86-2.01-4.82ZM30.55,27.41c-1.59,0-2.86.57-3.82,1.72-.96,1.15-1.44,2.67-1.44,4.57.72-.06,1.34-.12,1.85-.19.51-.07,1.18-.2,2.01-.4.83-.2,1.51-.43,2.04-.69.53-.26.99-.64,1.4-1.12.4-.48.6-1.03.6-1.66,0-.68-.23-1.23-.69-1.63-.46-.4-1.11-.6-1.95-.6Z"/>
        <path d="M37.54,27.82c0-.29.25-.62.73-.97.1-.08.23-.18.38-.29.16-.12.28-.21.38-.29.1-.08.21-.15.35-.21.14-.06.26-.09.38-.09.63,0,1.04.85,1.23,2.56,1.37-1.7,3.08-2.56,5.11-2.56,1.61,0,2.88.53,3.82,1.59.8.9,1.2,2.2,1.2,3.91v5.23c0,1.16.18,1.8.53,1.94.65.24.97.49.97.76,0,.22-.08.38-.25.5-.17.12-.33.18-.48.18h-3.29l-.41.03c-.41,0-.62-.23-.62-.71,0-.25.21-.48.62-.68.31-.14.51-.32.6-.56.09-.24.13-.72.13-1.47v-5.7c0-1.08-.3-1.91-.9-2.51s-1.43-.9-2.51-.9c-.43,0-.96.1-1.6.29-.64.2-1.18.51-1.63.94-.63.63-.94,1.49-.94,2.59v5.52c0,.63.04,1.04.12,1.25.08.21.26.38.56.51.06.02.15.05.26.1.12.05.2.08.25.1s.11.05.18.1.12.1.15.16c.03.06.04.14.04.23,0,.2-.07.36-.21.49-.14.13-.31.19-.53.19h-3.64c-.63,0-.94-.22-.94-.68,0-.25.26-.48.79-.68.31-.12.52-.31.62-.57.1-.26.15-.76.15-1.48v-6.35c0-.65-.03-1.09-.1-1.32-.07-.23-.24-.41-.51-.53-.08-.02-.18-.05-.29-.1-.12-.05-.21-.09-.28-.12s-.14-.06-.22-.1c-.08-.04-.13-.09-.16-.15-.03-.06-.04-.12-.04-.18Z"/>
        <path d="M54.05,27.82c0-.12.03-.22.1-.32.07-.1.17-.2.31-.29.14-.1.27-.18.4-.24.13-.06.3-.14.53-.25s.4-.19.51-.25c.67-.33,1.13-.5,1.38-.5.18,0,.31.03.4.1s.19.38.29.93c.11.55.16,1.34.16,2.38v8.23c0,2.25-.26,4.04-.79,5.35-.49,1.16-1.08,1.97-1.78,2.44-.7.47-1.29.71-1.78.71-.33,0-.64-.1-.92-.31-.28-.21-.43-.47-.43-.78,0-.35.12-.64.35-.85.23-.22.53-.32.88-.32.18,0,.39.04.65.12.25.08.43.12.53.12.41,0,.69-.2.85-.6.16-.4.24-1.01.24-1.84v-11.28c0-.72-.09-1.21-.26-1.47-.18-.25-.45-.42-.82-.5-.53-.12-.79-.3-.79-.56ZM54.94,22.09c0-.47.16-.85.47-1.15s.71-.44,1.18-.44.83.15,1.13.44.46.66.46,1.09c0,.51-.16.92-.47,1.22-.31.3-.72.46-1.23.46-.47,0-.84-.16-1.12-.47-.27-.31-.41-.69-.41-1.15Z"/>
        <path d="M60.67,33.25c0-1.98.73-3.69,2.19-5.13s3.18-2.16,5.16-2.16,3.69.7,5.13,2.09c1.44,1.39,2.16,3.08,2.16,5.08,0,2.1-.71,3.85-2.14,5.26-1.43,1.41-3.19,2.12-5.29,2.12s-3.7-.71-5.1-2.13c-1.4-1.42-2.1-3.13-2.1-5.13ZM67.92,27.41c-1.55,0-2.75.57-3.61,1.7-.86,1.14-1.29,2.56-1.29,4.26,0,1.61.43,2.96,1.28,4.05.85,1.1,2.05,1.65,3.6,1.65,1.35,0,2.53-.54,3.54-1.62,1.01-1.08,1.51-2.53,1.51-4.35,0-1.57-.43-2.91-1.29-4.03-.86-1.12-2.11-1.67-3.73-1.67Z"/>
        <path d="M76.88,26.17h3.26c.41,0,.62.16.62.47,0,.18-.06.32-.18.44-.12.12-.25.21-.4.28-.15.07-.28.21-.4.43-.12.22-.18.5-.18.85,0,.67.09,1.49.26,2.47.18.98.43,1.99.75,3.03s.78,1.92,1.37,2.64,1.23,1.09,1.94,1.09c.67,0,1.18-.28,1.56-.84.37-.56.72-1.4,1.06-2.51.67-2.23,1-4.17,1-5.82,0-.39-.07-.69-.22-.9-.15-.21-.31-.33-.49-.37-.18-.04-.34-.12-.48-.25-.15-.13-.22-.32-.22-.57,0-.29.19-.44.56-.44h2.76c.37,0,.56.14.56.41,0,.14-.09.4-.28.79-.19.39-.31.77-.37,1.15-.41,2.88-1.05,5.48-1.91,7.82s-1.81,4.18-2.85,5.55c-1.04,1.37-2.08,2.41-3.11,3.13-1.04.71-2.02,1.07-2.94,1.07-.45,0-.83-.1-1.15-.31-.31-.21-.47-.5-.47-.9,0-.28.1-.52.31-.74s.45-.32.72-.32c.16,0,.42.04.78.12.36.08.63.12.81.12.88,0,1.84-.56,2.88-1.69,1.04-1.13,1.7-2.18,2-3.16-.49.22-.94.32-1.35.32-.61,0-1.17-.17-1.67-.51-.51-.34-.9-.71-1.17-1.09s-.59-.9-.94-1.54c-.18-.33-.35-.71-.51-1.12-.17-.41-.31-.81-.43-1.2-.12-.39-.23-.81-.34-1.26s-.2-.86-.26-1.22c-.07-.36-.13-.74-.19-1.15s-.1-.72-.13-.96-.06-.48-.09-.75-.04-.41-.04-.43c-.06-.41-.25-.74-.59-.98s-.5-.46-.5-.63c0-.35.22-.53.68-.53Z"/>
        <path d="M28.7,54.37h3.26c.41,0,.62.16.62.47,0,.18-.06.32-.18.44-.12.12-.25.21-.4.28-.15.07-.28.21-.4.43-.12.22-.18.5-.18.85,0,.67.09,1.49.26,2.47.18.98.43,1.99.75,3.03s.78,1.92,1.37,2.64,1.23,1.09,1.94,1.09c.67,0,1.18-.28,1.56-.84.37-.56.72-1.4,1.06-2.51.67-2.23,1-4.17,1-5.82,0-.39-.07-.69-.22-.9-.15-.21-.31-.33-.49-.37-.18-.04-.34-.12-.48-.25-.15-.13-.22-.32-.22-.57,0-.29.19-.44.56-.44h2.76c.37,0,.56.14.56.41,0,.14-.09.4-.28.79-.19.39-.31.77-.37,1.15-.41,2.88-1.05,5.48-1.91,7.82s-1.81,4.18-2.85,5.55c-1.04,1.37-2.08,2.41-3.11,3.13-1.04.71-2.02,1.07-2.94,1.07-.45,0-.83-.1-1.15-.31-.31-.21-.47-.5-.47-.9,0-.28.1-.52.31-.74s.45-.32.72-.32c.16,0,.42.04.78.12.36.08.63.12.81.12.88,0,1.84-.56,2.88-1.69,1.04-1.13,1.7-2.18,2-3.16-.49.22-.94.32-1.35.32-.61,0-1.17-.17-1.67-.51-.51-.34-.9-.71-1.17-1.09s-.59-.9-.94-1.54c-.18-.33-.35-.71-.51-1.12-.17-.41-.31-.81-.43-1.2-.12-.39-.23-.81-.34-1.26s-.2-.86-.26-1.22c-.07-.36-.13-.74-.19-1.15s-.1-.72-.13-.96-.06-.48-.09-.75-.04-.41-.04-.43c-.06-.41-.25-.74-.59-.98s-.5-.46-.5-.63c0-.35.22-.53.68-.53Z"/>
        <path d="M43.04,61.45c0-1.98.73-3.69,2.19-5.13s3.18-2.16,5.16-2.16,3.69.7,5.13,2.09c1.44,1.39,2.16,3.08,2.16,5.08,0,2.1-.71,3.85-2.14,5.26-1.43,1.41-3.19,2.12-5.29,2.12s-3.7-.71-5.1-2.13c-1.4-1.42-2.1-3.13-2.1-5.13ZM50.29,55.61c-1.55,0-2.75.57-3.61,1.7-.86,1.14-1.29,2.56-1.29,4.26,0,1.61.43,2.96,1.28,4.05.85,1.1,2.05,1.65,3.6,1.65,1.35,0,2.53-.54,3.54-1.62,1.01-1.08,1.51-2.53,1.51-4.35,0-1.57-.43-2.91-1.29-4.03-.86-1.12-2.11-1.67-3.73-1.67Z"/>
        <path d="M59.08,55.28c0-.24.27-.46.82-.68.74-.29,1.38-.44,1.91-.44.35,0,.58.2.68.59.1.39.15,1.22.15,2.5v5.88c0,2.64.95,3.97,2.85,3.97.45,0,1.06-.12,1.82-.37s1.37-.64,1.82-1.19c.18-.21.3-.38.37-.48s.13-.3.19-.59.09-.65.09-1.1v-5.58c0-.59-.04-1-.12-1.25-.08-.25-.24-.46-.47-.63-.04-.04-.08-.07-.13-.1s-.09-.05-.13-.07c-.04-.02-.08-.04-.12-.06s-.07-.04-.1-.06-.05-.04-.07-.07c-.02-.03-.04-.07-.04-.12-.01-.05-.01-.09-.01-.13,0-.06,0-.11.01-.15,0-.04.02-.07.03-.1,0-.03.03-.06.07-.1l.07-.07s.04-.03.1-.06c.06-.03.1-.05.12-.06.02,0,.06-.03.13-.07s.11-.06.13-.06c.65-.29,1.28-.44,1.91-.44.35,0,.58.2.68.59.1.39.15,1.22.15,2.5v7.64c0,.69.04,1.16.12,1.42.08.26.25.45.5.54.02.02.08.04.18.07.1.03.17.05.21.07l.18.09c.08.04.14.07.18.1.04.03.08.07.12.12.04.05.07.1.09.15s.03.1.03.16c0,.43-.23.65-.68.65h-2.2c-.12,0-.22-.02-.31-.06-.09-.04-.16-.1-.22-.18s-.1-.16-.13-.24-.05-.19-.06-.32c-.01-.14-.02-.25-.03-.35-.01-.1-.01-.24-.01-.43v-.43c-1.53,1.63-3.19,2.44-5,2.44-1.45,0-2.56-.49-3.33-1.47-.77-.98-1.16-2.31-1.16-4v-5.46c0-1.08-.2-1.7-.59-1.88-.51-.25-.76-.46-.76-.62Z"/>
        <path d="M74.59,56.05c0-.29.25-.63.76-1,.76-.59,1.31-.88,1.65-.88.72,0,1.25,1.23,1.59,3.7.35-.82.91-1.64,1.66-2.47.75-.82,1.51-1.23,2.28-1.23,1.12,0,1.67.6,1.67,1.79,0,.72-.23,1.09-.68,1.09-.16,0-.45-.1-.87-.31-.42-.21-.73-.31-.93-.31-.63,0-1.28.5-1.97,1.51s-1.03,2.11-1.03,3.3v3.64c0,.75.04,1.23.12,1.47.08.23.25.41.53.53.02.02.07.04.15.07.08.03.13.05.16.07s.08.04.15.07c.07.03.11.06.13.09s.05.06.09.1c.04.04.06.08.07.12,0,.04.01.09.01.15,0,.47-.29.71-.88.71h-3.35c-.59,0-.88-.23-.88-.71,0-.25.3-.51.91-.76.25-.12.42-.29.49-.53.07-.23.1-.71.1-1.41v-5.96c0-1.04-.42-1.78-1.26-2.23-.02-.02-.08-.05-.19-.1-.11-.05-.18-.08-.21-.1-.03-.02-.07-.05-.13-.09-.06-.04-.1-.09-.12-.15-.02-.06-.03-.12-.03-.18Z"/>
        <path d="M20.5,84.22c0-.29.25-.62.73-.97.1-.08.23-.18.38-.29.16-.12.28-.22.38-.29.1-.08.21-.15.35-.21.14-.06.26-.09.38-.09.63,0,1.04.85,1.23,2.56,1.37-1.7,3.08-2.56,5.11-2.56,1.61,0,2.88.53,3.82,1.59.8.9,1.2,2.2,1.2,3.91v5.23c0,1.16.18,1.8.53,1.94.65.24.97.49.97.76,0,.22-.08.38-.25.5-.17.12-.33.18-.48.18h-3.29l-.41.03c-.41,0-.62-.24-.62-.71,0-.25.21-.48.62-.68.31-.14.51-.32.6-.56.09-.24.13-.72.13-1.47v-5.7c0-1.08-.3-1.91-.9-2.51-.6-.6-1.43-.9-2.51-.9-.43,0-.96.1-1.6.29-.64.2-1.18.51-1.63.94-.63.63-.94,1.49-.94,2.59v5.52c0,.63.04,1.04.12,1.25.08.21.26.38.56.51.06.02.15.05.26.1.12.05.2.08.25.1.05.02.11.05.18.1s.12.1.15.16.04.14.04.24c0,.2-.07.36-.21.48-.14.13-.31.19-.53.19h-3.64c-.63,0-.94-.23-.94-.68,0-.25.26-.48.79-.68.31-.12.52-.31.62-.57.1-.26.15-.76.15-1.48v-6.35c0-.65-.03-1.09-.1-1.32-.07-.24-.24-.41-.51-.53-.08-.02-.18-.05-.29-.1-.12-.05-.21-.09-.28-.12s-.14-.06-.22-.1c-.08-.04-.13-.09-.16-.15s-.04-.12-.04-.18Z"/>
        <path d="M36.98,84.22c0-.2.07-.36.22-.49.15-.13.42-.28.82-.47s.67-.32.81-.4c.61-.33,1.07-.5,1.38-.5.18,0,.31.03.4.1.09.07.19.38.29.93.11.55.16,1.34.16,2.38v7.46c0,.71.04,1.16.13,1.37.09.21.29.38.6.51.51.2.76.43.76.71,0,.43-.29.65-.88.65h-3.5c-.61,0-.91-.22-.91-.65,0-.06,0-.12.01-.18s.02-.1.04-.13l.06-.09s.05-.05.1-.07c.05-.02.08-.03.1-.04.02,0,.06-.03.13-.06s.11-.04.13-.04c.27-.1.46-.17.54-.21.09-.04.19-.18.29-.41s.16-.58.16-1.03v-6.82c0-.51-.06-.91-.18-1.21-.12-.29-.25-.48-.38-.56s-.31-.15-.53-.21c-.53-.12-.79-.3-.79-.56ZM37.92,78.49c0-.47.16-.85.47-1.15s.71-.44,1.18-.44.83.15,1.13.44.46.66.46,1.09c0,.51-.16.92-.49,1.22s-.73.46-1.22.46c-.45,0-.82-.16-1.1-.47s-.43-.7-.43-1.15Z"/>
        <path d="M43.95,89.24c0-2.02.62-3.67,1.87-4.95s2.86-1.92,4.83-1.92c.43,0,.99.03,1.69.1.69.07,1.16.1,1.4.1h2.62c.49,0,.84.06,1.06.18.21.12.32.32.32.62,0,.51-.79.75-2.38.73h-.65c1.41,1.41,2.12,3.08,2.12,5.02,0,2.17-.87,3.95-2.62,5.32.92.33,1.69.81,2.31,1.44s.93,1.38.93,2.26-.25,1.56-.73,2.16c-.49.6-1.14,1.04-1.94,1.34-.8.29-1.61.5-2.42.63-.81.13-1.65.19-2.51.19-3.72,0-5.58-.77-5.58-2.32,0-.43.17-.89.5-1.37.33-.48.7-.72,1.09-.72.25,0,.38.15.38.44,0,.06-.01.18-.03.35-.02.18-.03.3-.03.38,0,.51.4.9,1.19,1.17s1.77.41,2.92.41c3.19,0,4.79-.87,4.79-2.62,0-.71-.23-1.26-.68-1.66-.45-.4-1.08-.78-1.88-1.13-.78.27-1.54.41-2.26.41-1.92,0-3.45-.61-4.58-1.84-1.14-1.22-1.7-2.81-1.7-4.75ZM50.38,83.75c-1.29,0-2.3.55-3.01,1.65-.71,1.1-1.07,2.36-1.07,3.79,0,1.31.32,2.48.97,3.51s1.61,1.54,2.88,1.54c1.43,0,2.51-.5,3.23-1.5s1.09-2.26,1.09-3.79c0-1.39-.33-2.61-1-3.64s-1.69-1.56-3.08-1.56Z"/>
        <path d="M59.25,75.76c0-.31.44-.65,1.32-1,.88-.35,1.48-.53,1.79-.53.45,0,.68.34.68,1.03v9.02c1.33-1.27,2.93-1.91,4.79-1.91,1.49,0,2.75.53,3.79,1.59.8.84,1.2,2.14,1.2,3.91v5.23c0,.67.03,1.13.1,1.4s.21.45.43.54c.08.04.2.09.35.15.16.06.27.11.34.15.07.04.13.1.19.18s.09.18.09.29c0,.22-.08.38-.25.5-.17.12-.33.18-.49.18h-3.29l-.41.03c-.41,0-.62-.24-.62-.71,0-.08,0-.15.03-.22.02-.07.06-.13.13-.18s.12-.09.16-.12c.04-.03.11-.07.22-.12s.18-.08.22-.1c.39-.2.59-.85.59-1.97v-5.7c0-1.08-.3-1.91-.9-2.51-.6-.6-1.42-.9-2.45-.9-1.51,0-2.92.63-4.23,1.88v7.46c0,.63.04,1.05.13,1.28.09.23.27.39.54.49.02,0,.08.02.19.06.11.04.18.07.22.09s.1.05.18.09c.08.04.13.08.16.12.03.04.06.09.09.15s.04.13.04.21c0,.2-.07.36-.21.48-.14.13-.31.19-.53.19h-3.64c-.63,0-.94-.23-.94-.68,0-.29.26-.52.79-.68.27-.08.47-.25.59-.53.12-.27.18-.78.18-1.53v-15.63c0-.33-.08-.59-.25-.78-.17-.19-.35-.3-.54-.34-.2-.04-.38-.1-.54-.19-.17-.09-.25-.21-.25-.37Z"/>
        <path d="M75.24,83.13c0-.37.32-.56.97-.56.49-.02.82-.07,1-.16.18-.09.33-.29.47-.6.27-.61.49-1.6.65-2.97.06-.39.11-.69.15-.88.04-.2.12-.38.24-.56.12-.18.27-.26.47-.26.41,0,.62.32.62.97v4.47h2.5c.76,0,1.15.22,1.15.68,0,.49-.35.73-1.06.73h-2.59v8.99c0,.47.04.85.12,1.13s.21.49.4.62c.19.13.37.21.54.25.18.04.43.06.76.06h.54c.19,0,.36,0,.51.02.16,0,.3.03.43.07.13.04.22.11.29.22.07.11.1.24.1.4,0,.25-.1.44-.31.56-.21.12-.4.18-.57.18h-3.97c-.41,0-.69-.12-.84-.35-.15-.24-.22-.57-.22-1v-11.14c-.43,0-.75,0-.96-.01-.21,0-.44-.04-.71-.09-.26-.05-.45-.14-.54-.26-.1-.13-.15-.29-.15-.49Z"/>
        <path d="M86.58,95.09c0-.43.15-.79.46-1.09.3-.29.67-.44,1.1-.44s.83.16,1.13.47.46.7.46,1.15c0,.41-.16.77-.48,1.07s-.69.46-1.1.46c-.45,0-.82-.16-1.12-.47-.29-.31-.44-.7-.44-1.15ZM86.7,76.23c0-1.33.52-2,1.56-2,.94,0,1.41.66,1.41,1.97,0,.31-.05,1.06-.15,2.23l-.79,10.93c0,.08,0,.19-.01.34,0,.15-.02.26-.03.35s-.02.19-.03.31c0,.12-.03.21-.06.28-.03.07-.06.14-.1.22-.04.08-.09.13-.16.16s-.14.04-.22.04c-.12,0-.22-.03-.29-.1-.08-.07-.13-.18-.16-.32-.03-.15-.05-.27-.07-.38-.02-.11-.03-.24-.03-.4v-.29l-.85-13.34Z"/>
      </g>
    </g>
  </g>
</svg>