<?xml version="1.0" encoding="UTF-8"?>
<svg id="Layer_2" data-name="Layer 2" xmlns="http://www.w3.org/2000/svg" viewBox="0 0 314.32 314.32">
  <defs>
    <style>
      .cls-1 {
        fill: #f7a540;
      }

      .cls-2 {
        fill: #e86ba5;
      }

      .cls-3 {
        fill: none;
        stroke: #000;
        stroke-miterlimit: 10;
      }

      .cls-4 {
        fill: #6dc9d1;
      }

      .cls-5 {
        fill: #ad6dbd;
      }
    </style>
  </defs>
  <g id="Layer_1-2" data-name="Layer 1">
    <g>
      <g>
        <g>
          <path class="cls-2" d="M157.79,177.01c-.21,0-.42.03-.63.03s-.42-.03-.63-.03l-4.87,133.98-.1,2.82h11.19l-.14-3.88-4.83-132.92Z"/>
          <path class="cls-2" d="M152.17,176.39c-.41-.11-.81-.21-1.21-.34l-42.35,126.99-.95,2.86,10.73,3.15.81-3.17,33.12-129.45c-.05-.01-.1-.03-.16-.04Z"/>
          <path class="cls-2" d="M146.95,174.2c-.36-.22-.72-.43-1.06-.67l-76.33,109.79-1.8,2.6,9.41,6.05,1.72-2.9,68.2-114.79s-.09-.06-.14-.08Z"/>
          <path class="cls-2" d="M142.57,170.63c-.28-.31-.57-.61-.84-.94l-103.95,83.66-2.68,2.16,7.33,8.45,3.14-2.92,97.1-90.3s-.07-.08-.11-.12Z"/>
          <path class="cls-2" d="M139.36,165.98c-.19-.38-.38-.75-.54-1.14L15.99,215.63l-3.65,1.52,4.65,10.18,3.27-1.64,119.17-59.56s-.05-.1-.07-.15Z"/>
          <path class="cls-2" d="M137.59,160.61c-.07-.41-.14-.82-.19-1.24L5.29,173.49l-3.99.43,1.59,11.07,2.79-.5,131.94-23.72c0-.05-.02-.11-.02-.16Z"/>
          <path class="cls-2" d="M137.38,155.11c0-.05.02-.11.02-.16.05-.42.12-.83.19-1.24L6.38,129.95l-3.49-.63-1.59,11.07,2.94.32,133.14,14.4Z"/>
          <path class="cls-2" d="M138.76,149.63s.03-.1.06-.15c.16-.39.35-.76.54-1.13L20.23,88.62l-3.25-1.63-4.65,10.18,2.78,1.15,123.65,51.3Z"/>
          <path class="cls-2" d="M141.63,144.75s.06-.09.1-.13c.26-.33.55-.63.84-.94L44.91,52.65l-2.48-2.31-7.33,8.45,2.78,2.24,103.75,83.71Z"/>
          <path class="cls-2" d="M145.76,140.88s.09-.07.13-.1c.34-.24.7-.45,1.06-.67L78.72,24.96l-1.55-2.62-9.41,6.05,1.87,2.7,76.13,109.79Z"/>
          <path class="cls-2" d="M150.81,138.33c.05-.02.1-.04.15-.06.4-.13.8-.24,1.21-.34L119.19,8.39l-.8-3.12-10.73,3.15,1.02,3.08,42.13,126.83Z"/>
          <path class="cls-2" d="M156.37,137.31c.05,0,.11,0,.16,0,.21,0,.42-.03.63-.03s.42.03.63.03L162.63,3.92l.12-3.42h-11.19l.11,3.12,4.69,133.69Z"/>
          <path class="cls-2" d="M162.15,137.93c.41.11.81.21,1.21.34L205.63,11.51l1.03-3.09-10.73-3.15-.83,3.25-33.1,129.37c.05.01.1.03.16.04Z"/>
          <path class="cls-2" d="M167.36,140.12c.36.22.72.43,1.06.67L244.85,30.87l1.71-2.47-9.41-6.05-1.64,2.75-68.29,114.93s.09.06.14.08Z"/>
          <path class="cls-2" d="M171.75,143.68c.28.31.57.61.84.94l103.98-83.69,2.65-2.14-7.33-8.45-2.41,2.24-97.84,90.98s.07.08.11.12Z"/>
          <path class="cls-2" d="M174.96,148.34c.19.37.38.75.54,1.13l123.49-51.06,3-1.24-4.65-10.18-2.67,1.34-119.77,59.86s.05.1.07.15Z"/>
          <path class="cls-2" d="M176.73,153.71c.07.41.14.82.19,1.24l132.67-14.18,3.44-.37-1.59-11.07-3.21.58-131.52,23.65c0,.05.02.11.02.16Z"/>
          <path class="cls-2" d="M309.99,173.59l-133.05-14.39c0,.05-.02.11-.02.16-.05.42-.12.83-.19,1.24l131.31,23.77,3.39.61,1.59-11.07-3.03-.33Z"/>
          <path class="cls-2" d="M175.56,164.69s-.03.1-.06.15c-.16.39-.35.76-.54,1.13l119.64,59.98,2.73,1.37,4.65-10.18-3.09-1.28-123.33-51.17Z"/>
          <path class="cls-2" d="M172.68,169.57s-.06.09-.1.13c-.26.33-.55.63-.83.94l97.71,91.08,2.43,2.26,7.33-8.45-2.38-1.92-104.15-84.04Z"/>
          <path class="cls-2" d="M168.56,173.44s-.09.07-.13.1c-.34.24-.7.45-1.06.67l68.4,115.44,1.39,2.33,9.41-6.05-1.58-2.27-76.42-110.22Z"/>
          <path class="cls-2" d="M163.51,175.99c-.05.02-.1.04-.15.06-.4.13-.8.24-1.21.34l33.04,129.79.73,2.87,10.73-3.15-1.02-3.06-42.13-126.85Z"/>
        </g>
        <g>
          <path class="cls-4" d="M155.11,176.94l-14.41,133.25-.3,2.83,11.16.8.1-2.82,4.87-133.98c-.05,0-.11,0-.16,0-.42-.02-.84-.02-1.25-.06Z"/>
          <path class="cls-4" d="M150.81,175.99c-.4-.13-.79-.27-1.18-.43l-51.17,123.33-1.28,3.09,10.48,3.91.95-2.86,42.35-126.99c-.05-.02-.1-.04-.15-.06Z"/>
          <path class="cls-4" d="M145.76,173.44c-.34-.24-.68-.49-1.01-.75l-83.42,103.39-2.53,3.14,8.96,6.7,1.81-2.6,76.33-109.79s-.09-.07-.13-.1Z"/>
          <path class="cls-4" d="M141.63,169.57c-.26-.33-.51-.66-.75-1.01L30.66,244.98l-2.27,1.58,6.7,8.95,2.68-2.16,103.95-83.66s-.06-.09-.1-.13Z"/>
          <path class="cls-4" d="M138.76,164.69c-.16-.39-.3-.78-.43-1.18L11.48,205.64l-3.06,1.02,3.91,10.48,3.66-1.51,122.83-50.79s-.04-.1-.06-.15Z"/>
          <path class="cls-4" d="M137.38,159.2c-.04-.41-.05-.84-.06-1.26L3.57,162.64l-3.07.11.8,11.16,3.99-.43,132.12-14.12c0-.05-.02-.11-.02-.16Z"/>
          <path class="cls-4" d="M137.59,153.71c0-.05.01-.11.02-.16.08-.41.17-.82.27-1.23L7.93,119.07l-2.66-.68-2.38,10.93,3.49.63,131.21,23.76Z"/>
          <path class="cls-4" d="M139.36,148.34s.05-.1.07-.15c.19-.37.39-.74.6-1.1L24.65,78.54l-2.3-1.37-5.36,9.82,3.25,1.63,119.12,59.72Z"/>
          <path class="cls-4" d="M142.57,143.68s.07-.08.11-.12c.29-.31.58-.6.89-.89L52.48,44.73l-2.14-2.3-7.91,7.91,2.48,2.31,97.65,91.03Z"/>
          <path class="cls-4" d="M146.95,140.12s.09-.06.14-.08c.36-.21.73-.41,1.1-.6L88.5,19.99l-1.51-3.01-9.82,5.36,1.55,2.62,68.23,115.16Z"/>
          <path class="cls-4" d="M152.17,137.93c.05-.01.1-.03.16-.04.41-.1.81-.2,1.23-.27L129.9,6.06l-.57-3.17-10.93,2.38.79,3.12,32.98,129.54Z"/>
          <path class="cls-4" d="M173.91,1.3l-11.16-.8-.12,3.42-4.84,133.38c.05,0,.11,0,.16,0,.42.02.84.02,1.25.06L173.59,4.34l.32-3.04Z"/>
          <path class="cls-4" d="M163.51,138.33c.4.13.79.27,1.18.43L216.05,14.98l1.09-2.65-10.48-3.91-1.03,3.09-42.28,126.76c.05.02.1.04.15.06Z"/>
          <path class="cls-4" d="M168.56,140.88c.34.24.68.49,1.01.75l83.72-103.76,2.23-2.77-8.96-6.7-1.72,2.47-76.42,109.92s.09.07.13.1Z"/>
          <path class="cls-4" d="M172.68,144.75c.26.33.51.66.75,1.01l109.74-76.1,2.74-1.91-6.7-8.95-2.65,2.14-103.98,83.69s.06.09.1.13Z"/>
          <path class="cls-4" d="M175.56,149.63c.16.39.3.78.43,1.18l126.8-42.12,3.1-1.04-3.91-10.48-3,1.24-123.49,51.06s.04.1.06.15Z"/>
          <path class="cls-4" d="M176.94,155.11c.04.41.05.84.06,1.26l133.73-4.69,3.08-.11-.8-11.16-3.44.37-132.67,14.18c0,.05.02.11.02.16Z"/>
          <path class="cls-4" d="M176.73,160.61c0,.05-.01.11-.02.16-.08.41-.17.82-.27,1.23l129.44,33.12,3.18.81,2.38-10.93-3.39-.61-131.31-23.77Z"/>
          <path class="cls-4" d="M174.96,165.98s-.05.1-.07.15c-.19.37-.39.74-.6,1.1l114.7,68.15,2.99,1.77,5.36-9.82-2.73-1.37-119.64-59.98Z"/>
          <path class="cls-4" d="M171.75,170.63s-.07.08-.11.12c-.29.31-.58.6-.89.89l91.28,98.16,1.94,2.08,7.91-7.91-2.43-2.26-97.71-91.08Z"/>
          <path class="cls-4" d="M167.37,174.2s-.09.06-.14.08c-.36.21-.73.41-1.1.6l59.46,118.97,1.74,3.47,9.82-5.36-1.38-2.33-68.4-115.44Z"/>
          <path class="cls-4" d="M162.15,176.39c-.05.01-.1.03-.16.04-.4.1-.81.2-1.23.27l23.71,131.9.51,2.82,10.93-2.38-.73-2.87-33.04-129.79Z"/>
        </g>
        <g>
          <path class="cls-5" d="M153.71,176.73l-23.74,131.11-.65,3.59,11.07,1.59.31-2.83,14.41-133.25c-.05,0-.11-.02-.16-.02-.42-.05-.83-.12-1.24-.19Z"/>
          <path class="cls-5" d="M149.47,175.5c-.39-.16-.76-.35-1.13-.54l-59.98,119.64-1.37,2.73,10.18,4.65,1.28-3.09,51.17-123.33s-.1-.03-.15-.06Z"/>
          <path class="cls-5" d="M144.62,172.59c-.33-.26-.63-.55-.94-.83l-91.8,98.49-1.54,1.65,8.45,7.33,2.53-3.14,83.42-103.39s-.09-.06-.13-.1Z"/>
          <path class="cls-5" d="M140.78,168.43c-.24-.34-.45-.7-.67-1.06L24.73,235.73l-2.38,1.42,6.05,9.41,2.27-1.57,110.22-76.43s-.07-.09-.1-.13Z"/>
          <path class="cls-5" d="M138.27,163.36c-.13-.4-.24-.8-.34-1.21L7.36,195.39l-2.09.53,3.15,10.73,3.06-1.02,126.85-42.13c-.02-.05-.04-.1-.06-.15Z"/>
          <path class="cls-5" d="M137.3,157.79c0-.21-.03-.42-.03-.63s.03-.42.03-.63l-133.14-4.84-3.67-.13v11.19l3.07-.11,133.75-4.7c0-.05,0-.11,0-.16Z"/>
          <path class="cls-5" d="M137.89,152.32c.01-.05.03-.11.04-.16.11-.41.21-.81.34-1.21L11.89,108.81l-3.47-1.15-3.15,10.73,2.66.68,129.96,33.26Z"/>
          <path class="cls-5" d="M140.03,147.09s.06-.09.08-.14c.22-.36.43-.72.67-1.06L30.96,69.54l-2.57-1.78-6.05,9.41,2.3,1.37,115.38,68.55Z"/>
          <path class="cls-5" d="M143.56,142.67s.08-.07.12-.11c.31-.28.61-.57.94-.84L61.06,37.9l-2.26-2.8-8.45,7.33,2.14,2.3,91.08,97.95Z"/>
          <path class="cls-5" d="M148.19,139.43s.1-.05.15-.07c.38-.19.75-.38,1.13-.54L98.39,15.28l-1.22-2.95-10.18,4.65,1.51,3.01,59.69,119.43Z"/>
          <path class="cls-5" d="M153.55,137.62c.05,0,.11-.02.16-.02.41-.07.82-.14,1.24-.19L140.77,4.73l-.37-3.44-11.07,1.59.57,3.17,23.65,131.56Z"/>
          <path class="cls-5" d="M184.42,6.07l.57-3.18-11.07-1.59-.33,3.04-14.39,133.04c.05,0,.11.02.16.02.42.05.83.12,1.24.19L184.42,6.07Z"/>
          <path class="cls-5" d="M164.84,138.82c.39.16.76.35,1.13.54l59.8-119.28,1.55-3.09-10.18-4.65-1.1,2.64-51.36,123.78c.05.02.1.04.15.06Z"/>
          <path class="cls-5" d="M169.7,141.73c.33.26.63.55.94.84l91.05-97.68,2.29-2.46-8.45-7.33-2.24,2.77-83.72,103.76s.09.06.13.1Z"/>
          <path class="cls-5" d="M173.53,145.89c.24.34.45.7.67,1.06l115.1-68.2,2.67-1.59-6.05-9.41-2.75,1.9-109.74,76.1s.07.09.1.13Z"/>
          <path class="cls-5" d="M176.04,150.96c.13.4.24.8.34,1.21l129.57-32.99,3.09-.79-3.15-10.73-3.1,1.03-126.8,42.12c.02.05.04.1.06.15Z"/>
          <path class="cls-5" d="M310.74,151.67l-133.73,4.69c0,.05,0,.11,0,.16,0,.21.03.42.03.63s-.03.42-.03.63l133.38,4.84,3.43.12v-11.19l-3.08.11Z"/>
          <path class="cls-5" d="M176.43,161.99c-.01.05-.03.1-.04.16-.11.41-.21.81-.34,1.21l127.12,42.4,2.73.91,3.15-10.73-3.18-.81-129.44-33.12Z"/>
          <path class="cls-5" d="M174.29,167.23s-.06.09-.08.14c-.22.36-.43.72-.67,1.06l109.25,75.95,3.14,2.18,6.05-9.41-2.98-1.77-114.7-68.15Z"/>
          <path class="cls-5" d="M170.75,171.64s-.08.07-.12.11c-.31.28-.61.57-.94.84l83.61,103.88,2.22,2.75,8.45-7.33-1.94-2.08-91.28-98.16Z"/>
          <path class="cls-5" d="M166.13,174.89s-.1.05-.15.07c-.38.19-.75.38-1.14.54l50.81,122.89,1.49,3.6,10.18-4.65-1.74-3.48-59.46-118.97Z"/>
          <path class="cls-5" d="M160.77,176.7c-.05,0-.11.02-.16.02-.41.07-.82.14-1.24.19l14.22,133,.34,3.1,11.07-1.59-.51-2.82-23.71-131.9Z"/>
        </g>
        <g>
          <path class="cls-1" d="M152.32,176.43l-33.12,129.45-.81,3.17,10.93,2.38.65-3.59,23.74-131.11c-.05,0-.11-.01-.16-.02-.41-.08-.82-.17-1.23-.27Z"/>
          <path class="cls-1" d="M148.19,174.89c-.37-.19-.74-.39-1.1-.6l-68.2,114.79-1.72,2.9,9.82,5.36,1.37-2.73,59.98-119.64s-.1-.05-.15-.07Z"/>
          <path class="cls-1" d="M143.56,171.64c-.31-.29-.6-.58-.89-.89l-97.1,90.3-3.14,2.93,7.91,7.91,1.54-1.65,91.8-98.49s-.08-.07-.12-.11Z"/>
          <path class="cls-1" d="M140.03,167.23c-.21-.36-.41-.73-.6-1.1l-119.17,59.56-3.27,1.64,5.36,9.82,2.39-1.41,115.39-68.37s-.06-.09-.08-.14Z"/>
          <path class="cls-1" d="M137.89,161.99c-.1-.4-.2-.81-.27-1.22L5.68,184.49l-2.79.5,2.38,10.93,2.09-.53,130.57-33.24c-.01-.05-.03-.11-.04-.16Z"/>
          <path class="cls-1" d="M137.3,156.53c0-.05,0-.11,0-.16.02-.42.02-.84.06-1.26L4.24,140.72l-2.94-.31-.8,11.16,3.67.13,133.14,4.84Z"/>
          <path class="cls-1" d="M138.27,150.96c.02-.05.04-.1.06-.15.13-.4.27-.79.43-1.18L15.11,98.32l-2.78-1.15-3.91,10.48,3.46,1.16,126.38,42.15Z"/>
          <path class="cls-1" d="M140.78,145.89s.07-.09.1-.13c.24-.34.49-.68.75-1.01L37.88,61.04l-2.78-2.24-6.7,8.95,2.56,1.78,109.82,76.35Z"/>
          <path class="cls-1" d="M144.62,141.73s.09-.06.13-.1c.33-.26.66-.51,1.01-.75L69.63,31.09l-1.88-2.7-8.95,6.7,2.26,2.81,83.56,103.83Z"/>
          <path class="cls-1" d="M149.47,138.82s.1-.04.15-.06c.39-.16.78-.3,1.18-.43L108.68,11.5l-1.03-3.07-10.48,3.91,1.22,2.95,51.08,123.53Z"/>
          <path class="cls-1" d="M151.56.5l-11.16.8.37,3.44,14.18,132.67c.05,0,.11-.02.16-.02.41-.04.84-.05,1.26-.06L151.67,3.62l-.11-3.12Z"/>
          <path class="cls-1" d="M161.99,137.89L195.1,8.52l.83-3.25-10.93-2.38-.58,3.18-23.81,131.52c.05,0,.11.01.16.02.41.08.82.17,1.23.27Z"/>
          <path class="cls-1" d="M166.12,139.43c.37.19.74.39,1.1.6L235.51,25.1l1.63-2.76-9.82-5.36-1.55,3.09-59.8,119.28s.1.05.15.07Z"/>
          <path class="cls-1" d="M170.75,142.67c.31.29.6.58.89.89l97.84-90.98,2.4-2.24-7.91-7.91-2.29,2.46-91.05,97.68s.08.07.12.11Z"/>
          <path class="cls-1" d="M174.29,147.09c.21.36.41.73.6,1.1l119.77-59.86,2.67-1.34-5.36-9.82-2.67,1.58-115.1,68.2s.06.09.08.14Z"/>
          <path class="cls-1" d="M176.43,152.32c.1.41.2.81.27,1.23l131.52-23.65,3.2-.58-2.38-10.93-3.09.79-129.57,32.99c.01.05.03.1.04.16Z"/>
          <path class="cls-1" d="M310.39,162.63l-133.38-4.84c0,.05,0,.11,0,.16-.02.42-.02.84-.06,1.26l133.05,14.39,3.02.32.8-11.16-3.43-.12Z"/>
          <path class="cls-1" d="M176.05,163.36c-.02.05-.04.1-.06.15-.13.4-.27.79-.43,1.18l123.33,51.17,3.09,1.28,3.91-10.48-2.73-.91-127.12-42.4Z"/>
          <path class="cls-1" d="M173.53,168.43s-.07.09-.1.13c-.24.34-.49.68-.75,1.01l104.15,84.04,2.38,1.92,6.7-8.95-3.14-2.18-109.25-75.95Z"/>
          <path class="cls-1" d="M169.7,172.59s-.09.06-.13.1c-.33.26-.66.51-1.01.75l76.42,110.22,1.58,2.27,8.96-6.7-2.21-2.75-83.61-103.88Z"/>
          <path class="cls-1" d="M164.84,175.5s-.1.04-.15.06c-.39.16-.78.3-1.18.43l42.13,126.85,1.02,3.06,10.48-3.91-1.49-3.6-50.81-122.89Z"/>
          <path class="cls-1" d="M159.36,176.92c-.05,0-.11.02-.16.02-.41.04-.84.05-1.26.06-.05,0-.11,0-.16,0l4.83,132.92.14,3.88,11.16-.8-.33-3.1-14.22-133Z"/>
        </g>
      </g>
      <circle class="cls-3" cx="157.16" cy="157.16" r="156.66"/>
    </g>
  </g>
</svg>