<?xml version="1.0" encoding="UTF-8"?>
<svg id="Layer_2" data-name="Layer 2" xmlns="http://www.w3.org/2000/svg" viewBox="0 0 121.5 95.91">
  <defs>
    <style>
      .cls-1 {
        fill: #f7a540;
      }

      .cls-2 {
        fill: #fffff3;
        stroke: #000;
        stroke-linecap: round;
        stroke-linejoin: round;
      }
    </style>
  </defs>
  <g id="Layer_1-2" data-name="Layer 1">
    <g>
      <g>
        <path class="cls-1" d="M49.82,95.41c-5.34,0-10.33-2-14.06-5.63-.09-.09-.21-.14-.33-.14,0,0-.43-.02-.44-.02-.03,0-.06,0-.09,0-1.59.31-3.23.46-4.87.46-5.6,0-10.87-1.73-15.23-5.01-5.89-4.41-9.26-11.22-9.26-18.7,0-2.11.29-4.22.86-6.27.02-.06.02-.12.02-.18-.06-.61-.08-1.24-.08-1.86,0-.76.05-1.54.14-2.33.02-.15-.03-.3-.14-.41-3.72-3.79-5.76-8.79-5.76-14.06,0-1.88.26-3.74.79-5.54.03-.09.03-.19,0-.28-.56-1.87-.84-3.8-.84-5.75,0-6.13,2.88-11.98,7.89-16.07,4.23-3.51,8.89-5.28,13.84-5.28.6,0,1.58.04,2.79.22.02,0,.05,0,.07,0,.02,0,.04,0,.07,0,1.12-.15,2.27-.22,3.41-.22,1.29,0,2.58.11,3.85.32.03,0,.05,0,.08,0,.12,0,.25-.05.34-.13,3.92-3.65,9.05-5.66,14.45-5.66s10.23,1.91,14.1,5.38c.08.08.19.12.31.13,2.11.11,4.19.49,6.18,1.11.05.02.1.02.15.02.05,0,.1,0,.14-.02.24-.07.47-.14.71-.2.11-.03.21-.1.28-.19.86-1.18,1.84-2.27,2.92-3.24,3.86-3.46,8.84-5.37,14.04-5.37,6.79,0,12.97,3.1,16.98,8.51.07.09.16.15.27.18l.22.06c1.05.26,2.07.61,3.14,1.05.83.35,1.26.56,1.41.63l.89.44.41.23c4.82,2.58,8.45,7.04,9.97,12.25.6,2.07.88,4.19.88,6.68,0,.36,0,.72-.03,1.08,0,.05,0,.1.02.15.5,1.9.75,3.88.75,5.88,0,5.42-1.75,10.52-5.07,14.73-.09.12-.13.26-.1.41.27,1.34.41,2.72.41,4.13,0,2.06-.3,4.08-.91,6.02-.03.1-.03.2,0,.3.64,2,.96,4.07.96,6.17,0,7.22-3.88,13.92-10.14,17.49-3.13,1.79-6.67,2.74-10.24,2.74h-3.97c-.8,0-1.62-.05-2.44-.15-.02,0-.04,0-.06,0-.02,0-.04,0-.06,0-.81.1-1.63.15-2.44.15h-2.58l-.45.03h-.68c-1.02,0-2.04-.08-3.04-.23-.02,0-.05,0-.07,0s-.05,0-.07,0c-.93.13-1.89.2-2.84.2h-3.64c-.54,0-1.07-.02-1.62-.07-.64.05-1.16.07-1.7.07h-2.24c-.13,0-.25.05-.35.14-3.76,3.62-8.76,5.62-14.07,5.62h-3.79Z"/>
        <path d="M86.11,1c6.62,0,12.67,3.03,16.58,8.31.13.18.32.31.54.37l.08.02.17.05c1.01.25,2.01.59,3.05,1.02.56.24,1.03.45,1.38.62l.85.42.44.25c4.7,2.51,8.24,6.87,9.72,11.95.59,2.02.86,4.1.86,6.55,0,.35,0,.7-.03,1.05,0,.1,0,.21.03.31.49,1.86.73,3.79.73,5.75,0,5.31-1.72,10.29-4.97,14.43-.18.23-.25.53-.19.82.27,1.3.4,2.66.4,4.03,0,2.01-.3,3.98-.88,5.87-.06.2-.06.41,0,.6.62,1.95.94,3.97.94,6.02,0,7.04-3.79,13.57-9.89,17.06-3.05,1.75-6.51,2.68-9.99,2.68h-3.97c-.78,0-1.58-.05-2.38-.14-.04,0-.08,0-.12,0s-.08,0-.12,0c-.79.1-1.59.14-2.38.14h-2.58s-.05,0-.07,0l-.38.03h-.68c-.99,0-1.99-.07-2.97-.22-.05,0-.1-.01-.15-.01-.05,0-.09,0-.14,0-.91.13-1.84.19-2.77.19h-3.64c-.52,0-1.04-.02-1.58-.07-.03,0-.06,0-.08,0s-.06,0-.08,0c-.54.04-1.05.07-1.57.07h-2.24c-.26,0-.51.1-.69.28-3.67,3.53-8.54,5.48-13.73,5.48h-3.79c-5.21,0-10.08-1.95-13.71-5.49-.18-.18-.42-.28-.67-.28-.14,0-.27,0-.41-.01-.01,0-.03,0-.04,0-.06,0-.13,0-.19.02-1.56.3-3.17.45-4.78.45-5.49,0-10.65-1.7-14.93-4.91-5.76-4.31-9.06-10.98-9.06-18.3,0-2.07.28-4.13.84-6.14.03-.12.04-.24.03-.36-.05-.6-.08-1.21-.08-1.82,0-.74.05-1.5.14-2.27.04-.3-.07-.6-.28-.82-3.62-3.7-5.62-8.57-5.62-13.71,0-1.83.26-3.65.77-5.4.05-.19.05-.38,0-.57-.55-1.82-.82-3.7-.82-5.61,0-5.98,2.81-11.69,7.72-15.69,4.14-3.43,8.68-5.16,13.52-5.16.59,0,1.53.04,2.72.22.05,0,.1.01.15.01.04,0,.09,0,.13,0,1.1-.14,2.23-.22,3.35-.22,1.26,0,2.53.1,3.76.31.05,0,.11.01.16.01.25,0,.49-.09.68-.27,3.83-3.56,8.84-5.52,14.11-5.52s9.99,1.86,13.76,5.25c.17.15.39.24.61.25,2.07.11,4.1.48,6.05,1.09.1.03.2.05.3.05s.19-.01.28-.04c.23-.07.46-.13.7-.2.22-.06.42-.19.55-.38.84-1.15,1.8-2.22,2.85-3.16,3.77-3.38,8.63-5.24,13.7-5.24M86.11,0c-5.31,0-10.42,1.95-14.37,5.5-1.11,1-2.12,2.11-2.99,3.32-.24.06-.48.13-.72.2-2.02-.63-4.14-1.01-6.3-1.13-3.96-3.56-9.06-5.5-14.43-5.5s-10.78,2.06-14.79,5.79c-1.29-.22-2.61-.32-3.93-.32-1.17,0-2.33.08-3.48.23-1.25-.19-2.26-.23-2.87-.23-5.07,0-9.86,1.83-14.16,5.39C2.94,17.42,0,23.42,0,29.7c0,2,.3,4,.87,5.89-.53,1.84-.81,3.75-.81,5.68,0,5.52,2.22,10.65,5.91,14.41-.11.93-.15,1.74-.15,2.39s.03,1.27.09,1.91c-.58,2.1-.88,4.24-.88,6.41,0,7.63,3.45,14.59,9.46,19.1,4.45,3.34,9.82,5.11,15.53,5.11,1.68,0,3.34-.16,4.97-.47.14,0,.28.01.42.02,3.76,3.66,8.86,5.77,14.41,5.77h3.79c5.46,0,10.56-2.04,14.42-5.76h2.24c.54,0,1.09-.02,1.66-.07.57.05,1.12.07,1.66.07h3.64c.97,0,1.95-.07,2.91-.2,1.03.15,2.07.23,3.12.23h.71l.41-.03h2.58c.83,0,1.67-.05,2.5-.15.84.1,1.67.15,2.5.15h3.97c3.66,0,7.3-.98,10.49-2.81,6.41-3.66,10.39-10.53,10.39-17.93,0-2.16-.33-4.29-.99-6.32.61-1.97.93-4.04.93-6.16,0-1.45-.14-2.86-.42-4.23,3.34-4.24,5.18-9.5,5.18-15.04,0-2.05-.26-4.07-.76-6.01.02-.37.03-.74.03-1.1,0-2.54-.29-4.71-.9-6.82-1.56-5.35-5.27-9.91-10.21-12.55l-.43-.24-.89-.44c-.15-.08-.59-.29-1.44-.64-1.09-.45-2.14-.8-3.2-1.07-.07-.02-.15-.04-.22-.06-4.06-5.48-10.46-8.72-17.38-8.72h0Z"/>
      </g>
      <path class="cls-2" d="M11.62,35.25v.54c-1.1,1.79-1.56,3.75-1.56,5.48,0,4.97,3.32,9.04,7.96,10.28-1.97,2.65-2.2,5.42-2.2,6.52,0,.97.12,1.9.35,2.78-.76,1.8-1.15,3.66-1.15,5.53,0,4.45,2,8.5,5.47,11.1,2.71,2.03,6,3.1,9.53,3.1,1.47,0,2.89-.19,4.24-.56.04,0,.07,0,.11.01.6.07,1.23.11,2.12.11h.53c.65,0,1.12-.02,1.39-.03.6-.04,1.19-.14,1.78-.28,1.68,3.62,5.32,6.07,9.64,6.07h3.79c2.91,0,5.59-1.08,7.59-3.06.93-.93,1.65-2.02,2.17-3.21,1.07.33,2.21.52,3.41.52h3.5c.57,0,1.12-.05,1.66-.13.54.08,1.09.13,1.66.13h3.64c1.01,0,2.01-.14,2.96-.41.97.28,2,.44,3.07.44h.36l.41-.03h2.94c.84,0,1.67-.1,2.47-.29.81.18,1.66.29,2.52.29h3.97c1.92,0,3.84-.52,5.53-1.49,3.3-1.88,5.35-5.43,5.35-9.24,0-2.05-.57-4.04-1.7-5.82-.11-.16-.21-.32-.33-.48,1.25-1.74,1.97-3.87,1.97-6.19,0-2.75-.96-5.04-2.47-6.79.62-.37,1.23-.77,1.81-1.23,3.5-2.78,5.42-6.78,5.42-11.25,0-1.75-.32-3.44-.93-5,.13-.7.2-1.41.2-2.11,0-1.59-.15-2.83-.5-4.03-.82-2.82-2.77-5.18-5.38-6.56l-.31-.17-.63-.31c-.1-.05-.37-.18-.88-.39-.68-.28-1.3-.49-1.93-.64-.71-.21-1.43-.36-2.19-.45-.24-.03-.53-.06-.86-.09-.31-.03-.63-.03-.94-.04-.33-.91-.76-1.79-1.28-2.61-2.14-3.3-5.79-5.26-9.76-5.26-2.85,0-5.58,1.04-7.69,2.94-1.5,1.35-2.6,3.06-3.2,4.95-2.62.12-5.08.76-7.31,1.91-2.25-1.27-4.84-1.95-7.6-1.95-1.02,0-2.01.11-2.98.29-.53-.91-1.17-1.75-1.95-2.5-2.17-2.1-5.04-3.26-8.09-3.26s-5.85,1.12-8.02,3.15c-.74.7-1.37,1.48-1.89,2.32-.03,0-.06,0-.08,0-1.54,0-3.04.22-4.49.66-1.36-.44-2.78-.66-4.23-.66-1.24,0-2.45.13-3.62.4-1.35-.37-2.41-.4-2.72-.4-3.6,0-6.19,1.78-7.84,3.15-3.82,3.11-4.39,6.78-4.39,8.7,0,1.6.38,3.2,1.06,4.58.17.34.35.66.55.98Z"/>
      <g>
        <path d="M20,29.7c0-.25.25-.58.73-.97.71-.59,1.21-.88,1.5-.88.63,0,1.04.85,1.23,2.56,1.37-1.7,3.08-2.56,5.11-2.56.82,0,1.58.25,2.26.73.69.49,1.23,1.11,1.65,1.85.57-.8,1.28-1.43,2.13-1.9.85-.46,1.75-.69,2.69-.69,1.51,0,2.69.52,3.56,1.56.71.88,1.06,2.18,1.06,3.91v5.49c0,.63.04,1.05.13,1.28.09.23.27.39.54.48.04.02.11.05.21.09.1.04.17.07.22.09s.11.05.18.09c.07.04.12.07.15.1s.06.07.09.13c.03.06.04.13.04.21,0,.2-.07.36-.21.48-.14.13-.31.19-.53.19h-3.64c-.63,0-.94-.23-.94-.68,0-.29.26-.52.79-.68.27-.1.47-.29.59-.57.12-.28.18-.78.18-1.48v-5c0-1.45-.25-2.49-.73-3.13-.49-.64-1.22-.96-2.2-.96s-2.01.41-2.97,1.23c-.63.55-.94,1.41-.94,2.59v5.52c0,.65.03,1.07.1,1.28s.26.37.57.48c.02,0,.06.01.12.03.47.23.72.46.76.68,0,.2-.07.36-.21.48s-.31.19-.53.19h-3.64c-.63,0-.94-.23-.94-.68,0-.18.06-.31.18-.4.12-.09.32-.18.62-.28.31-.1.52-.29.62-.57.1-.28.15-.78.15-1.48v-5c0-1.45-.25-2.49-.74-3.13-.49-.64-1.22-.96-2.2-.96-.16,0-.36.02-.6.06-.25.04-.61.16-1.09.35-.48.2-.9.46-1.25.79-.65.61-.97,1.48-.97,2.62v5.52c0,.61.04,1.03.13,1.26.09.23.27.4.54.5.22.08.36.13.44.16.08.03.17.09.28.19.11.1.16.22.16.35,0,.2-.07.36-.21.48s-.31.19-.53.19h-3.64c-.63,0-.94-.23-.94-.68,0-.25.26-.48.79-.68.33-.12.54-.31.63-.59.09-.27.13-.76.13-1.47v-6.35c0-.65-.03-1.09-.1-1.34-.07-.24-.24-.42-.51-.51-.04-.02-.11-.04-.21-.07-.1-.03-.17-.05-.21-.07-.04-.02-.1-.04-.18-.07s-.14-.06-.18-.09c-.04-.03-.08-.06-.12-.09s-.07-.06-.09-.1c-.02-.04-.03-.09-.03-.15Z"/>
        <path d="M44.71,29.7c0-.2.07-.36.22-.48.15-.13.42-.28.82-.47.4-.19.67-.32.81-.4.61-.33,1.07-.5,1.38-.5.18,0,.31.03.4.1.09.07.19.38.29.93.11.55.16,1.34.16,2.38v7.46c0,.71.04,1.16.13,1.37.09.21.29.38.6.51.51.2.76.43.76.71,0,.43-.29.65-.88.65h-3.5c-.61,0-.91-.22-.91-.65,0-.06,0-.12.01-.18s.02-.1.04-.13l.06-.09s.05-.05.1-.07c.05-.02.08-.03.1-.04.02,0,.06-.03.13-.06s.11-.04.13-.04c.27-.1.46-.17.54-.21.09-.04.19-.18.29-.41.11-.24.16-.58.16-1.03v-6.82c0-.51-.06-.91-.18-1.2-.12-.29-.25-.48-.38-.56-.14-.08-.31-.15-.53-.21-.53-.12-.79-.3-.79-.56ZM45.65,23.97c0-.47.16-.85.47-1.15s.71-.44,1.18-.44.83.15,1.13.44.46.66.46,1.09c0,.51-.16.92-.49,1.22-.32.3-.73.46-1.22.46-.45,0-.82-.16-1.1-.47-.28-.31-.43-.69-.43-1.15Z"/>
        <path d="M51.73,29.7c0-.29.25-.62.73-.97.1-.08.23-.18.38-.29.16-.12.28-.22.38-.29.1-.08.21-.15.35-.21.14-.06.26-.09.38-.09.63,0,1.04.85,1.23,2.56,1.37-1.7,3.08-2.56,5.11-2.56,1.61,0,2.88.53,3.82,1.59.8.9,1.2,2.2,1.2,3.91v5.23c0,1.16.18,1.8.53,1.94.65.24.97.49.97.76,0,.22-.08.38-.25.5-.17.12-.33.18-.48.18h-3.29l-.41.03c-.41,0-.62-.23-.62-.71,0-.25.21-.48.62-.68.31-.14.51-.32.6-.56.09-.24.13-.72.13-1.47v-5.7c0-1.08-.3-1.91-.9-2.51-.6-.6-1.43-.9-2.51-.9-.43,0-.96.1-1.6.29s-1.18.51-1.63.94c-.63.63-.94,1.49-.94,2.59v5.52c0,.63.04,1.04.12,1.25.08.21.26.38.56.51.06.02.15.05.26.1.12.05.2.08.25.1.05.02.11.05.18.1s.12.1.15.16c.03.06.04.14.04.23,0,.2-.07.36-.21.48s-.31.19-.53.19h-3.64c-.63,0-.94-.23-.94-.68,0-.25.26-.48.79-.68.31-.12.52-.31.62-.57.1-.26.15-.76.15-1.48v-6.35c0-.65-.03-1.09-.1-1.32-.07-.23-.24-.41-.51-.53-.08-.02-.18-.05-.29-.1-.12-.05-.21-.09-.28-.12s-.14-.06-.22-.1c-.08-.04-.13-.09-.16-.15-.03-.06-.04-.12-.04-.18Z"/>
        <path d="M68.27,35.69c0-2.17.75-4.03,2.26-5.55,1.51-1.53,3.35-2.29,5.52-2.29,1.43,0,2.59.38,3.48,1.13.89.75,1.34,1.62,1.34,2.6,0,1.74-1.18,3.08-3.53,4.02-1.37.55-3.54.96-6.52,1.23h-.03c.21,1.18.78,2.12,1.69,2.82.91.71,1.97,1.06,3.19,1.06.76,0,1.46-.13,2.07-.38.62-.25,1.08-.54,1.4-.85.31-.31.61-.6.9-.85.28-.25.51-.38.69-.38.14,0,.26.05.38.15.12.1.18.23.18.38,0,.65-.63,1.41-1.9,2.29-1.26.88-2.66,1.32-4.19,1.32-1.94,0-3.58-.63-4.92-1.88-1.34-1.25-2.01-2.86-2.01-4.82ZM75.88,29.28c-1.59,0-2.86.57-3.82,1.72-.96,1.15-1.44,2.67-1.44,4.57.72-.06,1.34-.12,1.85-.19.51-.07,1.18-.2,2.01-.4.83-.2,1.51-.43,2.04-.69.53-.26.99-.64,1.4-1.12.4-.48.6-1.03.6-1.66,0-.69-.23-1.23-.69-1.63-.46-.4-1.11-.6-1.95-.6Z"/>
        <path d="M84.67,21.35c0-.39.14-.71.43-.97.28-.25.62-.38,1.01-.38.61,0,1.06.24,1.37.71.3.47.46,1.03.46,1.67,0,.86-.2,1.68-.59,2.45s-.77,1.34-1.15,1.69-.62.53-.73.53c-.08,0-.16-.03-.24-.1-.08-.07-.12-.15-.12-.25s.15-.29.44-.59c.29-.29.59-.67.88-1.13.29-.46.44-.96.44-1.51,0-.22-.03-.38-.1-.48-.07-.11-.14-.17-.21-.18-.07,0-.18-.02-.34-.04-1.04-.04-1.56-.51-1.56-1.41Z"/>
        <path d="M91.6,32.05c0-1.16.46-2.14,1.38-2.97.92-.82,2.11-1.23,3.55-1.23.24,0,.46,0,.69.03s.42.04.59.06c.17.02.35.06.54.12.2.06.34.1.44.12.1.02.24.07.43.15.19.08.3.13.34.15.04.02.16.08.35.18l.26.15c.25.12.42.29.48.53.07.24.1.65.1,1.23s-.13.88-.38.88c-.2,0-.42-.11-.66-.34-.25-.23-.49-.48-.74-.76-.25-.28-.62-.54-1.12-.76-.5-.23-1.05-.34-1.66-.34-.72,0-1.37.18-1.92.54-.56.36-.84.89-.84,1.57,0,.51.2.93.6,1.25.4.32.9.56,1.48.71s1.23.32,1.94.53,1.35.43,1.94.68c.59.25,1.08.64,1.48,1.18.4.54.6,1.2.6,1.98,0,1.41-.55,2.55-1.65,3.42-1.1.87-2.36,1.31-3.79,1.31-1.16,0-2.28-.31-3.36-.93s-1.63-1.34-1.63-2.16c0-.2.07-.39.22-.57.15-.19.32-.28.51-.28.33,0,.61.12.82.35.21.24.44.51.66.84.22.32.47.55.75.69.86.43,1.65.65,2.35.65.78,0,1.49-.22,2.12-.65.63-.43.94-1.03.94-1.79,0-.69-.27-1.21-.81-1.59-.54-.37-1.19-.64-1.97-.81-.77-.17-1.54-.36-2.31-.57-.76-.22-1.42-.61-1.95-1.19-.54-.58-.81-1.36-.81-2.34Z"/>
        <path d="M25.82,58.07c0-.51.49-.97,1.48-1.4.99-.42,2.05-.63,3.19-.63,2.16,0,3.76.54,4.82,1.62,1.06,1.08,1.59,2.42,1.59,4.03v5.02c0,.59.06,1.05.18,1.38.12.33.22.53.32.59.1.06.25.13.47.21.02,0,.06.01.12.04.06.03.1.04.12.04s.05.01.1.04.08.05.09.06.03.03.07.06c.04.03.06.06.07.1l.03.12s.01.09.01.15c0,.22-.08.37-.24.47-.16.1-.31.15-.47.16-.16.01-.41.01-.76.01h-.53c-.43,0-.72,0-.88-.03-.16-.02-.3-.11-.44-.26-.14-.16-.22-.38-.24-.68-.02-.29-.02-.74,0-1.35-1.16,1.84-2.79,2.76-4.91,2.76-1.37,0-2.55-.37-3.53-1.1-.98-.73-1.47-1.77-1.47-3.1,0-.57.14-1.16.41-1.76.27-.61.7-1.2,1.26-1.78.57-.58,1.39-1.05,2.45-1.41,1.07-.36,2.3-.54,3.69-.54.76,0,1.38.05,1.85.15-.08-1.08-.51-1.94-1.29-2.6-.78-.66-1.72-.98-2.82-.98-.76,0-1.39.11-1.88.34-.49.23-.88.45-1.17.68-.29.23-.59.34-.88.34-.55,0-.82-.24-.82-.73ZM33.25,62.22c-1.49,0-2.84.33-4.05,1-1.21.67-1.82,1.67-1.82,3.03,0,.76.26,1.41.79,1.92.53.52,1.23.78,2.12.78,1.45,0,2.55-.41,3.29-1.22.75-.81,1.12-1.79,1.12-2.92v-2.47c-.39-.08-.87-.12-1.44-.12Z"/>
        <path d="M48.53,57.72c0-.35.33-.72.98-1.1s1.18-.57,1.57-.57c.2,0,.38.05.54.15.17.1.3.2.4.31.1.11.2.28.29.51.1.24.16.41.19.53.03.12.08.31.15.57.07.26.1.42.1.46.74-.84,1.49-1.47,2.25-1.9.75-.42,1.63-.63,2.63-.63,1.8,0,3.3.67,4.48,2,1.19,1.33,1.78,3.02,1.78,5.05,0,2.37-.66,4.21-1.98,5.52-1.32,1.31-2.97,1.97-4.95,1.97-.57,0-1.26-.14-2.07-.41-.81-.27-1.22-.65-1.22-1.12,0-.16.05-.31.15-.46.1-.15.22-.22.38-.22.06,0,.4.12,1.03.35.63.23,1.26.35,1.91.35,1.31,0,2.38-.53,3.19-1.59.81-1.06,1.22-2.45,1.22-4.17,0-1.59-.35-2.91-1.06-3.98-.71-1.07-1.79-1.6-3.26-1.6-1.16,0-2.18.38-3.08,1.13-.9.75-1.35,1.66-1.35,2.72v11.08c0,.92.1,1.45.29,1.59.06.04.18.11.37.21.19.1.32.18.41.23s.18.14.26.25c.09.11.13.22.13.34,0,.24-.04.4-.13.48-.09.09-.26.13-.51.13h-3.79c-.43,0-.65-.21-.65-.62,0-.29.22-.49.65-.59.29-.06.49-.22.6-.47.11-.25.16-.72.16-1.38v-12.52c0-.8-.08-1.32-.25-1.56-.17-.24-.5-.42-.98-.56-.06-.02-.15-.04-.26-.06-.12-.02-.2-.03-.24-.04-.04,0-.09-.03-.16-.07-.07-.04-.11-.08-.13-.13s-.03-.11-.03-.19Z"/>
        <path d="M65.57,57.9c0-.2.07-.36.22-.48.15-.13.42-.28.82-.47.4-.19.67-.32.81-.4.61-.33,1.07-.5,1.38-.5.18,0,.31.03.4.1.09.07.19.38.29.93.11.55.16,1.34.16,2.38v7.46c0,.71.04,1.16.13,1.37.09.21.29.38.6.51.51.2.76.43.76.71,0,.43-.29.65-.88.65h-3.5c-.61,0-.91-.22-.91-.65,0-.06,0-.12.01-.18s.02-.1.04-.13l.06-.09s.05-.05.1-.07c.05-.02.08-.03.1-.04.02,0,.06-.03.13-.06s.11-.04.13-.04c.27-.1.46-.17.54-.21.09-.04.19-.18.29-.41.11-.24.16-.58.16-1.03v-6.82c0-.51-.06-.91-.18-1.2-.12-.29-.25-.48-.38-.56-.14-.08-.31-.15-.53-.21-.53-.12-.79-.3-.79-.56ZM66.51,52.17c0-.47.16-.85.47-1.15s.71-.44,1.18-.44.83.15,1.13.44.46.66.46,1.09c0,.51-.16.92-.49,1.22-.32.3-.73.46-1.22.46-.45,0-.82-.16-1.1-.47-.28-.31-.43-.69-.43-1.15Z"/>
        <path d="M72.59,57.9c0-.29.25-.62.73-.97.1-.08.23-.18.38-.29.16-.12.28-.22.38-.29.1-.08.21-.15.35-.21.14-.06.26-.09.38-.09.63,0,1.04.85,1.23,2.56,1.37-1.7,3.08-2.56,5.11-2.56,1.61,0,2.88.53,3.82,1.59.8.9,1.2,2.2,1.2,3.91v5.23c0,1.16.18,1.8.53,1.94.65.24.97.49.97.76,0,.22-.08.38-.25.5-.17.12-.33.18-.48.18h-3.29l-.41.03c-.41,0-.62-.23-.62-.71,0-.25.21-.48.62-.68.31-.14.51-.32.6-.56.09-.24.13-.72.13-1.47v-5.7c0-1.08-.3-1.91-.9-2.51-.6-.6-1.43-.9-2.51-.9-.43,0-.96.1-1.6.29s-1.18.51-1.63.94c-.63.63-.94,1.49-.94,2.59v5.52c0,.63.04,1.04.12,1.25.08.21.26.38.56.51.06.02.15.05.26.1.12.05.2.08.25.1.05.02.11.05.18.1s.12.1.15.16c.03.06.04.14.04.23,0,.2-.07.36-.21.48s-.31.19-.53.19h-3.64c-.63,0-.94-.23-.94-.68,0-.25.26-.48.79-.68.31-.12.52-.31.62-.57.1-.26.15-.76.15-1.48v-6.35c0-.65-.03-1.09-.1-1.32-.07-.23-.24-.41-.51-.53-.08-.02-.18-.05-.29-.1-.12-.05-.21-.09-.28-.12s-.14-.06-.22-.1c-.08-.04-.13-.09-.16-.15-.03-.06-.04-.12-.04-.18Z"/>
        <path d="M88.55,56.81c0-.37.32-.56.97-.56.49-.02.82-.07,1-.16s.33-.29.47-.6c.27-.61.49-1.6.65-2.97.06-.39.11-.69.15-.88s.12-.38.24-.56.27-.26.47-.26c.41,0,.62.32.62.97v4.47h2.5c.76,0,1.15.23,1.15.68,0,.49-.35.73-1.06.73h-2.59v8.99c0,.47.04.85.12,1.13.08.28.21.49.4.62.19.13.37.21.54.25.18.04.43.06.76.06h.54c.19,0,.36,0,.51.02.16,0,.3.03.43.07.13.04.22.11.29.22.07.11.1.24.1.4,0,.25-.1.44-.31.56-.21.12-.4.18-.57.18h-3.97c-.41,0-.69-.12-.84-.35-.15-.23-.22-.57-.22-1v-11.14c-.43,0-.75,0-.96-.01-.21,0-.44-.04-.71-.09-.26-.05-.45-.14-.54-.26-.1-.13-.15-.29-.15-.48Z"/>
      </g>
    </g>
  </g>
</svg>