<?xml version="1.0" encoding="UTF-8"?>
<svg id="Layer_2" data-name="Layer 2" xmlns="http://www.w3.org/2000/svg" viewBox="0 0 70.23 95.29">
  <defs>
    <style>
      .cls-1 {
        fill: #fffff3;
      }

      .cls-1, .cls-2 {
        stroke: #000;
        stroke-linecap: round;
        stroke-linejoin: round;
      }

      .cls-3 {
        fill: #e86ba5;
      }

      .cls-2 {
        fill: #f7a540;
      }
    </style>
  </defs>
  <g id="Layer_1-2" data-name="Layer 1">
    <g>
      <g>
        <path class="cls-1" d="M63.66,22.42c.94-1.26-.11-3.03-1.67-2.8L2.01,28.38c-1.56.23-2.06,2.22-.8,3.16l34.08,25.39,4.45,30.47-10.38,5.98c-.72.41-.33,1.51.48,1.39l24.47-3.57c.82-.12.87-1.28.06-1.47l-11.66-2.76-4.45-30.47,25.39-34.08Z"/>
        <g>
          <path class="cls-3" d="M35.85,52.88c-.53,0-1.04-.17-1.47-.49L7.86,32.62l49.75-7.27-19.76,26.52c-.4.53-.97.88-1.63.97-.12.02-.24.03-.37.03Z"/>
          <path d="M56.48,26.03l-19.04,25.55c-.32.42-.78.7-1.3.78-.1.01-.2.02-.29.02-.42,0-.83-.14-1.18-.39l-25.55-19.04,47.36-6.92M58.73,24.69l-52.14,7.62,27.49,20.48c.52.39,1.14.59,1.77.59.14,0,.29-.01.44-.03.79-.12,1.48-.53,1.96-1.17l20.48-27.49h0Z"/>
        </g>
      </g>
      <g>
        <path class="cls-2" d="M54.65.97c-1.68,5.96-7.05,11.52-12.95,13.4-.61.19-.59,1.03.02,1.2,5.96,1.68,11.52,7.05,13.4,12.95.19.61,1.03.59,1.2-.02,1.68-5.96,7.05-11.52,12.95-13.4.61-.19.59-1.03-.02-1.2-5.96-1.68-11.52-7.05-13.4-12.95-.19-.61-1.03-.59-1.2.02Z"/>
        <path class="cls-2" d="M46.03,33.95c-.5,3.44-3.8,6.85-7.22,7.47-.09.02-.09.15,0,.16,3.44.5,6.85,3.8,7.47,7.22.02.09.15.09.16,0,.5-3.44,3.8-6.85,7.22-7.47.09-.02.09-.15,0-.16-3.44-.5-6.85-3.8-7.47-7.22-.02-.09-.15-.09-.16,0Z"/>
      </g>
    </g>
  </g>
</svg>