<?xml version="1.0" encoding="UTF-8"?>
<svg id="Layer_2" data-name="Layer 2" xmlns="http://www.w3.org/2000/svg" viewBox="0 0 75.22 75.22">
  <defs>
    <style>
      .cls-1 {
        fill: #f7a540;
      }

      .cls-1, .cls-2, .cls-3, .cls-4, .cls-5, .cls-6 {
        stroke: #1a1a1a;
        stroke-miterlimit: 10;
      }

      .cls-2 {
        fill: #6dc9d1;
      }

      .cls-3 {
        fill: #e86ba5;
      }

      .cls-4 {
        fill: #ad6dbd;
      }

      .cls-5 {
        fill: #fffff3;
      }
    </style>
  </defs>
  <g id="Layer_1-2" data-name="Layer 1">
    <g>
      <g>
        <path class="cls-5" d="M36.62,35.74c.24-.13.5-.21.78-.23-.6-4.56-1.59-9.05-5.65-12.94-4.01-4.03-11.28-7.43-21.21-10.32-3.85,4.11-6.78,9.1-8.45,14.63,23.91-5.41,30.13,1.11,34.54,8.86Z"/>
        <path class="cls-5" d="M21.57,37.39c5.09-2.3,9.6-1.56,14.02-.41.09-.3.24-.56.45-.79-7-5.52-15.22-9.22-35.38,4.77.39,4.38,1.54,8.53,3.32,12.34,6.42-8.19,12.33-13.7,17.59-15.91Z"/>
        <path class="cls-5" d="M39.42,36.49c.15.23.25.5.29.78,4.53-.6,8.99-1.6,12.85-5.64,4.03-4,7.43-11.27,10.31-21.19-4.11-3.82-9.09-6.72-14.61-8.37,5.37,23.8-1.13,30.02-8.85,34.43Z"/>
        <path class="cls-5" d="M37.74,21.45c2.31,5.12,1.55,9.65.39,14.1.29.07.56.21.79.39,5.52-6.99,9.24-15.19-4.67-35.28-4.36.39-8.5,1.54-12.29,3.3,8.12,6.38,13.58,12.25,15.78,17.49Z"/>
        <path class="cls-5" d="M35.72,38.58c-.13-.25-.21-.54-.23-.84-4.52.6-8.96,1.61-12.81,5.64-4.06,4.03-7.47,11.36-10.36,21.38,4.14,3.86,9.15,6.78,14.72,8.43-5.44-23.89.99-30.19,8.69-34.61Z"/>
        <path class="cls-5" d="M53.68,37.62c-5.08,2.29-9.57,1.56-13.98.42-.06.32-.21.6-.39.85,6.97,5.47,15.21,9.07,35.25-4.82-.41-4.35-1.58-8.48-3.36-12.27-6.4,8.14-12.27,13.61-17.52,15.82Z"/>
        <path class="cls-5" d="M38.71,39.43c-.25.15-.54.25-.84.29.6,4.49,1.62,8.9,5.63,12.73,4.03,4.05,11.35,7.47,21.36,10.36,3.82-4.13,6.72-9.14,8.35-14.69-23.79,5.39-30.08-1.01-34.49-8.69Z"/>
        <path class="cls-5" d="M37.51,53.56c-2.28-5.04-1.57-9.51-.44-13.89-.32-.09-.61-.24-.85-.45-5.47,6.98-9.05,15.24,4.92,35.34,4.37-.41,8.52-1.58,12.32-3.38-8.21-6.44-13.73-12.35-15.95-17.62Z"/>
        <path class="cls-4" d="M36.21,39.21c-.2-.18-.37-.39-.49-.63-7.7,4.42-14.13,10.71-8.69,34.61,3.35,1,6.9,1.54,10.58,1.54,1.19,0,2.36-.06,3.52-.17-13.97-20.1-10.39-28.36-4.92-35.34Z"/>
        <path class="cls-2" d="M35.49,37.74s-.01-.09-.01-.13c0-.22.04-.43.11-.64-4.43-1.15-8.93-1.89-14.02.41-5.26,2.21-11.16,7.72-17.59,15.91,2.03,4.34,4.87,8.23,8.34,11.46,2.89-10.02,6.31-17.35,10.36-21.38,3.85-4.03,8.29-5.04,12.81-5.64Z"/>
        <path class="cls-3" d="M36.04,36.19c.17-.18.36-.34.59-.45-4.41-7.74-10.63-14.27-34.54-8.86-1.03,3.4-1.58,7-1.58,10.73,0,1.13.06,2.24.16,3.34,20.15-13.98,28.38-10.28,35.38-4.77Z"/>
        <path class="cls-1" d="M37.4,35.5c.07,0,.14-.02.21-.02.18,0,.35.03.51.07,1.16-4.45,1.92-8.98-.39-14.1-2.2-5.23-7.66-11.1-15.78-17.49-4.33,2.02-8.2,4.84-11.42,8.28,9.93,2.88,17.2,6.28,21.21,10.32,4.07,3.89,5.06,8.38,5.65,12.94Z"/>
        <path class="cls-4" d="M38.92,35.94c.2.15.37.34.5.55,7.72-4.41,14.22-10.62,8.85-34.43-3.38-1.01-6.95-1.56-10.66-1.56-1.13,0-2.25.06-3.36.16,13.9,20.09,10.18,28.29,4.67,35.28Z"/>
        <path class="cls-2" d="M39.71,37.27c.02.11.03.23.03.34,0,.15-.02.29-.04.43,4.41,1.14,8.9,1.87,13.98-.42,5.24-2.2,11.12-7.68,17.52-15.82-2.03-4.31-4.87-8.16-8.32-11.37-2.88,9.92-6.28,17.19-10.31,21.19-3.86,4.04-8.32,5.05-12.85,5.64Z"/>
        <path class="cls-3" d="M39.31,38.89c-.16.21-.36.4-.59.54,4.41,7.68,10.71,14.08,34.49,8.69.98-3.33,1.52-6.85,1.52-10.5,0-1.2-.06-2.38-.17-3.54-20.04,13.89-28.27,10.29-35.25,4.82Z"/>
        <path class="cls-1" d="M37.87,39.72c-.09.01-.17.03-.26.03-.19,0-.37-.03-.55-.08-1.13,4.38-1.84,8.85.44,13.89,2.22,5.27,7.74,11.18,15.95,17.62,4.33-2.05,8.19-4.9,11.4-8.37-10.01-2.89-17.33-6.3-21.36-10.36-4.01-3.83-5.03-8.24-5.63-12.73Z"/>
      </g>
      <circle class="cls-6" cx="37.61" cy="37.61" r="4.63"/>
    </g>
  </g>
</svg>