<?xml version="1.0" encoding="UTF-8"?>
<svg id="Layer_2" data-name="Layer 2" xmlns="http://www.w3.org/2000/svg" viewBox="0 0 60.56 60.56">
  <defs>
    <style>
      .cls-1 {
        fill: #fffff4;
      }

      .cls-2 {
        fill: none;
        stroke: #000;
        stroke-miterlimit: 10;
      }
    </style>
  </defs>
  <g id="Layer_1-2" data-name="Layer 1">
    <g>
      <circle class="cls-1" cx="30.28" cy="30.28" r="29.78"/>
      <g>
        <path d="M12.02,36.19c-.79,0-1.52-.13-2.2-.4s-1.22-.68-1.65-1.25c-.42-.57-.66-1.31-.7-2.22h2.6c0,.33.08.61.25.83s.4.38.7.49c.29.1.62.16.97.16.29,0,.55-.02.8-.07.25-.05.45-.14.6-.26.15-.13.23-.3.23-.52,0-.27-.08-.47-.24-.6-.16-.13-.45-.28-.88-.45l-2.4-1.04c-.79-.34-1.4-.74-1.84-1.2-.44-.46-.66-1.09-.66-1.88,0-.93.38-1.69,1.14-2.26s1.8-.86,3.12-.86,2.38.32,3.09.95c.72.63,1.12,1.54,1.21,2.71h-2.58c-.07-.36-.23-.67-.48-.91-.25-.25-.67-.37-1.24-.37-.41,0-.74.08-1,.23-.25.15-.38.34-.38.56,0,.21.08.37.24.49.16.12.4.25.73.4l2.54,1.08c.84.37,1.47.8,1.89,1.29s.62,1.09.62,1.78c0,.74-.18,1.36-.53,1.85-.35.5-.87.87-1.54,1.12s-1.49.37-2.44.37Z"/>
        <path d="M19.68,35.92v-11.04h4.24c1.27,0,2.28.31,3.03.92.75.61,1.12,1.52,1.12,2.71s-.37,2.09-1.12,2.71c-.75.62-1.75.93-3.03.93h-1.59v3.78h-2.65ZM22.33,29.84h1.59c.48,0,.84-.13,1.08-.4.24-.27.37-.58.37-.93s-.12-.68-.37-.95c-.24-.27-.6-.4-1.08-.4h-1.59v2.68Z"/>
        <path d="M30.59,35.92v-11.04h2.63v11.04h-2.63Z"/>
        <path d="M36.8,24.88h2.75l4.43,6.68h-.18v-6.68h2.63v11.04h-2.54l-4.89-7.34h.44v7.34h-2.63v-11.04Z"/>
        <path d="M51.28,36.07c-.52,0-.94-.16-1.27-.47-.33-.31-.49-.72-.49-1.22s.16-.88.49-1.2c.33-.32.75-.49,1.27-.49s.94.16,1.28.49c.34.32.51.72.51,1.2s-.17.91-.51,1.22c-.34.32-.77.47-1.28.47ZM50.1,31.58l-.26-7.21h2.88l-.3,7.21h-2.32Z"/>
      </g>
      <circle class="cls-2" cx="30.28" cy="30.28" r="29.78"/>
    </g>
  </g>
</svg>